<?xml version="1.0" encoding="UTF-8" standalone="no"?>
<!DOCTYPE score-partwise PUBLIC "-//Recordare//DTD MusicXML 2.0 Partwise//EN" "http://www.musicxml.org/dtds/partwise.dtd">
<score-partwise version="2.0">
	<work>
		<work-title>COMING SAVIOUR
(Holley. 7s.)</work-title>
	</work>
	<identification>
		<creator type="composer">George Hews</creator>
		<creator type="poet">Anon.</creator>
		<encoding>
			<software>PDFtoMusic Pro v1.6.5 Build 1B9E7 (c) Myriad - http://www.myriad-online.com</software>
			<?PDFtoMusic Document type 0100- 31306BFA?>
			<supports attribute="new-system" element="print" type="yes" value="yes"/>
			<supports attribute="new-page" element="print" type="yes" value="yes"/>
		</encoding>
	</identification>
	<defaults>
		<scaling>
			<millimeters>8.239156</millimeters>
			<tenths>40</tenths>
		</scaling>
		<page-layout>
			<page-height>1440.371</page-height>
			<page-width>1019.050</page-width>
			<page-margins type="both">
				<left-margin>48.549</left-margin>
				<right-margin>48.549</right-margin>
				<top-margin>48.549</top-margin>
				 <bottom-margin>48.549</bottom-margin>
			</page-margins>
		</page-layout>
		<appearance>
			<line-width type="stem">0.7682</line-width>
			<line-width type="staff">0.7683</line-width>
			<line-width type="light barline">0.7858</line-width>
			<line-width type="heavy barline">5.0001</line-width>
			<line-width type="leger">0.7683</line-width>
		</appearance>
	</defaults>
	<credit page="1">
		<credit-words  default-x="59.762" default-y="1213.427" justify="left" valign="baseline" font-family="Times New Roman" font-size="10" font-weight="normal" font-style="normal">Anon.</credit-words>
	</credit>
	<credit page="1">
		<credit-words  default-x="62.962" default-y="1288.627" justify="left" valign="baseline" font-family="Times New Roman" font-size="18" font-weight="bold" font-style="normal">425</credit-words>
	</credit>
	<credit page="1">
		<credit-words  default-x="509.514" default-y="1274.227" justify="center" valign="baseline" font-family="Times New Roman" font-size="18" font-weight="normal" font-style="normal">COMING SAVIOUR
</credit-words>
		<credit-words   justify="center" valign="baseline" font-family="Times New Roman" font-size="10" font-weight="normal" font-style="normal">(Holley. 7s.)</credit-words>
	</credit>
	<credit page="1">
		<credit-words  default-x="868.963" default-y="1213.427" justify="left" valign="baseline" font-family="Times New Roman" font-size="10" font-weight="normal" font-style="normal">George Hews</credit-words>
	</credit>
	<part-list>
		<score-part id="P1">
			<part-name></part-name>
			<score-instrument id="P1-I1">
				<instrument-name>Instrument 1</instrument-name>
			</score-instrument>
			<midi-instrument id="P1-I1">
				<midi-channel>1</midi-channel>
				<midi-bank>3</midi-bank>
				<midi-program>53</midi-program>
				<volume>50</volume>
				<pan>-90</pan>
				<elevation>0</elevation>
				<?Myriad
				<iddigit>5220</iddigit>
				?>
			</midi-instrument>
		</score-part>
		<score-part id="P2">
			<part-name></part-name>
			<score-instrument id="P2-I1">
				<instrument-name>Instrument 2</instrument-name>
			</score-instrument>
			<midi-instrument id="P2-I1">
				<midi-channel>2</midi-channel>
				<midi-bank>5</midi-bank>
				<midi-program>53</midi-program>
				<volume>50</volume>
				<pan>90</pan>
				<elevation>0</elevation>
				<?Myriad
				<iddigit>5240</iddigit>
				?>
			</midi-instrument>
		</score-part>
	</part-list>
	<part id="P1">
		<!--==========================[1,1]=============================-->
		<measure number="1" width="329">
			<print new-page="yes">
				<system-layout>
					<system-margins>
						<left-margin>11.213</left-margin>
						<right-margin>10.276</right-margin>
					</system-margins>
					<top-system-distance>202.012</top-system-distance>
				</system-layout>
			</print>
			<barline location="left">
				<repeat direction="forward"/>
			</barline>
			<attributes>
				<divisions>6720</divisions>
				<key>
					<fifths>-3</fifths>
					<mode>major</mode>
				</key>
				<time>
					<beats>2</beats>
					<beat-type>2</beat-type>
				</time>
				<clef number="1">
					<sign>G</sign>
					<line>2</line>
				</clef>
				<staff-details number="1" print-object="yes">
					<staff-lines>5</staff-lines>
					<staff-size>100.00</staff-size>
				</staff-details>
			</attributes>
			<note>
				<pitch>
					<step>G</step>
					<octave>4</octave>
				</pitch>
				<duration>13440</duration>
				<voice>1</voice>
				<type>half</type>
				<stem default-y="4.62">up</stem>
				<lyric number="1" justify="right" default-y="-81.98">
					<syllabic>begin</syllabic>
					<text font-family="Times New Roman" font-size="10" font-weight="normal" font-style="normal" xml:lang="en">
. Com</text>
				</lyric>
				<lyric number="2" justify="right" default-y="-98.78">
					<syllabic>end</syllabic>
					<text font-family="Times New Roman" font-size="10" font-weight="normal" font-style="normal" xml:lang="en">
2. While</text>
				</lyric>
				<lyric number="3" justify="right" default-y="-115.58">
					<syllabic>single</syllabic>
					<text font-family="Times New Roman" font-size="10" font-weight="normal" font-style="normal" xml:lang="en">
3. Lord,</text>
				</lyric>
			</note>
			<note>
				<chord/>
				<pitch>
					<step>E</step>
					<alter>-1</alter>
					<octave>4</octave>
				</pitch>
				<duration>13440</duration>
				<voice>1</voice>
				<type>half</type>
				<stem default-y="4.62">up</stem>
			</note>
			<note>
				<pitch>
					<step>E</step>
					<alter>-1</alter>
					<octave>4</octave>
				</pitch>
				<duration>13440</duration>
				<voice>2</voice>
				<type>half</type>
				<stem default-y="-65.38">down</stem>
				<lyric number="1" justify="center" default-y="-81.98">
					<syllabic>single</syllabic>
					<text font-family="Times New Roman" font-size="10" font-weight="normal" font-style="normal" xml:lang="en">ing</text>
				</lyric>
				<lyric number="2" justify="center" default-y="-98.78">
					<syllabic>single</syllabic>
					<text font-family="Times New Roman" font-size="10" font-weight="normal" font-style="normal" xml:lang="en">in</text>
				</lyric>
				<lyric number="3" justify="center" default-y="-115.58">
					<syllabic>single</syllabic>
					<text font-family="Times New Roman" font-size="10" font-weight="normal" font-style="normal" xml:lang="en">we</text>
				</lyric>
			</note>
			<backup>
				<duration>13440</duration>
			</backup>
			<note>
				<pitch>
					<step>F</step>
					<alter>1</alter>
					<octave>4</octave>
				</pitch>
				<duration>6720</duration>
				<voice>1</voice>
				<type>quarter</type>
				<accidental>sharp</accidental>
				<stem default-y="-0.38">up</stem>
				<notations>
					<slur type="start" number="1" placement="above" orientation="over"/>
				</notations>
			</note>
			<note>
				<pitch>
					<step>G</step>
					<octave>4</octave>
				</pitch>
				<duration>6720</duration>
				<voice>1</voice>
				<type>quarter</type>
				<stem default-y="4.62">up</stem>
				<notations>
					<slur type="stop" number="1"/>
				</notations>
			</note>
		</measure>
		<!--==========================[1,2]=============================-->
		<measure number="2" width="185">
			<note>
				<pitch>
					<step>E</step>
					<alter>-1</alter>
					<octave>4</octave>
				</pitch>
				<duration>13440</duration>
				<voice>1</voice>
				<type>half</type>
				<stem default-y="-5.38">up</stem>
				<lyric number="1" justify="center" default-y="-81.98">
					<syllabic>begin</syllabic>
					<text font-family="Times New Roman" font-size="10" font-weight="normal" font-style="normal" xml:lang="en">Sav</text>
				</lyric>
				<lyric number="2" justify="center" default-y="-98.78">
					<syllabic>end</syllabic>
					<text font-family="Times New Roman" font-size="10" font-weight="normal" font-style="normal" xml:lang="en">faith</text>
				</lyric>
				<lyric number="3" justify="center" default-y="-115.58">
					<syllabic>single</syllabic>
					<text font-family="Times New Roman" font-size="10" font-weight="normal" font-style="normal" xml:lang="en">thus</text>
				</lyric>
			</note>
			<backup>
				<duration>13440</duration>
			</backup>
			<note>
				<pitch>
					<step>E</step>
					<alter>-1</alter>
					<octave>4</octave>
				</pitch>
				<duration>13440</duration>
				<voice>2</voice>
				<type>half</type>
				<stem default-y="-65.38">down</stem>
			</note>
			<note>
				<pitch>
					<step>G</step>
					<octave>4</octave>
				</pitch>
				<duration>13440</duration>
				<voice>1</voice>
				<type>half</type>
				<stem default-y="4.62">up</stem>
				<lyric number="1" justify="center" default-y="-81.98">
					<syllabic>single</syllabic>
					<text font-family="Times New Roman" font-size="10" font-weight="normal" font-style="normal" xml:lang="en">iour,</text>
				</lyric>
				<lyric number="2" justify="center" default-y="-98.78">
					<syllabic>single</syllabic>
					<text font-family="Times New Roman" font-size="10" font-weight="normal" font-style="normal" xml:lang="en">we</text>
				</lyric>
				<lyric number="3" justify="center" default-y="-115.58">
					<syllabic>begin</syllabic>
					<text font-family="Times New Roman" font-size="10" font-weight="normal" font-style="normal" xml:lang="en">re</text>
				</lyric>
			</note>
			<note>
				<chord/>
				<pitch>
					<step>E</step>
					<alter>-1</alter>
					<octave>4</octave>
				</pitch>
				<duration>13440</duration>
				<voice>1</voice>
				<type>half</type>
				<stem default-y="4.62">up</stem>
			</note>
		</measure>
		<!--==========================[1,3]=============================-->
		<measure number="3" width="225">
			<note>
				<pitch>
					<step>F</step>
					<octave>4</octave>
				</pitch>
				<duration>6720</duration>
				<voice>1</voice>
				<type>quarter</type>
				<stem default-y="-0.38">up</stem>
				<notations>
					<slur type="start" number="1" placement="above" orientation="over"/>
				</notations>
				<lyric number="1" justify="center" default-y="-81.98">
					<syllabic>end</syllabic>
					<text font-family="Times New Roman" font-size="10" font-weight="normal" font-style="normal" xml:lang="en">now</text>
				</lyric>
				<lyric number="2" justify="center" default-y="-98.78">
					<syllabic>single</syllabic>
					<text font-family="Times New Roman" font-size="10" font-weight="normal" font-style="normal" xml:lang="en">drink</text>
				</lyric>
				<lyric number="3" justify="center" default-y="-115.58">
					<syllabic>begin</syllabic>
					<text font-family="Times New Roman" font-size="10" font-weight="normal" font-style="normal" xml:lang="en">mem</text>
				</lyric>
			</note>
			<note>
				<chord/>
				<pitch>
					<step>D</step>
					<octave>4</octave>
				</pitch>
				<duration>6720</duration>
				<voice>1</voice>
				<type>quarter</type>
				<stem default-y="-0.38">up</stem>
				<notations>
					<slur type="start" number="2" placement="below" orientation="under"/>
				</notations>
			</note>
			<note>
				<pitch>
					<step>G</step>
					<octave>4</octave>
				</pitch>
				<duration>6720</duration>
				<voice>1</voice>
				<type>quarter</type>
				<stem default-y="4.62">up</stem>
				<notations>
					<slur type="stop" number="1"/>
				</notations>
			</note>
			<note>
				<chord/>
				<pitch>
					<step>E</step>
					<alter>-1</alter>
					<octave>4</octave>
				</pitch>
				<duration>6720</duration>
				<voice>1</voice>
				<type>quarter</type>
				<stem default-y="4.62">up</stem>
				<notations>
					<slur type="stop" number="2"/>
				</notations>
			</note>
			<note>
				<pitch>
					<step>A</step>
					<alter>-1</alter>
					<octave>4</octave>
				</pitch>
				<duration>6720</duration>
				<voice>1</voice>
				<type>quarter</type>
				<stem default-y="9.62">up</stem>
				<notations>
					<slur type="start" number="1" placement="above" orientation="over"/>
				</notations>
				<lyric number="1" justify="center" default-y="-81.98">
					<syllabic>end</syllabic>
					<text font-family="Times New Roman" font-size="10" font-weight="normal" font-style="normal" xml:lang="en">in</text>
				</lyric>
				<lyric number="2" justify="center" default-y="-98.78">
					<syllabic>single</syllabic>
					<text font-family="Times New Roman" font-size="10" font-weight="normal" font-style="normal" xml:lang="en">the</text>
				</lyric>
				<lyric number="3" justify="center" default-y="-115.58">
					<syllabic>single</syllabic>
					<text font-family="Times New Roman" font-size="10" font-weight="normal" font-style="normal" xml:lang="en">ber</text>
				</lyric>
			</note>
			<note>
				<chord/>
				<pitch>
					<step>F</step>
					<octave>4</octave>
				</pitch>
				<duration>6720</duration>
				<voice>1</voice>
				<type>quarter</type>
				<stem default-y="9.62">up</stem>
				<notations>
					<slur type="start" number="2" placement="below" orientation="under"/>
				</notations>
			</note>
			<note>
				<pitch>
					<step>B</step>
					<alter>-1</alter>
					<octave>4</octave>
				</pitch>
				<duration>6720</duration>
				<voice>1</voice>
				<type>quarter</type>
				<stem default-y="14.62">up</stem>
				<notations>
					<slur type="stop" number="1"/>
				</notations>
			</note>
			<note>
				<chord/>
				<pitch>
					<step>D</step>
					<octave>4</octave>
				</pitch>
				<duration>6720</duration>
				<voice>1</voice>
				<type>quarter</type>
				<stem default-y="14.62">up</stem>
				<notations>
					<slur type="stop" number="2"/>
				</notations>
			</note>
		</measure>
		<!--==========================[1,4]=============================-->
		<measure number="4" width="159">
			<note>
				<pitch>
					<step>G</step>
					<octave>4</octave>
				</pitch>
				<duration>26880</duration>
				<voice>1</voice>
				<type>whole</type>
				<stem>none</stem>
				<lyric number="1" justify="center" default-y="-81.98">
					<syllabic>single</syllabic>
					<text font-family="Times New Roman" font-size="10" font-weight="normal" font-style="normal" xml:lang="en">faith</text>
				</lyric>
				<lyric number="2" justify="center" default-y="-98.78">
					<syllabic>single</syllabic>
					<text font-family="Times New Roman" font-size="10" font-weight="normal" font-style="normal" xml:lang="en">wine,</text>
				</lyric>
				<lyric number="3" justify="center" default-y="-115.58">
					<syllabic>single</syllabic>
					<text font-family="Times New Roman" font-size="10" font-weight="normal" font-style="normal" xml:lang="en">
Thee,</text>
				</lyric>
			</note>
			<note>
				<chord/>
				<pitch>
					<step>E</step>
					<alter>-1</alter>
					<octave>4</octave>
				</pitch>
				<duration>26880</duration>
				<voice>1</voice>
				<type>whole</type>
				<stem>none</stem>
			</note>
		</measure>
		<!--==========================[1,5]=============================-->
		<measure number="5" width="296">
			<print new-system="yes">
				<system-layout>
					<system-margins>
						<left-margin>11.213</left-margin>
						<right-margin>10.276</right-margin>
					</system-margins>
					<system-distance>90.000</system-distance>
				</system-layout>
			</print>
			<attributes>
				<staff-details number="1" print-object="yes">
				</staff-details>
			</attributes>
			<note>
				<pitch>
					<step>B</step>
					<alter>-1</alter>
					<octave>4</octave>
				</pitch>
				<duration>13440</duration>
				<voice>1</voice>
				<type>half</type>
				<stem default-y="14.62">up</stem>
				<lyric number="1" justify="center" default-y="-70.45">
					<syllabic>single</syllabic>
					<text font-family="Times New Roman" font-size="10" font-weight="normal" font-style="normal" xml:lang="en">We</text>
				</lyric>
				<lyric number="2" justify="center" default-y="-87.25">
					<syllabic>single</syllabic>
					<text font-family="Times New Roman" font-size="10" font-weight="normal" font-style="normal" xml:lang="en">Of</text>
				</lyric>
				<lyric number="3" justify="center" default-y="-103.65">
					<syllabic>single</syllabic>
					<text font-family="Times New Roman" font-size="10" font-weight="normal" font-style="normal" xml:lang="en">But</text>
				</lyric>
			</note>
			<note>
				<chord/>
				<pitch>
					<step>G</step>
					<octave>4</octave>
				</pitch>
				<duration>13440</duration>
				<voice>1</voice>
				<type>half</type>
				<stem default-y="14.62">up</stem>
			</note>
			<note>
				<pitch>
					<step>A</step>
					<octave>4</octave>
				</pitch>
				<duration>6720</duration>
				<voice>1</voice>
				<type>quarter</type>
				<accidental>natural</accidental>
				<stem default-y="9.62">up</stem>
				<notations>
					<slur type="start" number="1" placement="above" orientation="over"/>
				</notations>
				<lyric number="1" justify="center" default-y="-70.45">
					<syllabic>begin</syllabic>
					<text font-family="Times New Roman" font-size="10" font-weight="normal" font-style="normal" xml:lang="en">re</text>
				</lyric>
				<lyric number="2" justify="center" default-y="-87.25">
					<syllabic>end</syllabic>
					<text font-family="Times New Roman" font-size="10" font-weight="normal" font-style="normal" xml:lang="en">Thy</text>
				</lyric>
				<lyric number="3" justify="center" default-y="-103.65">
					<syllabic>single</syllabic>
					<text font-family="Times New Roman" font-size="10" font-weight="normal" font-style="normal" xml:lang="en">we</text>
				</lyric>
			</note>
			<note>
				<chord/>
				<pitch>
					<step>F</step>
					<alter>1</alter>
					<octave>4</octave>
				</pitch>
				<duration>6720</duration>
				<voice>1</voice>
				<type>quarter</type>
				<accidental>sharp</accidental>
				<stem default-y="9.62">up</stem>
				<notations>
					<slur type="start" number="2" placement="below" orientation="under"/>
				</notations>
			</note>
			<note>
				<pitch>
					<step>B</step>
					<alter>-1</alter>
					<octave>4</octave>
				</pitch>
				<duration>6720</duration>
				<voice>1</voice>
				<type>quarter</type>
				<stem default-y="14.62">up</stem>
				<notations>
					<slur type="stop" number="1"/>
				</notations>
			</note>
			<note>
				<chord/>
				<pitch>
					<step>G</step>
					<octave>4</octave>
				</pitch>
				<duration>6720</duration>
				<voice>1</voice>
				<type>quarter</type>
				<stem default-y="14.62">up</stem>
				<notations>
					<slur type="stop" number="2"/>
				</notations>
			</note>
		</measure>
		<!--==========================[1,6]=============================-->
		<measure number="6" width="212">
			<note>
				<pitch>
					<step>G</step>
					<octave>4</octave>
				</pitch>
				<duration>13440</duration>
				<voice>1</voice>
				<type>half</type>
				<stem default-y="4.62">up</stem>
				<lyric number="1" justify="center" default-y="-70.45">
					<syllabic>begin</syllabic>
					<text font-family="Times New Roman" font-size="10" font-weight="normal" font-style="normal" xml:lang="en">mem</text>
				</lyric>
				<lyric number="2" justify="center" default-y="-87.25">
					<syllabic>end</syllabic>
					<text font-family="Times New Roman" font-size="10" font-weight="normal" font-style="normal" xml:lang="en">blood</text>
				</lyric>
				<lyric number="3" justify="center" default-y="-103.65">
					<syllabic>single</syllabic>
					<text font-family="Times New Roman" font-size="10" font-weight="normal" font-style="normal" xml:lang="en">long</text>
				</lyric>
			</note>
			<note>
				<chord/>
				<pitch>
					<step>E</step>
					<alter>-1</alter>
					<octave>4</octave>
				</pitch>
				<duration>13440</duration>
				<voice>1</voice>
				<type>half</type>
				<stem default-y="4.62">up</stem>
			</note>
			<note>
				<pitch>
					<step>G</step>
					<octave>4</octave>
				</pitch>
				<duration>6720</duration>
				<voice>1</voice>
				<type>quarter</type>
				<stem default-y="4.62">up</stem>
				<notations>
					<slur type="start" number="1" placement="above" orientation="over"/>
				</notations>
				<lyric number="1" justify="center" default-y="-70.45">
					<syllabic>single</syllabic>
					<text font-family="Times New Roman" font-size="10" font-weight="normal" font-style="normal" xml:lang="en">ber</text>
				</lyric>
				<lyric number="2" justify="center" default-y="-87.25">
					<syllabic>single</syllabic>
					<text font-family="Times New Roman" font-size="10" font-weight="normal" font-style="normal" xml:lang="en">we</text>
				</lyric>
				<lyric number="3" justify="center" default-y="-103.65">
					<syllabic>single</syllabic>
					<text font-family="Times New Roman" font-size="10" font-weight="normal" font-style="normal" xml:lang="en">Thy</text>
				</lyric>
			</note>
			<note>
				<chord/>
				<pitch>
					<step>E</step>
					<alter>-1</alter>
					<octave>4</octave>
				</pitch>
				<duration>6720</duration>
				<voice>1</voice>
				<type>quarter</type>
				<stem default-y="4.62">up</stem>
				<notations>
					<slur type="start" number="2" placement="below" orientation="under"/>
				</notations>
			</note>
			<note>
				<pitch>
					<step>B</step>
					<alter>-1</alter>
					<octave>4</octave>
				</pitch>
				<duration>6720</duration>
				<voice>1</voice>
				<type>quarter</type>
				<stem default-y="14.62">up</stem>
				<notations>
					<slur type="stop" number="1"/>
				</notations>
			</note>
			<note>
				<chord/>
				<pitch>
					<step>G</step>
					<octave>4</octave>
				</pitch>
				<duration>6720</duration>
				<voice>1</voice>
				<type>quarter</type>
				<stem default-y="14.62">up</stem>
				<notations>
					<slur type="stop" number="2"/>
				</notations>
			</note>
		</measure>
		<!--==========================[1,7]=============================-->
		<measure number="7" width="226">
			<note>
				<pitch>
					<step>B</step>
					<alter>-1</alter>
					<octave>4</octave>
				</pitch>
				<duration>6720</duration>
				<voice>1</voice>
				<type>quarter</type>
				<stem default-y="14.62">up</stem>
				<notations>
					<slur type="start" number="1" placement="above" orientation="over"/>
				</notations>
				<lyric number="1" justify="center" default-y="-70.45">
					<syllabic>single</syllabic>
					<text font-family="Times New Roman" font-size="10" font-weight="normal" font-style="normal" xml:lang="en">still</text>
				</lyric>
				<lyric number="2" justify="center" default-y="-87.25">
					<syllabic>single</syllabic>
					<text font-family="Times New Roman" font-size="10" font-weight="normal" font-style="normal" xml:lang="en">see</text>
				</lyric>
				<lyric number="3" justify="center" default-y="-103.65">
					<syllabic>single</syllabic>
					<text font-family="Times New Roman" font-size="10" font-weight="normal" font-style="normal" xml:lang="en">face</text>
				</lyric>
			</note>
			<note>
				<chord/>
				<pitch>
					<step>G</step>
					<octave>4</octave>
				</pitch>
				<duration>6720</duration>
				<voice>1</voice>
				<type>quarter</type>
				<stem default-y="14.62">up</stem>
				<notations>
					<slur type="start" number="2" placement="below" orientation="under"/>
				</notations>
			</note>
			<note>
				<pitch>
					<step>A</step>
					<alter>-1</alter>
					<octave>4</octave>
				</pitch>
				<duration>6720</duration>
				<voice>1</voice>
				<type>quarter</type>
				<stem default-y="9.62">up</stem>
				<notations>
					<slur type="stop" number="1"/>
				</notations>
			</note>
			<note>
				<chord/>
				<pitch>
					<step>F</step>
					<octave>4</octave>
				</pitch>
				<duration>6720</duration>
				<voice>1</voice>
				<type>quarter</type>
				<stem default-y="9.62">up</stem>
				<notations>
					<slur type="stop" number="2"/>
				</notations>
			</note>
			<note>
				<pitch>
					<step>A</step>
					<alter>-1</alter>
					<octave>4</octave>
				</pitch>
				<duration>6720</duration>
				<voice>1</voice>
				<type>quarter</type>
				<stem default-y="9.62">up</stem>
				<notations>
					<slur type="start" number="1" placement="above" orientation="over"/>
				</notations>
				<lyric number="1" justify="center" default-y="-70.45">
					<syllabic>single</syllabic>
					<text font-family="Times New Roman" font-size="10" font-weight="normal" font-style="normal" xml:lang="en">
Thy</text>
				</lyric>
				<lyric number="2" justify="center" default-y="-87.25">
					<syllabic>single</syllabic>
					<text font-family="Times New Roman" font-size="10" font-weight="normal" font-style="normal" xml:lang="en">the</text>
				</lyric>
				<lyric number="3" justify="center" default-y="-103.65">
					<syllabic>single</syllabic>
					<text font-family="Times New Roman" font-size="10" font-weight="normal" font-style="normal" xml:lang="en">to</text>
				</lyric>
			</note>
			<note>
				<chord/>
				<pitch>
					<step>F</step>
					<octave>4</octave>
				</pitch>
				<duration>6720</duration>
				<voice>1</voice>
				<type>quarter</type>
				<stem default-y="9.62">up</stem>
				<notations>
					<slur type="start" number="2" placement="below" orientation="under"/>
				</notations>
			</note>
			<note>
				<pitch>
					<step>G</step>
					<octave>4</octave>
				</pitch>
				<duration>6720</duration>
				<voice>1</voice>
				<type>quarter</type>
				<stem default-y="4.62">up</stem>
				<notations>
					<slur type="stop" number="1"/>
				</notations>
			</note>
			<note>
				<chord/>
				<pitch>
					<step>E</step>
					<alter>-1</alter>
					<octave>4</octave>
				</pitch>
				<duration>6720</duration>
				<voice>1</voice>
				<type>quarter</type>
				<stem default-y="4.62">up</stem>
				<notations>
					<slur type="stop" number="2"/>
				</notations>
			</note>
		</measure>
		<!--==========================[1,8]=============================-->
		<measure number="8" width="164">
			<note>
				<pitch>
					<step>F</step>
					<octave>4</octave>
				</pitch>
				<duration>26880</duration>
				<voice>1</voice>
				<type>whole</type>
				<stem>none</stem>
				<lyric number="1" justify="center" default-y="-70.45">
					<syllabic>single</syllabic>
					<text font-family="Times New Roman" font-size="10" font-weight="normal" font-style="normal" xml:lang="en">death;</text>
				</lyric>
				<lyric number="2" justify="center" default-y="-87.25">
					<syllabic>single</syllabic>
					<text font-family="Times New Roman" font-size="10" font-weight="normal" font-style="normal" xml:lang="en">sign;</text>
				</lyric>
				<lyric number="3" justify="center" default-y="-103.65">
					<syllabic>single</syllabic>
					<text font-family="Times New Roman" font-size="10" font-weight="normal" font-style="normal" xml:lang="en">see—</text>
				</lyric>
			</note>
			<note>
				<chord/>
				<pitch>
					<step>D</step>
					<octave>4</octave>
				</pitch>
				<duration>26880</duration>
				<voice>1</voice>
				<type>whole</type>
				<stem>none</stem>
			</note>
		</measure>
		<!--==========================[1,9]=============================-->
		<measure number="9" width="293">
			<print new-system="yes">
				<system-layout>
					<system-margins>
						<left-margin>11.213</left-margin>
						<right-margin>10.276</right-margin>
					</system-margins>
					<system-distance>93.333</system-distance>
				</system-layout>
			</print>
			<attributes>
				<staff-details number="1" print-object="yes">
				</staff-details>
			</attributes>
			<note>
				<pitch>
					<step>G</step>
					<octave>4</octave>
				</pitch>
				<duration>13440</duration>
				<voice>1</voice>
				<type>half</type>
				<stem default-y="4.62">up</stem>
				<lyric number="1" justify="center" default-y="-82.25">
					<syllabic>single</syllabic>
					<text font-family="Times New Roman" font-size="10" font-weight="normal" font-style="normal" xml:lang="en">Thou</text>
				</lyric>
				<lyric number="2" justify="center" default-y="-98.65">
					<syllabic>single</syllabic>
					<text font-family="Times New Roman" font-size="10" font-weight="normal" font-style="normal" xml:lang="en">Wash</text>
				</lyric>
				<lyric number="3" justify="center" default-y="-115.45">
					<syllabic>single</syllabic>
					<text font-family="Times New Roman" font-size="10" font-weight="normal" font-style="normal" xml:lang="en">Long</text>
				</lyric>
			</note>
			<note>
				<chord/>
				<pitch>
					<step>E</step>
					<alter>-1</alter>
					<octave>4</octave>
				</pitch>
				<duration>13440</duration>
				<voice>1</voice>
				<type>half</type>
				<stem default-y="4.62">up</stem>
			</note>
			<note>
				<pitch>
					<step>F</step>
					<octave>4</octave>
				</pitch>
				<duration>13440</duration>
				<voice>1</voice>
				<type>half</type>
				<stem default-y="-0.38">up</stem>
				<lyric number="1" justify="center" default-y="-82.25">
					<syllabic>single</syllabic>
					<text font-family="Times New Roman" font-size="10" font-weight="normal" font-style="normal" xml:lang="en">wast</text>
				</lyric>
				<lyric number="2" justify="center" default-y="-98.65">
					<syllabic>single</syllabic>
					<text font-family="Times New Roman" font-size="10" font-weight="normal" font-style="normal" xml:lang="en">us</text>
				</lyric>
				<lyric number="3" justify="center" default-y="-115.45">
					<syllabic>single</syllabic>
					<text font-family="Times New Roman" font-size="10" font-weight="normal" font-style="normal" xml:lang="en">to</text>
				</lyric>
			</note>
			<note>
				<chord/>
				<pitch>
					<step>D</step>
					<octave>4</octave>
				</pitch>
				<duration>13440</duration>
				<voice>1</voice>
				<type>half</type>
				<stem default-y="-0.38">up</stem>
			</note>
		</measure>
		<!--==========================[1,10]=============================-->
		<measure number="10" width="199">
			<note>
				<pitch>
					<step>E</step>
					<alter>-1</alter>
					<octave>4</octave>
				</pitch>
				<duration>13440</duration>
				<voice>1</voice>
				<type>half</type>
				<stem default-y="-5.38">up</stem>
				<lyric number="1" justify="center" default-y="-82.25">
					<syllabic>begin</syllabic>
					<text font-family="Times New Roman" font-size="10" font-weight="normal" font-style="normal" xml:lang="en">bro</text>
				</lyric>
				<lyric number="2" justify="center" default-y="-98.65">
					<syllabic>end</syllabic>
					<text font-family="Times New Roman" font-size="10" font-weight="normal" font-style="normal" xml:lang="en">pure</text>
				</lyric>
				<lyric number="3" justify="center" default-y="-115.45">
					<syllabic>single</syllabic>
					<text font-family="Times New Roman" font-size="10" font-weight="normal" font-style="normal" xml:lang="en">reach</text>
				</lyric>
			</note>
			<backup>
				<duration>13440</duration>
			</backup>
			<note>
				<pitch>
					<step>E</step>
					<alter>-1</alter>
					<octave>4</octave>
				</pitch>
				<duration>13440</duration>
				<voice>2</voice>
				<type>half</type>
				<stem default-y="-65.38">down</stem>
			</note>
			<note>
				<pitch>
					<step>F</step>
					<octave>4</octave>
				</pitch>
				<duration>13440</duration>
				<voice>1</voice>
				<type>half</type>
				<stem default-y="-0.38">up</stem>
				<lyric number="1" justify="center" default-y="-82.25">
					<syllabic>single</syllabic>
					<text font-family="Times New Roman" font-size="10" font-weight="normal" font-style="normal" xml:lang="en">ken—</text>
				</lyric>
				<lyric number="2" justify="center" default-y="-98.65">
					<syllabic>single</syllabic>
					<text font-family="Times New Roman" font-size="10" font-weight="normal" font-style="normal" xml:lang="en">from</text>
				</lyric>
				<lyric number="3" justify="center" default-y="-115.45">
					<syllabic>single</syllabic>
					<text font-family="Times New Roman" font-size="10" font-weight="normal" font-style="normal" xml:lang="en">our</text>
				</lyric>
			</note>
			<note>
				<chord/>
				<pitch>
					<step>D</step>
					<octave>4</octave>
				</pitch>
				<duration>13440</duration>
				<voice>1</voice>
				<type>half</type>
				<stem default-y="-0.38">up</stem>
			</note>
		</measure>
		<!--==========================[1,11]=============================-->
		<measure number="11" width="237">
			<note>
				<pitch>
					<step>G</step>
					<octave>4</octave>
				</pitch>
				<duration>6720</duration>
				<voice>1</voice>
				<type>quarter</type>
				<stem default-y="4.62">up</stem>
				<notations>
					<slur type="start" number="1" placement="above" orientation="over"/>
				</notations>
				<lyric number="1" justify="center" default-y="-82.25">
					<syllabic>single</syllabic>
					<text font-family="Times New Roman" font-size="10" font-weight="normal" font-style="normal" xml:lang="en">
Thou</text>
				</lyric>
				<lyric number="2" justify="center" default-y="-98.65">
					<syllabic>begin</syllabic>
					<text font-family="Times New Roman" font-size="10" font-weight="normal" font-style="normal" xml:lang="en">ev</text>
				</lyric>
				<lyric number="3" justify="center" default-y="-115.45">
					<syllabic>middle</syllabic>
					<text font-family="Times New Roman" font-size="10" font-weight="normal" font-style="normal" xml:lang="en">heav'n</text>
				</lyric>
			</note>
			<backup>
				<duration>6720</duration>
			</backup>
			<note>
				<pitch>
					<step>E</step>
					<alter>-1</alter>
					<octave>4</octave>
				</pitch>
				<duration>13440</duration>
				<voice>2</voice>
				<type>half</type>
				<stem default-y="-65.38">down</stem>
			</note>
			<backup>
				<duration>6720</duration>
			</backup>
			<note>
				<pitch>
					<step>A</step>
					<alter>-1</alter>
					<octave>4</octave>
				</pitch>
				<duration>6720</duration>
				<voice>1</voice>
				<type>quarter</type>
				<stem default-y="9.62">up</stem>
				<notations>
					<slur type="stop" number="1"/>
				</notations>
			</note>
			<note>
				<pitch>
					<step>B</step>
					<alter>-1</alter>
					<octave>4</octave>
				</pitch>
				<duration>6720</duration>
				<voice>1</voice>
				<type>quarter</type>
				<stem default-y="14.62">up</stem>
				<notations>
					<slur type="start" number="1" placement="above" orientation="over"/>
				</notations>
				<lyric number="1" justify="center" default-y="-82.25">
					<syllabic>end</syllabic>
					<text font-family="Times New Roman" font-size="10" font-weight="normal" font-style="normal" xml:lang="en">hast</text>
				</lyric>
				<lyric number="2" justify="center" default-y="-98.65">
					<syllabic>single</syllabic>
					<text font-family="Times New Roman" font-size="10" font-weight="normal" font-style="normal" xml:lang="en">'ry</text>
				</lyric>
				<lyric number="3" justify="center" default-y="-115.45">
					<syllabic>single</syllabic>
					<text font-family="Times New Roman" font-size="10" font-weight="normal" font-style="normal" xml:lang="en">ly</text>
				</lyric>
			</note>
			<backup>
				<duration>6720</duration>
			</backup>
			<note>
				<pitch>
					<step>E</step>
					<alter>-1</alter>
					<octave>4</octave>
				</pitch>
				<duration>13440</duration>
				<voice>2</voice>
				<type>half</type>
				<stem default-y="-65.38">down</stem>
			</note>
			<backup>
				<duration>6720</duration>
			</backup>
			<note>
				<pitch>
					<step>C</step>
					<octave>5</octave>
				</pitch>
				<duration>6720</duration>
				<voice>1</voice>
				<type>quarter</type>
				<stem default-y="9.62">up</stem>
				<notations>
					<slur type="stop" number="1"/>
				</notations>
			</note>
		</measure>
		<!--==========================[1,12]=============================-->
		<measure number="12" width="169">
			<note>
				<pitch>
					<step>F</step>
					<octave>4</octave>
				</pitch>
				<duration>26880</duration>
				<voice>1</voice>
				<type>whole</type>
				<stem>none</stem>
				<lyric number="1" justify="center" default-y="-82.25">
					<syllabic>single</syllabic>
					<text font-family="Times New Roman" font-size="10" font-weight="normal" font-style="normal" xml:lang="en">died;</text>
				</lyric>
				<lyric number="2" justify="center" default-y="-98.65">
					<syllabic>single</syllabic>
					<text font-family="Times New Roman" font-size="10" font-weight="normal" font-style="normal" xml:lang="en">stain,</text>
				</lyric>
				<lyric number="3" justify="center" default-y="-115.45">
					<syllabic>single</syllabic>
					<text font-family="Times New Roman" font-size="10" font-weight="normal" font-style="normal" xml:lang="en">home;</text>
				</lyric>
			</note>
			<note>
				<chord/>
				<pitch>
					<step>D</step>
					<octave>4</octave>
				</pitch>
				<duration>26880</duration>
				<voice>1</voice>
				<type>whole</type>
				<stem>none</stem>
			</note>
		</measure>
		<!--==========================[1,13]=============================-->
		<measure number="13" width="314">
			<print new-system="yes">
				<system-layout>
					<system-margins>
						<left-margin>11.213</left-margin>
						<right-margin>15.414</right-margin>
					</system-margins>
					<system-distance>88.333</system-distance>
				</system-layout>
			</print>
			<attributes>
				<staff-details number="1" print-object="yes">
				</staff-details>
			</attributes>
			<note>
				<pitch>
					<step>G</step>
					<octave>4</octave>
				</pitch>
				<duration>13440</duration>
				<voice>1</voice>
				<type>half</type>
				<stem default-y="4.62">up</stem>
				<lyric number="1" justify="center" default-y="-81.98">
					<syllabic>single</syllabic>
					<text font-family="Times New Roman" font-size="10" font-weight="normal" font-style="normal" xml:lang="en">For</text>
				</lyric>
				<lyric number="2" justify="center" default-y="-98.78">
					<syllabic>single</syllabic>
					<text font-family="Times New Roman" font-size="10" font-weight="normal" font-style="normal" xml:lang="en">Thou</text>
				</lyric>
				<lyric number="3" justify="center" default-y="-115.58">
					<syllabic>single</syllabic>
					<text font-family="Times New Roman" font-size="10" font-weight="normal" font-style="normal" xml:lang="en">Come,</text>
				</lyric>
			</note>
			<note>
				<chord/>
				<pitch>
					<step>E</step>
					<alter>-1</alter>
					<octave>4</octave>
				</pitch>
				<duration>13440</duration>
				<voice>1</voice>
				<type>half</type>
				<stem default-y="4.62">up</stem>
			</note>
			<note>
				<pitch>
					<step>B</step>
					<alter>-1</alter>
					<octave>4</octave>
				</pitch>
				<duration>13440</duration>
				<voice>1</voice>
				<type>half</type>
				<stem default-y="14.62">up</stem>
				<lyric number="1" justify="center" default-y="-81.98">
					<syllabic>single</syllabic>
					<text font-family="Times New Roman" font-size="10" font-weight="normal" font-style="normal" xml:lang="en">us</text>
				</lyric>
				<lyric number="2" justify="center" default-y="-98.78">
					<syllabic>single</syllabic>
					<text font-family="Times New Roman" font-size="10" font-weight="normal" font-style="normal" xml:lang="en">that</text>
				</lyric>
				<lyric number="3" justify="center" default-y="-115.58">
					<syllabic>single</syllabic>
					<text font-family="Times New Roman" font-size="10" font-weight="normal" font-style="normal" xml:lang="en">Lord</text>
				</lyric>
			</note>
			<note>
				<chord/>
				<pitch>
					<step>E</step>
					<octave>4</octave>
				</pitch>
				<duration>13440</duration>
				<voice>1</voice>
				<type>half</type>
				<accidental>natural</accidental>
				<stem default-y="14.62">up</stem>
			</note>
		</measure>
		<!--==========================[1,14]=============================-->
		<measure number="14" width="171">
			<note>
				<pitch>
					<step>A</step>
					<alter>-1</alter>
					<octave>4</octave>
				</pitch>
				<duration>20160</duration>
				<voice>1</voice>
				<type>half</type>
				<dot/>
				<stem default-y="9.62">up</stem>
				<lyric number="1" justify="center" default-y="-81.98">
					<syllabic>single</syllabic>
					<text font-family="Times New Roman" font-size="10" font-weight="normal" font-style="normal" xml:lang="en">
Thou</text>
				</lyric>
				<lyric number="2" justify="center" default-y="-98.78">
					<syllabic>begin</syllabic>
					<text font-family="Times New Roman" font-size="10" font-weight="normal" font-style="normal" xml:lang="en">com</text>
				</lyric>
				<lyric number="3" justify="center" default-y="-115.58">
					<syllabic>middle</syllabic>
					<text font-family="Times New Roman" font-size="10" font-weight="normal" font-style="normal" xml:lang="en">
Je</text>
				</lyric>
			</note>
			<note>
				<chord/>
				<pitch>
					<step>F</step>
					<octave>4</octave>
				</pitch>
				<duration>20160</duration>
				<voice>1</voice>
				<type>half</type>
				<dot/>
				<stem default-y="9.62">up</stem>
			</note>
			<note>
				<pitch>
					<step>F</step>
					<octave>4</octave>
				</pitch>
				<duration>6720</duration>
				<voice>1</voice>
				<type>quarter</type>
				<stem default-y="-0.38">up</stem>
				<lyric number="1" justify="center" default-y="-81.98">
					<syllabic>end</syllabic>
					<text font-family="Times New Roman" font-size="10" font-weight="normal" font-style="normal" xml:lang="en">wast</text>
				</lyric>
				<lyric number="2" justify="center" default-y="-98.78">
					<syllabic>single</syllabic>
					<text font-family="Times New Roman" font-size="10" font-weight="normal" font-style="normal" xml:lang="en">est</text>
				</lyric>
				<lyric number="3" justify="center" default-y="-115.58">
					<syllabic>single</syllabic>
					<text font-family="Times New Roman" font-size="10" font-weight="normal" font-style="normal" xml:lang="en">sus,</text>
				</lyric>
			</note>
			<note>
				<chord/>
				<pitch>
					<step>C</step>
					<octave>4</octave>
				</pitch>
				<duration>6720</duration>
				<voice>1</voice>
				<type>quarter</type>
				<stem default-y="-0.38">up</stem>
			</note>
		</measure>
		<!--==========================[1,15]=============================-->
		<measure number="15" width="218">
			<note>
				<pitch>
					<step>E</step>
					<alter>-1</alter>
					<octave>4</octave>
				</pitch>
				<duration>13440</duration>
				<voice>1</voice>
				<type>half</type>
				<stem default-y="-5.38">up</stem>
				<lyric number="1" justify="center" default-y="-81.98">
					<syllabic>begin</syllabic>
					<text font-family="Times New Roman" font-size="10" font-weight="normal" font-style="normal" xml:lang="en">cru</text>
				</lyric>
				<lyric number="2" justify="center" default-y="-98.78">
					<syllabic>end</syllabic>
					<text font-family="Times New Roman" font-size="10" font-weight="normal" font-style="normal" xml:lang="en">soon</text>
				</lyric>
				<lyric number="3" justify="center" default-y="-115.58">
					<syllabic>begin</syllabic>
					<text font-family="Times New Roman" font-size="10" font-weight="normal" font-style="normal" xml:lang="en">quick</text>
				</lyric>
			</note>
			<note>
				<chord/>
				<pitch>
					<step>B</step>
					<alter>-1</alter>
					<octave>3</octave>
				</pitch>
				<duration>13440</duration>
				<voice>1</voice>
				<type>half</type>
				<stem default-y="-5.38">up</stem>
			</note>
			<note>
				<pitch>
					<step>D</step>
					<octave>4</octave>
				</pitch>
				<duration>13440</duration>
				<voice>1</voice>
				<type>half</type>
				<stem default-y="-10.38">up</stem>
				<lyric number="1" justify="center" default-y="-81.98">
					<syllabic>middle</syllabic>
					<text font-family="Times New Roman" font-size="10" font-weight="normal" font-style="normal" xml:lang="en">ci</text>
				</lyric>
				<lyric number="2" justify="center" default-y="-98.78">
					<syllabic>end</syllabic>
					<text font-family="Times New Roman" font-size="10" font-weight="normal" font-style="normal" xml:lang="en">to</text>
				</lyric>
				<lyric number="3" justify="center" default-y="-115.58">
					<syllabic>single</syllabic>
					<text font-family="Times New Roman" font-size="10" font-weight="normal" font-style="normal" xml:lang="en">ly</text>
				</lyric>
			</note>
			<note>
				<chord/>
				<pitch>
					<step>B</step>
					<alter>-1</alter>
					<octave>3</octave>
				</pitch>
				<duration>13440</duration>
				<voice>1</voice>
				<type>half</type>
				<stem default-y="-10.38">up</stem>
			</note>
		</measure>
		<!--==========================[1,16]=============================-->
		<measure number="16" width="190">
			<note>
				<pitch>
					<step>E</step>
					<alter>-1</alter>
					<octave>4</octave>
				</pitch>
				<duration>26880</duration>
				<voice>1</voice>
				<type>whole</type>
				<stem>none</stem>
				<lyric number="1" justify="center" default-y="-81.98">
					<syllabic>single</syllabic>
					<text font-family="Times New Roman" font-size="10" font-weight="normal" font-style="normal" xml:lang="en">fied.</text>
				</lyric>
				<lyric number="2" justify="center" default-y="-98.78">
					<syllabic>single</syllabic>
					<text font-family="Times New Roman" font-size="10" font-weight="normal" font-style="normal" xml:lang="en">reign.</text>
				</lyric>
				<lyric number="3" justify="center" default-y="-115.58">
					<syllabic>single</syllabic>
					<text font-family="Times New Roman" font-size="10" font-weight="normal" font-style="normal" xml:lang="en">come!</text>
				</lyric>
			</note>
			<note>
				<chord/>
				<pitch>
					<step>B</step>
					<alter>-1</alter>
					<octave>3</octave>
				</pitch>
				<duration>26880</duration>
				<voice>1</voice>
				<type>whole</type>
				<stem>none</stem>
			</note>
			<barline location="right">
				<repeat direction="backward" times="3"/>
			</barline>
		</measure>
	</part>
	<part id="P2">
		<!--==========================[2,1]=============================-->
		<measure number="1" width="329">
			<print new-page="yes">
				<staff-layout number="1">
					<staff-distance>118.333</staff-distance>
				</staff-layout>
			</print>
			<barline location="left">
				<repeat direction="forward"/>
			</barline>
			<attributes>
				<divisions>6720</divisions>
				<key>
					<fifths>-3</fifths>
					<mode>major</mode>
				</key>
				<time>
					<beats>2</beats>
					<beat-type>2</beat-type>
				</time>
				<clef number="1">
					<sign>F</sign>
					<line>4</line>
				</clef>
				<staff-details number="1" print-object="yes">
					<staff-lines>5</staff-lines>
					<staff-size>100.00</staff-size>
				</staff-details>
			</attributes>
			<note print-lyric="no">
				<pitch>
					<step>B</step>
					<alter>-1</alter>
					<octave>3</octave>
				</pitch>
				<duration>13440</duration>
				<voice>2</voice>
				<type>half</type>
				<stem default-y="-50.38">down</stem>
				<lyric number="1" justify="right" default-y="76.35">
					<syllabic>begin</syllabic>
					<text font-family="Times New Roman" font-size="10" font-weight="normal" font-style="normal" xml:lang="en">
. Com</text>
				</lyric>
				<lyric number="2" justify="right" default-y="59.55">
					<syllabic>end</syllabic>
					<text font-family="Times New Roman" font-size="10" font-weight="normal" font-style="normal" xml:lang="en">
2. While</text>
				</lyric>
				<lyric number="3" justify="right" default-y="42.75">
					<syllabic>single</syllabic>
					<text font-family="Times New Roman" font-size="10" font-weight="normal" font-style="normal" xml:lang="en">
3. Lord,</text>
				</lyric>
			</note>
			<note>
				<chord/>
				<pitch>
					<step>E</step>
					<alter>-1</alter>
					<octave>3</octave>
				</pitch>
				<duration>13440</duration>
				<voice>2</voice>
				<type>half</type>
				<stem default-y="-50.38">down</stem>
			</note>
			<note print-lyric="no">
				<pitch>
					<step>A</step>
					<octave>3</octave>
				</pitch>
				<duration>6720</duration>
				<voice>1</voice>
				<type>quarter</type>
				<accidental>natural</accidental>
				<stem default-y="24.62">up</stem>
				<notations>
					<slur type="start" number="1" placement="above" orientation="over"/>
				</notations>
				<lyric number="1" justify="center" default-y="76.35">
					<syllabic>single</syllabic>
					<text font-family="Times New Roman" font-size="10" font-weight="normal" font-style="normal" xml:lang="en">ing</text>
				</lyric>
				<lyric number="2" justify="center" default-y="59.55">
					<syllabic>single</syllabic>
					<text font-family="Times New Roman" font-size="10" font-weight="normal" font-style="normal" xml:lang="en">in</text>
				</lyric>
				<lyric number="3" justify="center" default-y="42.75">
					<syllabic>single</syllabic>
					<text font-family="Times New Roman" font-size="10" font-weight="normal" font-style="normal" xml:lang="en">we</text>
				</lyric>
			</note>
			<backup>
				<duration>6720</duration>
			</backup>
			<note>
				<pitch>
					<step>E</step>
					<alter>-1</alter>
					<octave>3</octave>
				</pitch>
				<duration>13440</duration>
				<voice>2</voice>
				<type>half</type>
				<stem default-y="-50.38">down</stem>
			</note>
			<backup>
				<duration>6720</duration>
			</backup>
			<note>
				<pitch>
					<step>B</step>
					<alter>-1</alter>
					<octave>3</octave>
				</pitch>
				<duration>6720</duration>
				<voice>1</voice>
				<type>quarter</type>
				<stem default-y="29.62">up</stem>
				<notations>
					<slur type="stop" number="1"/>
				</notations>
			</note>
		</measure>
		<!--==========================[2,2]=============================-->
		<measure number="2" width="185">
			<note print-lyric="no">
				<pitch>
					<step>G</step>
					<octave>3</octave>
				</pitch>
				<duration>13440</duration>
				<voice>1</voice>
				<type>half</type>
				<stem default-y="-50.38">down</stem>
				<lyric number="1" justify="center" default-y="76.35">
					<syllabic>begin</syllabic>
					<text font-family="Times New Roman" font-size="10" font-weight="normal" font-style="normal" xml:lang="en">Sav</text>
				</lyric>
				<lyric number="2" justify="center" default-y="59.55">
					<syllabic>end</syllabic>
					<text font-family="Times New Roman" font-size="10" font-weight="normal" font-style="normal" xml:lang="en">faith</text>
				</lyric>
				<lyric number="3" justify="center" default-y="42.75">
					<syllabic>single</syllabic>
					<text font-family="Times New Roman" font-size="10" font-weight="normal" font-style="normal" xml:lang="en">thus</text>
				</lyric>
			</note>
			<note>
				<chord/>
				<pitch>
					<step>E</step>
					<alter>-1</alter>
					<octave>3</octave>
				</pitch>
				<duration>13440</duration>
				<voice>1</voice>
				<type>half</type>
				<stem default-y="-50.38">down</stem>
			</note>
			<note print-lyric="no">
				<pitch>
					<step>B</step>
					<alter>-1</alter>
					<octave>3</octave>
				</pitch>
				<duration>13440</duration>
				<voice>1</voice>
				<type>half</type>
				<stem default-y="-50.38">down</stem>
				<lyric number="1" justify="center" default-y="76.35">
					<syllabic>single</syllabic>
					<text font-family="Times New Roman" font-size="10" font-weight="normal" font-style="normal" xml:lang="en">iour,</text>
				</lyric>
				<lyric number="2" justify="center" default-y="59.55">
					<syllabic>single</syllabic>
					<text font-family="Times New Roman" font-size="10" font-weight="normal" font-style="normal" xml:lang="en">we</text>
				</lyric>
				<lyric number="3" justify="center" default-y="42.75">
					<syllabic>begin</syllabic>
					<text font-family="Times New Roman" font-size="10" font-weight="normal" font-style="normal" xml:lang="en">re</text>
				</lyric>
			</note>
			<note>
				<chord/>
				<pitch>
					<step>E</step>
					<alter>-1</alter>
					<octave>3</octave>
				</pitch>
				<duration>13440</duration>
				<voice>1</voice>
				<type>half</type>
				<stem default-y="-50.38">down</stem>
			</note>
		</measure>
		<!--==========================[2,3]=============================-->
		<measure number="3" width="225">
			<note print-lyric="no">
				<pitch>
					<step>B</step>
					<alter>-1</alter>
					<octave>3</octave>
				</pitch>
				<duration>13440</duration>
				<voice>1</voice>
				<type>half</type>
				<stem default-y="-55.38">down</stem>
				<lyric number="1" justify="center" default-y="76.35">
					<syllabic>end</syllabic>
					<text font-family="Times New Roman" font-size="10" font-weight="normal" font-style="normal" xml:lang="en">now</text>
				</lyric>
				<lyric number="2" justify="center" default-y="59.55">
					<syllabic>single</syllabic>
					<text font-family="Times New Roman" font-size="10" font-weight="normal" font-style="normal" xml:lang="en">drink</text>
				</lyric>
				<lyric number="3" justify="center" default-y="42.75">
					<syllabic>begin</syllabic>
					<text font-family="Times New Roman" font-size="10" font-weight="normal" font-style="normal" xml:lang="en">mem</text>
				</lyric>
			</note>
			<note>
				<chord/>
				<pitch>
					<step>B</step>
					<alter>-1</alter>
					<octave>2</octave>
				</pitch>
				<duration>13440</duration>
				<voice>1</voice>
				<type>half</type>
				<stem default-y="-64.96">down</stem>
			</note>
			<note print-lyric="no">
				<pitch>
					<step>B</step>
					<alter>-1</alter>
					<octave>3</octave>
				</pitch>
				<duration>13440</duration>
				<voice>1</voice>
				<type>half</type>
				<stem default-y="-55.38">down</stem>
				<lyric number="1" justify="center" default-y="76.35">
					<syllabic>end</syllabic>
					<text font-family="Times New Roman" font-size="10" font-weight="normal" font-style="normal" xml:lang="en">in</text>
				</lyric>
				<lyric number="2" justify="center" default-y="59.55">
					<syllabic>single</syllabic>
					<text font-family="Times New Roman" font-size="10" font-weight="normal" font-style="normal" xml:lang="en">the</text>
				</lyric>
				<lyric number="3" justify="center" default-y="42.75">
					<syllabic>single</syllabic>
					<text font-family="Times New Roman" font-size="10" font-weight="normal" font-style="normal" xml:lang="en">ber</text>
				</lyric>
			</note>
			<note>
				<chord/>
				<pitch>
					<step>B</step>
					<alter>-1</alter>
					<octave>2</octave>
				</pitch>
				<duration>13440</duration>
				<voice>1</voice>
				<type>half</type>
				<stem default-y="-64.96">down</stem>
			</note>
		</measure>
		<!--==========================[2,4]=============================-->
		<measure number="4" width="159">
			<note print-lyric="no">
				<pitch>
					<step>B</step>
					<alter>-1</alter>
					<octave>3</octave>
				</pitch>
				<duration>26880</duration>
				<voice>1</voice>
				<type>whole</type>
				<stem>none</stem>
				<lyric number="1" justify="center" default-y="76.35">
					<syllabic>single</syllabic>
					<text font-family="Times New Roman" font-size="10" font-weight="normal" font-style="normal" xml:lang="en">faith</text>
				</lyric>
				<lyric number="2" justify="center" default-y="59.55">
					<syllabic>single</syllabic>
					<text font-family="Times New Roman" font-size="10" font-weight="normal" font-style="normal" xml:lang="en">wine,</text>
				</lyric>
				<lyric number="3" justify="center" default-y="42.75">
					<syllabic>single</syllabic>
					<text font-family="Times New Roman" font-size="10" font-weight="normal" font-style="normal" xml:lang="en">
Thee,</text>
				</lyric>
			</note>
			<note>
				<chord/>
				<pitch>
					<step>E</step>
					<alter>-1</alter>
					<octave>3</octave>
				</pitch>
				<duration>26880</duration>
				<voice>1</voice>
				<type>whole</type>
				<stem>none</stem>
			</note>
		</measure>
		<!--==========================[2,5]=============================-->
		<measure number="5" width="296">
			<print new-system="yes">
				<staff-layout number="1">
					<staff-distance>101.667</staff-distance>
				</staff-layout>
			</print>
			<attributes>
				<staff-details number="1" print-object="yes">
				</staff-details>
			</attributes>
			<note print-lyric="no">
				<pitch>
					<step>E</step>
					<alter>-1</alter>
					<octave>4</octave>
				</pitch>
				<duration>13440</duration>
				<voice>1</voice>
				<type>half</type>
				<stem default-y="-50.38">down</stem>
				<lyric number="1" justify="center" default-y="71.22">
					<syllabic>single</syllabic>
					<text font-family="Times New Roman" font-size="10" font-weight="normal" font-style="normal" xml:lang="en">We</text>
				</lyric>
				<lyric number="2" justify="center" default-y="54.42">
					<syllabic>single</syllabic>
					<text font-family="Times New Roman" font-size="10" font-weight="normal" font-style="normal" xml:lang="en">Of</text>
				</lyric>
				<lyric number="3" justify="center" default-y="38.02">
					<syllabic>single</syllabic>
					<text font-family="Times New Roman" font-size="10" font-weight="normal" font-style="normal" xml:lang="en">But</text>
				</lyric>
			</note>
			<note>
				<chord/>
				<pitch>
					<step>E</step>
					<alter>-1</alter>
					<octave>3</octave>
				</pitch>
				<duration>13440</duration>
				<voice>1</voice>
				<type>half</type>
				<stem default-y="-50.38">down</stem>
				<notations>
					<articulations>
						<tenuto placement="above" relative-x="-2.18" relative-y="25.34"/>
					</articulations>
				</notations>
			</note>
			<note print-lyric="no">
				<pitch>
					<step>E</step>
					<alter>-1</alter>
					<octave>4</octave>
				</pitch>
				<duration>13440</duration>
				<voice>1</voice>
				<type>half</type>
				<stem default-y="-50.38">down</stem>
				<lyric number="1" justify="center" default-y="71.22">
					<syllabic>begin</syllabic>
					<text font-family="Times New Roman" font-size="10" font-weight="normal" font-style="normal" xml:lang="en">re</text>
				</lyric>
				<lyric number="2" justify="center" default-y="54.42">
					<syllabic>end</syllabic>
					<text font-family="Times New Roman" font-size="10" font-weight="normal" font-style="normal" xml:lang="en">Thy</text>
				</lyric>
				<lyric number="3" justify="center" default-y="38.02">
					<syllabic>single</syllabic>
					<text font-family="Times New Roman" font-size="10" font-weight="normal" font-style="normal" xml:lang="en">we</text>
				</lyric>
			</note>
			<note>
				<chord/>
				<pitch>
					<step>E</step>
					<alter>-1</alter>
					<octave>3</octave>
				</pitch>
				<duration>13440</duration>
				<voice>1</voice>
				<type>half</type>
				<stem default-y="-50.38">down</stem>
				<notations>
					<articulations>
						<tenuto placement="above" relative-x="-2.08" relative-y="25.34"/>
					</articulations>
				</notations>
			</note>
		</measure>
		<!--==========================[2,6]=============================-->
		<measure number="6" width="212">
			<note print-lyric="no">
				<pitch>
					<step>B</step>
					<alter>-1</alter>
					<octave>3</octave>
				</pitch>
				<duration>13440</duration>
				<voice>1</voice>
				<type>half</type>
				<stem default-y="-50.38">down</stem>
				<lyric number="1" justify="center" default-y="71.22">
					<syllabic>begin</syllabic>
					<text font-family="Times New Roman" font-size="10" font-weight="normal" font-style="normal" xml:lang="en">mem</text>
				</lyric>
				<lyric number="2" justify="center" default-y="54.42">
					<syllabic>end</syllabic>
					<text font-family="Times New Roman" font-size="10" font-weight="normal" font-style="normal" xml:lang="en">blood</text>
				</lyric>
				<lyric number="3" justify="center" default-y="38.02">
					<syllabic>single</syllabic>
					<text font-family="Times New Roman" font-size="10" font-weight="normal" font-style="normal" xml:lang="en">long</text>
				</lyric>
			</note>
			<note>
				<chord/>
				<pitch>
					<step>E</step>
					<alter>-1</alter>
					<octave>3</octave>
				</pitch>
				<duration>13440</duration>
				<voice>1</voice>
				<type>half</type>
				<stem default-y="-50.38">down</stem>
			</note>
			<note print-lyric="no">
				<pitch>
					<step>B</step>
					<alter>-1</alter>
					<octave>3</octave>
				</pitch>
				<duration>13440</duration>
				<voice>1</voice>
				<type>half</type>
				<stem default-y="-50.38">down</stem>
				<lyric number="1" justify="center" default-y="71.22">
					<syllabic>single</syllabic>
					<text font-family="Times New Roman" font-size="10" font-weight="normal" font-style="normal" xml:lang="en">ber</text>
				</lyric>
				<lyric number="2" justify="center" default-y="54.42">
					<syllabic>single</syllabic>
					<text font-family="Times New Roman" font-size="10" font-weight="normal" font-style="normal" xml:lang="en">we</text>
				</lyric>
				<lyric number="3" justify="center" default-y="38.02">
					<syllabic>single</syllabic>
					<text font-family="Times New Roman" font-size="10" font-weight="normal" font-style="normal" xml:lang="en">Thy</text>
				</lyric>
			</note>
			<note>
				<chord/>
				<pitch>
					<step>E</step>
					<alter>-1</alter>
					<octave>3</octave>
				</pitch>
				<duration>13440</duration>
				<voice>1</voice>
				<type>half</type>
				<stem default-y="-50.38">down</stem>
			</note>
		</measure>
		<!--==========================[2,7]=============================-->
		<measure number="7" width="226">
			<note print-lyric="no">
				<pitch>
					<step>B</step>
					<alter>-1</alter>
					<octave>3</octave>
				</pitch>
				<duration>13440</duration>
				<voice>1</voice>
				<type>half</type>
				<stem default-y="-55.38">down</stem>
				<lyric number="1" justify="center" default-y="71.22">
					<syllabic>single</syllabic>
					<text font-family="Times New Roman" font-size="10" font-weight="normal" font-style="normal" xml:lang="en">still</text>
				</lyric>
				<lyric number="2" justify="center" default-y="54.42">
					<syllabic>single</syllabic>
					<text font-family="Times New Roman" font-size="10" font-weight="normal" font-style="normal" xml:lang="en">see</text>
				</lyric>
				<lyric number="3" justify="center" default-y="38.02">
					<syllabic>single</syllabic>
					<text font-family="Times New Roman" font-size="10" font-weight="normal" font-style="normal" xml:lang="en">face</text>
				</lyric>
			</note>
			<note>
				<chord/>
				<pitch>
					<step>D</step>
					<octave>3</octave>
				</pitch>
				<duration>13440</duration>
				<voice>1</voice>
				<type>half</type>
				<stem default-y="-55.38">down</stem>
			</note>
			<note print-lyric="no">
				<pitch>
					<step>B</step>
					<alter>-1</alter>
					<octave>3</octave>
				</pitch>
				<duration>13440</duration>
				<voice>1</voice>
				<type>half</type>
				<stem default-y="-50.38">down</stem>
				<lyric number="1" justify="center" default-y="71.22">
					<syllabic>single</syllabic>
					<text font-family="Times New Roman" font-size="10" font-weight="normal" font-style="normal" xml:lang="en">
Thy</text>
				</lyric>
				<lyric number="2" justify="center" default-y="54.42">
					<syllabic>single</syllabic>
					<text font-family="Times New Roman" font-size="10" font-weight="normal" font-style="normal" xml:lang="en">the</text>
				</lyric>
				<lyric number="3" justify="center" default-y="38.02">
					<syllabic>single</syllabic>
					<text font-family="Times New Roman" font-size="10" font-weight="normal" font-style="normal" xml:lang="en">to</text>
				</lyric>
			</note>
			<note>
				<chord/>
				<pitch>
					<step>E</step>
					<alter>-1</alter>
					<octave>3</octave>
				</pitch>
				<duration>13440</duration>
				<voice>1</voice>
				<type>half</type>
				<stem default-y="-50.38">down</stem>
			</note>
		</measure>
		<!--==========================[2,8]=============================-->
		<measure number="8" width="164">
			<note print-lyric="no">
				<pitch>
					<step>B</step>
					<alter>-1</alter>
					<octave>3</octave>
				</pitch>
				<duration>26880</duration>
				<voice>1</voice>
				<type>whole</type>
				<stem>none</stem>
				<lyric number="1" justify="center" default-y="71.22">
					<syllabic>single</syllabic>
					<text font-family="Times New Roman" font-size="10" font-weight="normal" font-style="normal" xml:lang="en">death;</text>
				</lyric>
				<lyric number="2" justify="center" default-y="54.42">
					<syllabic>single</syllabic>
					<text font-family="Times New Roman" font-size="10" font-weight="normal" font-style="normal" xml:lang="en">sign;</text>
				</lyric>
				<lyric number="3" justify="center" default-y="38.02">
					<syllabic>single</syllabic>
					<text font-family="Times New Roman" font-size="10" font-weight="normal" font-style="normal" xml:lang="en">see—</text>
				</lyric>
			</note>
			<note>
				<chord/>
				<pitch>
					<step>B</step>
					<alter>-1</alter>
					<octave>2</octave>
				</pitch>
				<duration>26880</duration>
				<voice>1</voice>
				<type>whole</type>
				<stem>none</stem>
			</note>
		</measure>
		<!--==========================[2,9]=============================-->
		<measure number="9" width="293">
			<print new-system="yes">
				<staff-layout number="1">
					<staff-distance>118.334</staff-distance>
				</staff-layout>
			</print>
			<attributes>
				<staff-details number="1" print-object="yes">
				</staff-details>
			</attributes>
			<note print-lyric="no">
				<pitch>
					<step>B</step>
					<alter>-1</alter>
					<octave>3</octave>
				</pitch>
				<duration>13440</duration>
				<voice>1</voice>
				<type>half</type>
				<stem default-y="-50.38">down</stem>
				<lyric number="1" justify="center" default-y="76.08">
					<syllabic>single</syllabic>
					<text font-family="Times New Roman" font-size="10" font-weight="normal" font-style="normal" xml:lang="en">Thou</text>
				</lyric>
				<lyric number="2" justify="center" default-y="59.68">
					<syllabic>single</syllabic>
					<text font-family="Times New Roman" font-size="10" font-weight="normal" font-style="normal" xml:lang="en">Wash</text>
				</lyric>
				<lyric number="3" justify="center" default-y="42.88">
					<syllabic>single</syllabic>
					<text font-family="Times New Roman" font-size="10" font-weight="normal" font-style="normal" xml:lang="en">Long</text>
				</lyric>
			</note>
			<note>
				<chord/>
				<pitch>
					<step>E</step>
					<alter>-1</alter>
					<octave>3</octave>
				</pitch>
				<duration>13440</duration>
				<voice>1</voice>
				<type>half</type>
				<stem default-y="-50.38">down</stem>
			</note>
			<note print-lyric="no">
				<pitch>
					<step>A</step>
					<alter>-1</alter>
					<octave>3</octave>
				</pitch>
				<duration>13440</duration>
				<voice>1</voice>
				<type>half</type>
				<stem default-y="-55.38">down</stem>
				<lyric number="1" justify="center" default-y="76.08">
					<syllabic>single</syllabic>
					<text font-family="Times New Roman" font-size="10" font-weight="normal" font-style="normal" xml:lang="en">wast</text>
				</lyric>
				<lyric number="2" justify="center" default-y="59.68">
					<syllabic>single</syllabic>
					<text font-family="Times New Roman" font-size="10" font-weight="normal" font-style="normal" xml:lang="en">us</text>
				</lyric>
				<lyric number="3" justify="center" default-y="42.88">
					<syllabic>single</syllabic>
					<text font-family="Times New Roman" font-size="10" font-weight="normal" font-style="normal" xml:lang="en">to</text>
				</lyric>
			</note>
			<note>
				<chord/>
				<pitch>
					<step>B</step>
					<alter>-1</alter>
					<octave>2</octave>
				</pitch>
				<duration>13440</duration>
				<voice>1</voice>
				<type>half</type>
				<stem default-y="-59.70">down</stem>
			</note>
		</measure>
		<!--==========================[2,10]=============================-->
		<measure number="10" width="199">
			<note print-lyric="no">
				<pitch>
					<step>G</step>
					<octave>3</octave>
				</pitch>
				<duration>13440</duration>
				<voice>1</voice>
				<type>half</type>
				<stem default-y="-50.38">down</stem>
				<lyric number="1" justify="center" default-y="76.08">
					<syllabic>begin</syllabic>
					<text font-family="Times New Roman" font-size="10" font-weight="normal" font-style="normal" xml:lang="en">bro</text>
				</lyric>
				<lyric number="2" justify="center" default-y="59.68">
					<syllabic>end</syllabic>
					<text font-family="Times New Roman" font-size="10" font-weight="normal" font-style="normal" xml:lang="en">pure</text>
				</lyric>
				<lyric number="3" justify="center" default-y="42.88">
					<syllabic>single</syllabic>
					<text font-family="Times New Roman" font-size="10" font-weight="normal" font-style="normal" xml:lang="en">reach</text>
				</lyric>
			</note>
			<note>
				<chord/>
				<pitch>
					<step>C</step>
					<octave>3</octave>
				</pitch>
				<duration>13440</duration>
				<voice>1</voice>
				<type>half</type>
				<stem default-y="-50.38">down</stem>
			</note>
			<note print-lyric="no">
				<pitch>
					<step>B</step>
					<alter>-1</alter>
					<octave>3</octave>
				</pitch>
				<duration>13440</duration>
				<voice>1</voice>
				<type>half</type>
				<stem default-y="-55.38">down</stem>
				<lyric number="1" justify="center" default-y="76.08">
					<syllabic>single</syllabic>
					<text font-family="Times New Roman" font-size="10" font-weight="normal" font-style="normal" xml:lang="en">ken—</text>
				</lyric>
				<lyric number="2" justify="center" default-y="59.68">
					<syllabic>single</syllabic>
					<text font-family="Times New Roman" font-size="10" font-weight="normal" font-style="normal" xml:lang="en">from</text>
				</lyric>
				<lyric number="3" justify="center" default-y="42.88">
					<syllabic>single</syllabic>
					<text font-family="Times New Roman" font-size="10" font-weight="normal" font-style="normal" xml:lang="en">our</text>
				</lyric>
			</note>
			<note>
				<chord/>
				<pitch>
					<step>B</step>
					<alter>-1</alter>
					<octave>2</octave>
				</pitch>
				<duration>13440</duration>
				<voice>1</voice>
				<type>half</type>
				<stem default-y="-64.70">down</stem>
			</note>
		</measure>
		<!--==========================[2,11]=============================-->
		<measure number="11" width="237">
			<note print-lyric="no">
				<pitch>
					<step>B</step>
					<alter>-1</alter>
					<octave>3</octave>
				</pitch>
				<duration>6720</duration>
				<voice>1</voice>
				<type>quarter</type>
				<stem default-y="-50.38">down</stem>
				<notations>
					<slur type="start" number="1" placement="below" orientation="over"/>
				</notations>
				<lyric number="1" justify="center" default-y="76.08">
					<syllabic>single</syllabic>
					<text font-family="Times New Roman" font-size="10" font-weight="normal" font-style="normal" xml:lang="en">
Thou</text>
				</lyric>
				<lyric number="2" justify="center" default-y="59.68">
					<syllabic>begin</syllabic>
					<text font-family="Times New Roman" font-size="10" font-weight="normal" font-style="normal" xml:lang="en">ev</text>
				</lyric>
				<lyric number="3" justify="center" default-y="42.88">
					<syllabic>middle</syllabic>
					<text font-family="Times New Roman" font-size="10" font-weight="normal" font-style="normal" xml:lang="en">heav'n</text>
				</lyric>
			</note>
			<note>
				<chord/>
				<pitch>
					<step>E</step>
					<alter>-1</alter>
					<octave>3</octave>
				</pitch>
				<duration>6720</duration>
				<voice>1</voice>
				<type>quarter</type>
				<stem default-y="-50.38">down</stem>
			</note>
			<note>
				<pitch>
					<step>C</step>
					<octave>4</octave>
				</pitch>
				<duration>6720</duration>
				<voice>1</voice>
				<type>quarter</type>
				<stem default-y="-50.38">down</stem>
				<notations>
					<slur type="stop" number="1"/>
				</notations>
			</note>
			<note>
				<chord/>
				<pitch>
					<step>C</step>
					<octave>3</octave>
				</pitch>
				<duration>6720</duration>
				<voice>1</voice>
				<type>quarter</type>
				<stem default-y="-60.10">down</stem>
			</note>
			<note print-lyric="no">
				<pitch>
					<step>E</step>
					<alter>-1</alter>
					<octave>4</octave>
				</pitch>
				<duration>6720</duration>
				<voice>1</voice>
				<type>quarter</type>
				<stem default-y="-65.39">down</stem>
				<notations>
					<slur type="start" number="1" placement="below" orientation="over"/>
				</notations>
				<lyric number="1" justify="center" default-y="76.08">
					<syllabic>end</syllabic>
					<text font-family="Times New Roman" font-size="10" font-weight="normal" font-style="normal" xml:lang="en">hast</text>
				</lyric>
				<lyric number="2" justify="center" default-y="59.68">
					<syllabic>single</syllabic>
					<text font-family="Times New Roman" font-size="10" font-weight="normal" font-style="normal" xml:lang="en">'ry</text>
				</lyric>
				<lyric number="3" justify="center" default-y="42.88">
					<syllabic>single</syllabic>
					<text font-family="Times New Roman" font-size="10" font-weight="normal" font-style="normal" xml:lang="en">ly</text>
				</lyric>
			</note>
			<note>
				<chord/>
				<pitch>
					<step>G</step>
					<octave>2</octave>
				</pitch>
				<duration>6720</duration>
				<voice>1</voice>
				<type>quarter</type>
				<stem default-y="-99.70">down</stem>
			</note>
			<note>
				<pitch>
					<step>C</step>
					<octave>4</octave>
				</pitch>
				<duration>6720</duration>
				<voice>1</voice>
				<type>quarter</type>
				<stem default-y="-60.39">down</stem>
				<notations>
					<slur type="stop" number="1"/>
				</notations>
			</note>
			<note>
				<chord/>
				<pitch>
					<step>A</step>
					<alter>-1</alter>
					<octave>2</octave>
				</pitch>
				<duration>6720</duration>
				<voice>1</voice>
				<type>quarter</type>
				<stem default-y="-80.10">down</stem>
			</note>
		</measure>
		<!--==========================[2,12]=============================-->
		<measure number="12" width="169">
			<note print-lyric="no">
				<pitch>
					<step>B</step>
					<alter>-1</alter>
					<octave>3</octave>
				</pitch>
				<duration>26880</duration>
				<voice>1</voice>
				<type>whole</type>
				<stem>none</stem>
				<lyric number="1" justify="center" default-y="76.08">
					<syllabic>single</syllabic>
					<text font-family="Times New Roman" font-size="10" font-weight="normal" font-style="normal" xml:lang="en">died;</text>
				</lyric>
				<lyric number="2" justify="center" default-y="59.68">
					<syllabic>single</syllabic>
					<text font-family="Times New Roman" font-size="10" font-weight="normal" font-style="normal" xml:lang="en">stain,</text>
				</lyric>
				<lyric number="3" justify="center" default-y="42.88">
					<syllabic>single</syllabic>
					<text font-family="Times New Roman" font-size="10" font-weight="normal" font-style="normal" xml:lang="en">home;</text>
				</lyric>
			</note>
			<note>
				<chord/>
				<pitch>
					<step>B</step>
					<alter>-1</alter>
					<octave>2</octave>
				</pitch>
				<duration>26880</duration>
				<voice>1</voice>
				<type>whole</type>
				<stem>none</stem>
			</note>
		</measure>
		<!--==========================[2,13]=============================-->
		<measure number="13" width="314">
			<print new-system="yes">
				<staff-layout number="1">
					<staff-distance>108.334</staff-distance>
				</staff-layout>
			</print>
			<attributes>
				<staff-details number="1" print-object="yes">
				</staff-details>
			</attributes>
			<note print-lyric="no">
				<pitch>
					<step>B</step>
					<alter>-1</alter>
					<octave>3</octave>
				</pitch>
				<duration>13440</duration>
				<voice>1</voice>
				<type>half</type>
				<stem default-y="-50.38">down</stem>
				<lyric number="1" justify="center" default-y="66.35">
					<syllabic>single</syllabic>
					<text font-family="Times New Roman" font-size="10" font-weight="normal" font-style="normal" xml:lang="en">For</text>
				</lyric>
				<lyric number="2" justify="center" default-y="49.55">
					<syllabic>single</syllabic>
					<text font-family="Times New Roman" font-size="10" font-weight="normal" font-style="normal" xml:lang="en">Thou</text>
				</lyric>
				<lyric number="3" justify="center" default-y="32.75">
					<syllabic>single</syllabic>
					<text font-family="Times New Roman" font-size="10" font-weight="normal" font-style="normal" xml:lang="en">Come,</text>
				</lyric>
			</note>
			<note>
				<chord/>
				<pitch>
					<step>E</step>
					<alter>-1</alter>
					<octave>3</octave>
				</pitch>
				<duration>13440</duration>
				<voice>1</voice>
				<type>half</type>
				<stem default-y="-50.38">down</stem>
			</note>
			<note print-lyric="no">
				<pitch>
					<step>C</step>
					<octave>4</octave>
				</pitch>
				<duration>13440</duration>
				<voice>1</voice>
				<type>half</type>
				<stem default-y="-50.38">down</stem>
				<lyric number="1" justify="center" default-y="66.35">
					<syllabic>single</syllabic>
					<text font-family="Times New Roman" font-size="10" font-weight="normal" font-style="normal" xml:lang="en">us</text>
				</lyric>
				<lyric number="2" justify="center" default-y="49.55">
					<syllabic>single</syllabic>
					<text font-family="Times New Roman" font-size="10" font-weight="normal" font-style="normal" xml:lang="en">that</text>
				</lyric>
				<lyric number="3" justify="center" default-y="32.75">
					<syllabic>single</syllabic>
					<text font-family="Times New Roman" font-size="10" font-weight="normal" font-style="normal" xml:lang="en">Lord</text>
				</lyric>
			</note>
			<note>
				<chord/>
				<pitch>
					<step>C</step>
					<octave>3</octave>
				</pitch>
				<duration>13440</duration>
				<voice>1</voice>
				<type>half</type>
				<stem default-y="-59.56">down</stem>
			</note>
		</measure>
		<!--==========================[2,14]=============================-->
		<measure number="14" width="171">
			<note print-lyric="no">
				<pitch>
					<step>C</step>
					<octave>4</octave>
				</pitch>
				<duration>20160</duration>
				<voice>1</voice>
				<type>half</type>
				<dot/>
				<stem default-y="-45.38">down</stem>
				<lyric number="1" justify="center" default-y="66.35">
					<syllabic>single</syllabic>
					<text font-family="Times New Roman" font-size="10" font-weight="normal" font-style="normal" xml:lang="en">
Thou</text>
				</lyric>
				<lyric number="2" justify="center" default-y="49.55">
					<syllabic>begin</syllabic>
					<text font-family="Times New Roman" font-size="10" font-weight="normal" font-style="normal" xml:lang="en">com</text>
				</lyric>
				<lyric number="3" justify="center" default-y="32.75">
					<syllabic>middle</syllabic>
					<text font-family="Times New Roman" font-size="10" font-weight="normal" font-style="normal" xml:lang="en">
Je</text>
				</lyric>
			</note>
			<note>
				<chord/>
				<pitch>
					<step>F</step>
					<octave>3</octave>
				</pitch>
				<duration>20160</duration>
				<voice>1</voice>
				<type>half</type>
				<dot/>
				<stem default-y="-45.38">down</stem>
			</note>
			<note print-lyric="no">
				<pitch>
					<step>A</step>
					<alter>-1</alter>
					<octave>3</octave>
				</pitch>
				<duration>6720</duration>
				<voice>1</voice>
				<type>quarter</type>
				<stem default-y="-60.38">down</stem>
				<lyric number="1" justify="center" default-y="66.35">
					<syllabic>end</syllabic>
					<text font-family="Times New Roman" font-size="10" font-weight="normal" font-style="normal" xml:lang="en">wast</text>
				</lyric>
				<lyric number="2" justify="center" default-y="49.55">
					<syllabic>single</syllabic>
					<text font-family="Times New Roman" font-size="10" font-weight="normal" font-style="normal" xml:lang="en">est</text>
				</lyric>
				<lyric number="3" justify="center" default-y="32.75">
					<syllabic>single</syllabic>
					<text font-family="Times New Roman" font-size="10" font-weight="normal" font-style="normal" xml:lang="en">sus,</text>
				</lyric>
			</note>
			<note>
				<chord/>
				<pitch>
					<step>A</step>
					<alter>-1</alter>
					<octave>2</octave>
				</pitch>
				<duration>6720</duration>
				<voice>1</voice>
				<type>quarter</type>
				<stem default-y="-69.56">down</stem>
			</note>
		</measure>
		<!--==========================[2,15]=============================-->
		<measure number="15" width="218">
			<note print-lyric="no">
				<pitch>
					<step>G</step>
					<octave>3</octave>
				</pitch>
				<duration>13440</duration>
				<voice>1</voice>
				<type>half</type>
				<stem default-y="-55.38">down</stem>
				<lyric number="1" justify="center" default-y="66.35">
					<syllabic>begin</syllabic>
					<text font-family="Times New Roman" font-size="10" font-weight="normal" font-style="normal" xml:lang="en">cru</text>
				</lyric>
				<lyric number="2" justify="center" default-y="49.55">
					<syllabic>end</syllabic>
					<text font-family="Times New Roman" font-size="10" font-weight="normal" font-style="normal" xml:lang="en">soon</text>
				</lyric>
				<lyric number="3" justify="center" default-y="32.75">
					<syllabic>begin</syllabic>
					<text font-family="Times New Roman" font-size="10" font-weight="normal" font-style="normal" xml:lang="en">quick</text>
				</lyric>
			</note>
			<note>
				<chord/>
				<pitch>
					<step>B</step>
					<alter>-1</alter>
					<octave>2</octave>
				</pitch>
				<duration>13440</duration>
				<voice>1</voice>
				<type>half</type>
				<stem default-y="-55.38">down</stem>
			</note>
			<note print-lyric="no">
				<pitch>
					<step>F</step>
					<octave>3</octave>
				</pitch>
				<duration>13440</duration>
				<voice>1</voice>
				<type>half</type>
				<stem default-y="-55.38">down</stem>
				<lyric number="1" justify="center" default-y="66.35">
					<syllabic>middle</syllabic>
					<text font-family="Times New Roman" font-size="10" font-weight="normal" font-style="normal" xml:lang="en">ci</text>
				</lyric>
				<lyric number="2" justify="center" default-y="49.55">
					<syllabic>end</syllabic>
					<text font-family="Times New Roman" font-size="10" font-weight="normal" font-style="normal" xml:lang="en">to</text>
				</lyric>
				<lyric number="3" justify="center" default-y="32.75">
					<syllabic>single</syllabic>
					<text font-family="Times New Roman" font-size="10" font-weight="normal" font-style="normal" xml:lang="en">ly</text>
				</lyric>
			</note>
			<note>
				<chord/>
				<pitch>
					<step>B</step>
					<alter>-1</alter>
					<octave>2</octave>
				</pitch>
				<duration>13440</duration>
				<voice>1</voice>
				<type>half</type>
				<stem default-y="-55.38">down</stem>
			</note>
		</measure>
		<!--==========================[2,16]=============================-->
		<measure number="16" width="190">
			<note print-lyric="no">
				<pitch>
					<step>G</step>
					<octave>3</octave>
				</pitch>
				<duration>26880</duration>
				<voice>1</voice>
				<type>whole</type>
				<stem>none</stem>
				<lyric number="1" justify="center" default-y="66.35">
					<syllabic>single</syllabic>
					<text font-family="Times New Roman" font-size="10" font-weight="normal" font-style="normal" xml:lang="en">fied.</text>
				</lyric>
				<lyric number="2" justify="center" default-y="49.55">
					<syllabic>single</syllabic>
					<text font-family="Times New Roman" font-size="10" font-weight="normal" font-style="normal" xml:lang="en">reign.</text>
				</lyric>
				<lyric number="3" justify="center" default-y="32.75">
					<syllabic>single</syllabic>
					<text font-family="Times New Roman" font-size="10" font-weight="normal" font-style="normal" xml:lang="en">come!</text>
				</lyric>
			</note>
			<note>
				<chord/>
				<pitch>
					<step>E</step>
					<alter>-1</alter>
					<octave>3</octave>
				</pitch>
				<duration>26880</duration>
				<voice>1</voice>
				<type>whole</type>
				<stem>none</stem>
			</note>
			<barline location="right">
				<repeat direction="backward" times="3"/>
			</barline>
		</measure>
	</part>
</score-partwise>
