<?xml version="1.0" encoding="UTF-8" standalone="no"?>
<!DOCTYPE score-partwise PUBLIC "-//Recordare//DTD MusicXML 2.0 Partwise//EN" "http://www.musicxml.org/dtds/partwise.dtd">
<score-partwise version="2.0">
	<work>
		<work-title>HOW PLEASANT
(Burton. L. M.)</work-title>
	</work>
	<identification>
		<creator type="composer">Woodbury</creator>
		<creator type="poet">Watts</creator>
		<encoding>
			<software>PDFtoMusic Pro v1.6.5 Build 1B9E7 (c) Myriad - http://www.myriad-online.com</software>
			<?PDFtoMusic Document type 0100- 31306BFA?>
			<supports attribute="new-system" element="print" type="yes" value="yes"/>
			<supports attribute="new-page" element="print" type="yes" value="yes"/>
		</encoding>
	</identification>
	<defaults>
		<scaling>
			<millimeters>8.239175</millimeters>
			<tenths>40</tenths>
		</scaling>
		<page-layout>
			<page-height>1440.368</page-height>
			<page-width>1019.048</page-width>
			<page-margins type="both">
				<left-margin>48.549</left-margin>
				<right-margin>48.549</right-margin>
				<top-margin>48.549</top-margin>
				 <bottom-margin>48.549</bottom-margin>
			</page-margins>
		</page-layout>
		<appearance>
			<line-width type="stem">0.7603</line-width>
			<line-width type="staff">0.7683</line-width>
			<line-width type="light barline">0.7829</line-width>
			<line-width type="heavy barline">5.0001</line-width>
			<line-width type="leger">0.7682</line-width>
			<note-size type="grace">59.9440</note-size>
		</appearance>
	</defaults>
	<credit page="1">
		<credit-words  default-x="61.362" default-y="1291.824" justify="left" valign="baseline" font-family="Times New Roman" font-size="18" font-weight="bold" font-style="normal">456</credit-words>
	</credit>
	<credit page="1">
		<credit-words  default-x="59.762" default-y="1213.424" justify="left" valign="baseline" font-family="Times New Roman" font-size="10" font-weight="normal" font-style="normal">Watts</credit-words>
	</credit>
	<credit page="1">
		<credit-words  default-x="508.815" default-y="1274.224" justify="center" valign="baseline" font-family="Times New Roman" font-size="18" font-weight="normal" font-style="normal">HOW PLEASANT
</credit-words>
		<credit-words   justify="center" valign="baseline" font-family="Times New Roman" font-size="10" font-weight="normal" font-style="normal">(Burton. L. M.)</credit-words>
	</credit>
	<credit page="1">
		<credit-words  default-x="889.761" default-y="1213.424" justify="left" valign="baseline" font-family="Times New Roman" font-size="10" font-weight="normal" font-style="normal">Woodbury</credit-words>
	</credit>
	<part-list>
		<score-part id="P1">
			<part-name></part-name>
			<score-instrument id="P1-I1">
				<instrument-name>Instrument 1</instrument-name>
			</score-instrument>
			<midi-instrument id="P1-I1">
				<midi-channel>1</midi-channel>
				<midi-bank>3</midi-bank>
				<midi-program>53</midi-program>
				<volume>50</volume>
				<pan>-90</pan>
				<elevation>0</elevation>
				<?Myriad
				<iddigit>5220</iddigit>
				?>
			</midi-instrument>
		</score-part>
		<score-part id="P2">
			<part-name></part-name>
			<score-instrument id="P2-I1">
				<instrument-name>Instrument 2</instrument-name>
			</score-instrument>
			<midi-instrument id="P2-I1">
				<midi-channel>2</midi-channel>
				<midi-bank>1</midi-bank>
				<midi-program>53</midi-program>
				<volume>50</volume>
				<pan>90</pan>
				<elevation>0</elevation>
				<?Myriad
				<iddigit>5201</iddigit>
				?>
			</midi-instrument>
		</score-part>
	</part-list>
	<part id="P1">
		<!--==========================[1,1]=============================-->
		<measure number="1" width="166">
			<print new-page="yes">
				<system-layout>
					<system-margins>
						<left-margin>11.213</left-margin>
						<right-margin>10.276</right-margin>
					</system-margins>
					<top-system-distance>202.011</top-system-distance>
				</system-layout>
			</print>
			<barline location="left">
				<repeat direction="forward"/>
			</barline>
			<attributes>
				<divisions>6720</divisions>
				<time>
					<beats>2</beats>
					<beat-type>2</beat-type>
				</time>
				<clef number="1">
					<sign>G</sign>
					<line>2</line>
				</clef>
				<staff-details number="1" print-object="yes">
					<staff-lines>5</staff-lines>
					<staff-size>100.00</staff-size>
				</staff-details>
			</attributes>
			<note>
				<pitch>
					<step>G</step>
					<octave>4</octave>
				</pitch>
				<duration>13440</duration>
				<voice>1</voice>
				<type>half</type>
				<stem default-y="4.62">up</stem>
				<lyric number="1" justify="right" default-y="-87.18">
					<syllabic>single</syllabic>
					<text font-family="Times New Roman" font-size="10" font-weight="normal" font-style="normal" xml:lang="en">
. How</text>
				</lyric>
				<lyric number="2" justify="right" default-y="-103.58">
					<syllabic>single</syllabic>
					<text font-family="Times New Roman" font-size="10" font-weight="normal" font-style="normal" xml:lang="en">
2. Blest</text>
				</lyric>
				<lyric number="3" justify="right" default-y="-120.38">
					<syllabic>single</syllabic>
					<text font-family="Times New Roman" font-size="10" font-weight="normal" font-style="normal" xml:lang="en">
3. Blest</text>
				</lyric>
			</note>
			<note>
				<chord/>
				<pitch>
					<step>E</step>
					<octave>4</octave>
				</pitch>
				<duration>13440</duration>
				<voice>1</voice>
				<type>half</type>
				<stem default-y="4.62">up</stem>
			</note>
		</measure>
		<!--==========================[1,2]=============================-->
		<measure number="2" width="307">
			<note>
				<pitch>
					<step>C</step>
					<octave>5</octave>
				</pitch>
				<duration>6720</duration>
				<voice>1</voice>
				<type>quarter</type>
				<stem default-y="9.62">up</stem>
				<lyric number="1" justify="center" default-y="-87.18">
					<syllabic>begin</syllabic>
					<text font-family="Times New Roman" font-size="10" font-weight="normal" font-style="normal" xml:lang="en">pleas</text>
				</lyric>
				<lyric number="2" justify="center" default-y="-103.58">
					<syllabic>end</syllabic>
					<text font-family="Times New Roman" font-size="10" font-weight="normal" font-style="normal" xml:lang="en">are</text>
				</lyric>
				<lyric number="3" justify="center" default-y="-120.38">
					<syllabic>single</syllabic>
					<text font-family="Times New Roman" font-size="10" font-weight="normal" font-style="normal" xml:lang="en">are</text>
				</lyric>
			</note>
			<note>
				<chord/>
				<pitch>
					<step>E</step>
					<octave>4</octave>
				</pitch>
				<duration>6720</duration>
				<voice>1</voice>
				<type>quarter</type>
				<stem default-y="9.62">up</stem>
			</note>
			<note>
				<pitch>
					<step>C</step>
					<octave>5</octave>
				</pitch>
				<duration>6720</duration>
				<voice>1</voice>
				<type>quarter</type>
				<stem default-y="9.62">up</stem>
				<lyric number="1" justify="center" default-y="-87.18">
					<syllabic>single</syllabic>
					<text font-family="Times New Roman" font-size="10" font-weight="normal" font-style="normal" xml:lang="en">ant,</text>
				</lyric>
				<lyric number="2" justify="center" default-y="-103.58">
					<syllabic>single</syllabic>
					<text font-family="Times New Roman" font-size="10" font-weight="normal" font-style="normal" xml:lang="en">the</text>
				</lyric>
				<lyric number="3" justify="center" default-y="-120.38">
					<syllabic>single</syllabic>
					<text font-family="Times New Roman" font-size="10" font-weight="normal" font-style="normal" xml:lang="en">the</text>
				</lyric>
			</note>
			<note>
				<chord/>
				<pitch>
					<step>E</step>
					<octave>4</octave>
				</pitch>
				<duration>6720</duration>
				<voice>1</voice>
				<type>quarter</type>
				<stem default-y="9.62">up</stem>
			</note>
			<note>
				<pitch>
					<step>C</step>
					<octave>5</octave>
				</pitch>
				<duration>6720</duration>
				<voice>1</voice>
				<type>quarter</type>
				<stem default-y="9.62">up</stem>
				<lyric number="1" justify="center" default-y="-87.18">
					<syllabic>single</syllabic>
					<text font-family="Times New Roman" font-size="10" font-weight="normal" font-style="normal" xml:lang="en">how</text>
				</lyric>
				<lyric number="2" justify="center" default-y="-103.58">
					<syllabic>single</syllabic>
					<text font-family="Times New Roman" font-size="10" font-weight="normal" font-style="normal" xml:lang="en">souls</text>
				</lyric>
				<lyric number="3" justify="center" default-y="-120.38">
					<syllabic>single</syllabic>
					<text font-family="Times New Roman" font-size="10" font-weight="normal" font-style="normal" xml:lang="en">men</text>
				</lyric>
			</note>
			<note>
				<chord/>
				<pitch>
					<step>E</step>
					<octave>4</octave>
				</pitch>
				<duration>6720</duration>
				<voice>1</voice>
				<type>quarter</type>
				<stem default-y="9.62">up</stem>
			</note>
			<note>
				<pitch>
					<step>C</step>
					<octave>5</octave>
				</pitch>
				<duration>6720</duration>
				<voice>1</voice>
				<type>quarter</type>
				<stem default-y="9.62">up</stem>
				<lyric number="1" justify="center" default-y="-87.18">
					<syllabic>begin</syllabic>
					<text font-family="Times New Roman" font-size="10" font-weight="normal" font-style="normal" xml:lang="en">di</text>
				</lyric>
				<lyric number="2" justify="center" default-y="-103.58">
					<syllabic>end</syllabic>
					<text font-family="Times New Roman" font-size="10" font-weight="normal" font-style="normal" xml:lang="en">that</text>
				</lyric>
				<lyric number="3" justify="center" default-y="-120.38">
					<syllabic>single</syllabic>
					<text font-family="Times New Roman" font-size="10" font-weight="normal" font-style="normal" xml:lang="en">whose</text>
				</lyric>
			</note>
			<note>
				<chord/>
				<pitch>
					<step>E</step>
					<octave>4</octave>
				</pitch>
				<duration>6720</duration>
				<voice>1</voice>
				<type>quarter</type>
				<stem default-y="9.62">up</stem>
			</note>
		</measure>
		<!--==========================[1,3]=============================-->
		<measure number="3" width="196">
			<note>
				<pitch>
					<step>D</step>
					<octave>5</octave>
				</pitch>
				<duration>13440</duration>
				<voice>1</voice>
				<type>half</type>
				<stem default-y="14.62">up</stem>
				<lyric number="1" justify="center" default-y="-87.18">
					<syllabic>begin</syllabic>
					<text font-family="Times New Roman" font-size="10" font-weight="normal" font-style="normal" xml:lang="en">vine</text>
				</lyric>
				<lyric number="2" justify="center" default-y="-103.58">
					<syllabic>end</syllabic>
					<text font-family="Times New Roman" font-size="10" font-weight="normal" font-style="normal" xml:lang="en">find</text>
				</lyric>
				<lyric number="3" justify="center" default-y="-120.38">
					<syllabic>single</syllabic>
					<text font-family="Times New Roman" font-size="10" font-weight="normal" font-style="normal" xml:lang="en">hearts</text>
				</lyric>
			</note>
			<note>
				<chord/>
				<pitch>
					<step>A</step>
					<octave>4</octave>
				</pitch>
				<duration>13440</duration>
				<voice>1</voice>
				<type>half</type>
				<stem default-y="14.62">up</stem>
			</note>
			<note>
				<pitch>
					<step>B</step>
					<octave>4</octave>
				</pitch>
				<duration>13440</duration>
				<voice>1</voice>
				<type>half</type>
				<stem default-y="14.62">up</stem>
				<lyric number="1" justify="center" default-y="-87.18">
					<syllabic>single</syllabic>
					<text font-family="Times New Roman" font-size="10" font-weight="normal" font-style="normal" xml:lang="en">ly</text>
				</lyric>
				<lyric number="2" justify="center" default-y="-103.58">
					<syllabic>single</syllabic>
					<text font-family="Times New Roman" font-size="10" font-weight="normal" font-style="normal" xml:lang="en">a</text>
				</lyric>
				<lyric number="3" justify="center" default-y="-120.38">
					<syllabic>single</syllabic>
					<text font-family="Times New Roman" font-size="10" font-weight="normal" font-style="normal" xml:lang="en">are</text>
				</lyric>
			</note>
			<note>
				<chord/>
				<pitch>
					<step>G</step>
					<octave>4</octave>
				</pitch>
				<duration>13440</duration>
				<voice>1</voice>
				<type>half</type>
				<stem default-y="14.62">up</stem>
			</note>
		</measure>
		<!--==========================[1,4]=============================-->
		<measure number="4" width="229">
			<note>
				<pitch>
					<step>C</step>
					<octave>5</octave>
				</pitch>
				<duration>13440</duration>
				<voice>1</voice>
				<type>half</type>
				<stem default-y="9.62">up</stem>
				<lyric number="1" justify="center" default-y="-87.18">
					<syllabic>single</syllabic>
					<text font-family="Times New Roman" font-size="10" font-weight="normal" font-style="normal" xml:lang="en">fair,</text>
				</lyric>
				<lyric number="2" justify="center" default-y="-103.58">
					<syllabic>single</syllabic>
					<text font-family="Times New Roman" font-size="10" font-weight="normal" font-style="normal" xml:lang="en">place</text>
				</lyric>
				<lyric number="3" justify="center" default-y="-120.38">
					<syllabic>single</syllabic>
					<text font-family="Times New Roman" font-size="10" font-weight="normal" font-style="normal" xml:lang="en">set</text>
				</lyric>
			</note>
			<note>
				<chord/>
				<pitch>
					<step>G</step>
					<octave>4</octave>
				</pitch>
				<duration>13440</duration>
				<voice>1</voice>
				<type>half</type>
				<stem default-y="9.62">up</stem>
			</note>
			<note>
				<pitch>
					<step>D</step>
					<octave>5</octave>
				</pitch>
				<duration>13440</duration>
				<voice>1</voice>
				<type>half</type>
				<stem default-y="14.62">up</stem>
				<lyric number="1" justify="center" default-y="-87.18">
					<syllabic>single</syllabic>
					<text font-family="Times New Roman" font-size="10" font-weight="normal" font-style="normal" xml:lang="en">
O</text>
				</lyric>
				<lyric number="2" justify="center" default-y="-103.58">
					<syllabic>begin</syllabic>
					<text font-family="Times New Roman" font-size="10" font-weight="normal" font-style="normal" xml:lang="en">
With</text>
				</lyric>
				<lyric number="3" justify="center" default-y="-120.38">
					<syllabic>end</syllabic>
					<text font-family="Times New Roman" font-size="10" font-weight="normal" font-style="normal" xml:lang="en">
To</text>
				</lyric>
			</note>
			<note>
				<chord/>
				<pitch>
					<step>G</step>
					<octave>4</octave>
				</pitch>
				<duration>13440</duration>
				<voice>1</voice>
				<type>half</type>
				<stem default-y="14.62">up</stem>
			</note>
		</measure>
		<!--==========================[1,5]=============================-->
		<measure number="5" width="292">
			<print new-system="yes">
				<system-layout>
					<system-margins>
						<left-margin>11.213</left-margin>
						<right-margin>10.276</right-margin>
					</system-margins>
					<system-distance>126.667</system-distance>
				</system-layout>
			</print>
			<attributes>
				<staff-details number="1" print-object="yes">
				</staff-details>
			</attributes>
			<note>
				<pitch>
					<step>E</step>
					<octave>5</octave>
				</pitch>
				<duration>6720</duration>
				<voice>1</voice>
				<type>quarter</type>
				<stem default-y="-55.38">down</stem>
				<lyric number="1" justify="center" default-y="-87.12">
					<syllabic>single</syllabic>
					<text font-family="Times New Roman" font-size="10" font-weight="normal" font-style="normal" xml:lang="en">Lord</text>
				</lyric>
				<lyric number="2" justify="center" default-y="-103.92">
					<syllabic>single</syllabic>
					<text font-family="Times New Roman" font-size="10" font-weight="normal" font-style="normal" xml:lang="en">in</text>
				</lyric>
				<lyric number="3" justify="center" default-y="-120.32">
					<syllabic>single</syllabic>
					<text font-family="Times New Roman" font-size="10" font-weight="normal" font-style="normal" xml:lang="en">find</text>
				</lyric>
			</note>
			<note>
				<chord/>
				<pitch>
					<step>G</step>
					<octave>4</octave>
				</pitch>
				<duration>6720</duration>
				<voice>1</voice>
				<type>quarter</type>
				<stem default-y="-55.38">down</stem>
			</note>
			<note>
				<pitch>
					<step>E</step>
					<octave>5</octave>
				</pitch>
				<duration>6720</duration>
				<voice>1</voice>
				<type>quarter</type>
				<stem default-y="-55.38">down</stem>
				<lyric number="1" justify="center" default-y="-87.12">
					<syllabic>single</syllabic>
					<text font-family="Times New Roman" font-size="10" font-weight="normal" font-style="normal" xml:lang="en">of</text>
				</lyric>
				<lyric number="2" justify="center" default-y="-103.92">
					<syllabic>single</syllabic>
					<text font-family="Times New Roman" font-size="10" font-weight="normal" font-style="normal" xml:lang="en">the</text>
				</lyric>
				<lyric number="3" justify="center" default-y="-120.32">
					<syllabic>single</syllabic>
					<text font-family="Times New Roman" font-size="10" font-weight="normal" font-style="normal" xml:lang="en">the</text>
				</lyric>
			</note>
			<note>
				<chord/>
				<pitch>
					<step>G</step>
					<octave>4</octave>
				</pitch>
				<duration>6720</duration>
				<voice>1</voice>
				<type>quarter</type>
				<stem default-y="-55.38">down</stem>
			</note>
			<note>
				<pitch>
					<step>E</step>
					<octave>5</octave>
				</pitch>
				<duration>6720</duration>
				<voice>1</voice>
				<type>quarter</type>
				<stem default-y="-55.38">down</stem>
				<lyric number="1" justify="center" default-y="-87.12">
					<syllabic>single</syllabic>
					<text font-family="Times New Roman" font-size="10" font-weight="normal" font-style="normal" xml:lang="en">hosts,</text>
				</lyric>
				<lyric number="2" justify="center" default-y="-103.92">
					<syllabic>begin</syllabic>
					<text font-family="Times New Roman" font-size="10" font-weight="normal" font-style="normal" xml:lang="en">tem</text>
				</lyric>
				<lyric number="3" justify="center" default-y="-120.32">
					<syllabic>end</syllabic>
					<text font-family="Times New Roman" font-size="10" font-weight="normal" font-style="normal" xml:lang="en">way</text>
				</lyric>
			</note>
			<note>
				<chord/>
				<pitch>
					<step>G</step>
					<octave>4</octave>
				</pitch>
				<duration>6720</duration>
				<voice>1</voice>
				<type>quarter</type>
				<stem default-y="-55.38">down</stem>
			</note>
			<note>
				<pitch>
					<step>C</step>
					<octave>5</octave>
				</pitch>
				<duration>6720</duration>
				<voice>1</voice>
				<type>quarter</type>
				<stem default-y="9.62">up</stem>
				<lyric number="1" justify="center" default-y="-87.12">
					<syllabic>single</syllabic>
					<text font-family="Times New Roman" font-size="10" font-weight="normal" font-style="normal" xml:lang="en">Thy</text>
				</lyric>
				<lyric number="2" justify="center" default-y="-103.92">
					<syllabic>single</syllabic>
					<text font-family="Times New Roman" font-size="10" font-weight="normal" font-style="normal" xml:lang="en">ple</text>
				</lyric>
				<lyric number="3" justify="center" default-y="-120.32">
					<syllabic>single</syllabic>
					<text font-family="Times New Roman" font-size="10" font-weight="normal" font-style="normal" xml:lang="en">to</text>
				</lyric>
			</note>
			<note>
				<chord/>
				<pitch>
					<step>E</step>
					<octave>4</octave>
				</pitch>
				<duration>6720</duration>
				<voice>1</voice>
				<type>quarter</type>
				<stem default-y="9.62">up</stem>
			</note>
		</measure>
		<!--==========================[1,6]=============================-->
		<measure number="6" width="181">
			<note>
				<pitch>
					<step>B</step>
					<octave>4</octave>
				</pitch>
				<duration>13440</duration>
				<voice>1</voice>
				<type>half</type>
				<stem default-y="14.62">up</stem>
				<lyric number="1" justify="center" default-y="-87.12">
					<syllabic>begin</syllabic>
					<text font-family="Times New Roman" font-size="10" font-weight="normal" font-style="normal" xml:lang="en">dwell</text>
				</lyric>
				<lyric number="2" justify="center" default-y="-103.92">
					<syllabic>end</syllabic>
					<text font-family="Times New Roman" font-size="10" font-weight="normal" font-style="normal" xml:lang="en">of</text>
				</lyric>
				<lyric number="3" justify="center" default-y="-120.32">
					<syllabic>begin</syllabic>
					<text font-family="Times New Roman" font-size="10" font-weight="normal" font-style="normal" xml:lang="en">
Zi</text>
				</lyric>
			</note>
			<note>
				<chord/>
				<pitch>
					<step>D</step>
					<octave>4</octave>
				</pitch>
				<duration>13440</duration>
				<voice>1</voice>
				<type>half</type>
				<stem default-y="14.62">up</stem>
			</note>
			<note>
				<pitch>
					<step>A</step>
					<octave>4</octave>
				</pitch>
				<duration>13440</duration>
				<voice>1</voice>
				<type>half</type>
				<stem default-y="9.62">up</stem>
				<lyric number="1" justify="center" default-y="-87.12">
					<syllabic>end</syllabic>
					<text font-family="Times New Roman" font-size="10" font-weight="normal" font-style="normal" xml:lang="en">ings</text>
				</lyric>
				<lyric number="2" justify="center" default-y="-103.92">
					<syllabic>single</syllabic>
					<text font-family="Times New Roman" font-size="10" font-weight="normal" font-style="normal" xml:lang="en">Thy</text>
				</lyric>
				<lyric number="3" justify="center" default-y="-120.32">
					<syllabic>single</syllabic>
					<text font-family="Times New Roman" font-size="10" font-weight="normal" font-style="normal" xml:lang="en">on's</text>
				</lyric>
			</note>
			<note>
				<chord/>
				<pitch>
					<step>C</step>
					<octave>4</octave>
				</pitch>
				<duration>13440</duration>
				<voice>1</voice>
				<type>half</type>
				<stem default-y="9.62">up</stem>
			</note>
		</measure>
		<!--==========================[1,7]=============================-->
		<measure number="7" width="157">
			<note>
				<pitch>
					<step>G</step>
					<octave>4</octave>
				</pitch>
				<duration>13440</duration>
				<voice>1</voice>
				<type>half</type>
				<stem default-y="4.62">up</stem>
				<lyric number="1" justify="center" default-y="-87.12">
					<syllabic>single</syllabic>
					<text font-family="Times New Roman" font-size="10" font-weight="normal" font-style="normal" xml:lang="en">are!</text>
				</lyric>
				<lyric number="2" justify="center" default-y="-103.92">
					<syllabic>single</syllabic>
					<text font-family="Times New Roman" font-size="10" font-weight="normal" font-style="normal" xml:lang="en">grace;</text>
				</lyric>
				<lyric number="3" justify="center" default-y="-120.32">
					<syllabic>single</syllabic>
					<text font-family="Times New Roman" font-size="10" font-weight="normal" font-style="normal" xml:lang="en">gate:</text>
				</lyric>
			</note>
			<note>
				<chord/>
				<pitch>
					<step>B</step>
					<octave>3</octave>
				</pitch>
				<duration>13440</duration>
				<voice>1</voice>
				<type>half</type>
				<stem default-y="4.62">up</stem>
			</note>
			<note>
				<pitch>
					<step>F</step>
					<octave>4</octave>
				</pitch>
				<duration>13440</duration>
				<voice>1</voice>
				<type>half</type>
				<stem default-y="-0.38">up</stem>
				<lyric number="1" justify="center" default-y="-87.12">
					<syllabic>single</syllabic>
					<text font-family="Times New Roman" font-size="10" font-weight="normal" font-style="normal" xml:lang="en">With</text>
				</lyric>
				<lyric number="2" justify="center" default-y="-103.92">
					<syllabic>single</syllabic>
					<text font-family="Times New Roman" font-size="10" font-weight="normal" font-style="normal" xml:lang="en">There</text>
				</lyric>
				<lyric number="3" justify="center" default-y="-120.32">
					<syllabic>single</syllabic>
					<text font-family="Times New Roman" font-size="10" font-weight="normal" font-style="normal" xml:lang="en">God</text>
				</lyric>
			</note>
			<note>
				<chord/>
				<pitch>
					<step>D</step>
					<octave>4</octave>
				</pitch>
				<duration>13440</duration>
				<voice>1</voice>
				<type>half</type>
				<stem default-y="-0.38">up</stem>
			</note>
		</measure>
		<!--==========================[1,8]=============================-->
		<measure number="8" width="268">
			<note>
				<pitch>
					<step>E</step>
					<octave>4</octave>
				</pitch>
				<duration>6720</duration>
				<voice>1</voice>
				<type>quarter</type>
				<stem default-y="-5.38">up</stem>
				<lyric number="1" justify="center" default-y="-87.12">
					<syllabic>single</syllabic>
					<text font-family="Times New Roman" font-size="10" font-weight="normal" font-style="normal" xml:lang="en">long</text>
				</lyric>
				<lyric number="2" justify="center" default-y="-103.92">
					<syllabic>single</syllabic>
					<text font-family="Times New Roman" font-size="10" font-weight="normal" font-style="normal" xml:lang="en">they</text>
				</lyric>
				<lyric number="3" justify="center" default-y="-120.32">
					<syllabic>single</syllabic>
					<text font-family="Times New Roman" font-size="10" font-weight="normal" font-style="normal" xml:lang="en">is</text>
				</lyric>
			</note>
			<note>
				<chord/>
				<pitch>
					<step>C</step>
					<octave>4</octave>
				</pitch>
				<duration>6720</duration>
				<voice>1</voice>
				<type>quarter</type>
				<stem default-y="-5.38">up</stem>
			</note>
			<note>
				<pitch>
					<step>E</step>
					<octave>4</octave>
				</pitch>
				<duration>6720</duration>
				<voice>1</voice>
				<type>quarter</type>
				<stem default-y="-5.38">up</stem>
				<lyric number="1" justify="center" default-y="-87.12">
					<syllabic>begin</syllabic>
					<text font-family="Times New Roman" font-size="10" font-weight="normal" font-style="normal" xml:lang="en">de</text>
				</lyric>
				<lyric number="2" justify="center" default-y="-103.92">
					<syllabic>middle</syllabic>
					<text font-family="Times New Roman" font-size="10" font-weight="normal" font-style="normal" xml:lang="en">be</text>
				</lyric>
				<lyric number="3" justify="center" default-y="-120.32">
					<syllabic>end</syllabic>
					<text font-family="Times New Roman" font-size="10" font-weight="normal" font-style="normal" xml:lang="en">their</text>
				</lyric>
			</note>
			<note>
				<chord/>
				<pitch>
					<step>C</step>
					<octave>4</octave>
				</pitch>
				<duration>6720</duration>
				<voice>1</voice>
				<type>quarter</type>
				<stem default-y="-5.38">up</stem>
			</note>
			<note>
				<pitch>
					<step>E</step>
					<octave>4</octave>
				</pitch>
				<duration>6720</duration>
				<voice>1</voice>
				<type>quarter</type>
				<stem default-y="-5.38">up</stem>
				<lyric number="1" justify="center" default-y="-87.12">
					<syllabic>single</syllabic>
					<text font-family="Times New Roman" font-size="10" font-weight="normal" font-style="normal" xml:lang="en">sire</text>
				</lyric>
				<lyric number="2" justify="center" default-y="-103.92">
					<syllabic>single</syllabic>
					<text font-family="Times New Roman" font-size="10" font-weight="normal" font-style="normal" xml:lang="en">hold</text>
				</lyric>
				<lyric number="3" justify="center" default-y="-120.32">
					<syllabic>single</syllabic>
					<text font-family="Times New Roman" font-size="10" font-weight="normal" font-style="normal" xml:lang="en">strength;</text>
				</lyric>
			</note>
			<note>
				<chord/>
				<pitch>
					<step>C</step>
					<octave>4</octave>
				</pitch>
				<duration>6720</duration>
				<voice>1</voice>
				<type>quarter</type>
				<stem default-y="-5.38">up</stem>
			</note>
			<note>
				<pitch>
					<step>D</step>
					<octave>4</octave>
				</pitch>
				<duration>6720</duration>
				<voice>1</voice>
				<type>quarter</type>
				<stem default-y="-10.38">up</stem>
				<lyric number="1" justify="center" default-y="-87.12">
					<syllabic>single</syllabic>
					<text font-family="Times New Roman" font-size="10" font-weight="normal" font-style="normal" xml:lang="en">my</text>
				</lyric>
				<lyric number="2" justify="center" default-y="-103.92">
					<syllabic>single</syllabic>
					<text font-family="Times New Roman" font-size="10" font-weight="normal" font-style="normal" xml:lang="en">
Thy</text>
				</lyric>
				<lyric number="3" justify="center" default-y="-120.32">
					<syllabic>single</syllabic>
					<text font-family="Times New Roman" font-size="10" font-weight="normal" font-style="normal" xml:lang="en">and</text>
				</lyric>
			</note>
			<note>
				<chord/>
				<pitch>
					<step>B</step>
					<octave>3</octave>
				</pitch>
				<duration>6720</duration>
				<voice>1</voice>
				<type>quarter</type>
				<stem default-y="-10.38">up</stem>
			</note>
		</measure>
		<!--==========================[1,9]=============================-->
		<measure number="9" width="216">
			<print new-system="yes">
				<system-layout>
					<system-margins>
						<left-margin>11.213</left-margin>
						<right-margin>15.414</right-margin>
					</system-margins>
					<system-distance>131.667</system-distance>
				</system-layout>
			</print>
			<attributes>
				<staff-details number="1" print-object="yes">
				</staff-details>
			</attributes>
			<note>
				<pitch>
					<step>E</step>
					<octave>4</octave>
				</pitch>
				<duration>13440</duration>
				<voice>1</voice>
				<type>half</type>
				<stem default-y="-5.38">up</stem>
				<lyric number="1" justify="center" default-y="-87.18">
					<syllabic>begin</syllabic>
					<text font-family="Times New Roman" font-size="10" font-weight="normal" font-style="normal" xml:lang="en">spir</text>
				</lyric>
				<lyric number="2" justify="center" default-y="-103.58">
					<syllabic>middle</syllabic>
					<text font-family="Times New Roman" font-size="10" font-weight="normal" font-style="normal" xml:lang="en">gen</text>
				</lyric>
				<lyric number="3" justify="center" default-y="-120.38">
					<syllabic>end</syllabic>
					<text font-family="Times New Roman" font-size="10" font-weight="normal" font-style="normal" xml:lang="en">thro'</text>
				</lyric>
			</note>
			<note>
				<chord/>
				<pitch>
					<step>C</step>
					<octave>4</octave>
				</pitch>
				<duration>13440</duration>
				<voice>1</voice>
				<type>half</type>
				<stem default-y="-5.38">up</stem>
			</note>
			<note>
				<pitch>
					<step>G</step>
					<octave>4</octave>
				</pitch>
				<duration>10080</duration>
				<voice>1</voice>
				<type>quarter</type>
				<dot/>
				<stem default-y="4.62">up</stem>
				<notations>
					<slur type="start" number="1" placement="above" orientation="over"/>
				</notations>
				<lyric number="1" justify="center" default-y="-87.18">
					<syllabic>single</syllabic>
					<text font-family="Times New Roman" font-size="10" font-weight="normal" font-style="normal" xml:lang="en">it</text>
				</lyric>
				<lyric number="2" justify="center" default-y="-103.58">
					<syllabic>single</syllabic>
					<text font-family="Times New Roman" font-size="10" font-weight="normal" font-style="normal" xml:lang="en">tle</text>
				</lyric>
				<lyric number="3" justify="center" default-y="-120.38">
					<syllabic>single</syllabic>
					<text font-family="Times New Roman" font-size="10" font-weight="normal" font-style="normal" xml:lang="en">the</text>
				</lyric>
			</note>
			<note>
				<chord/>
				<pitch>
					<step>E</step>
					<octave>4</octave>
				</pitch>
				<duration>10080</duration>
				<voice>1</voice>
				<type>quarter</type>
				<dot/>
				<stem default-y="4.62">up</stem>
				<notations>
					<slur type="start" number="2" placement="below" orientation="under"/>
				</notations>
			</note>
			<note>
				<pitch>
					<step>F</step>
					<octave>4</octave>
				</pitch>
				<duration>3360</duration>
				<voice>1</voice>
				<type>eighth</type>
				<stem default-y="0.38">up</stem>
				<notations>
					<slur type="stop" number="1"/>
				</notations>
			</note>
			<note>
				<chord/>
				<pitch>
					<step>D</step>
					<octave>4</octave>
				</pitch>
				<duration>3360</duration>
				<voice>1</voice>
				<type>eighth</type>
				<stem default-y="0.38">up</stem>
				<notations>
					<slur type="stop" number="2"/>
				</notations>
			</note>
		</measure>
		<!--==========================[1,10]=============================-->
		<measure number="10" width="190">
			<note>
				<pitch>
					<step>E</step>
					<octave>4</octave>
				</pitch>
				<duration>13440</duration>
				<voice>1</voice>
				<type>half</type>
				<stem default-y="-5.38">up</stem>
				<lyric number="1" justify="center" default-y="-87.18">
					<syllabic>single</syllabic>
					<text font-family="Times New Roman" font-size="10" font-weight="normal" font-style="normal" xml:lang="en">faints</text>
				</lyric>
				<lyric number="2" justify="center" default-y="-103.58">
					<syllabic>single</syllabic>
					<text font-family="Times New Roman" font-size="10" font-weight="normal" font-style="normal" xml:lang="en">rays,</text>
				</lyric>
				<lyric number="3" justify="center" default-y="-120.38">
					<syllabic>single</syllabic>
					<text font-family="Times New Roman" font-size="10" font-weight="normal" font-style="normal" xml:lang="en">road</text>
				</lyric>
			</note>
			<note>
				<chord/>
				<pitch>
					<step>C</step>
					<octave>4</octave>
				</pitch>
				<duration>13440</duration>
				<voice>1</voice>
				<type>half</type>
				<stem default-y="-5.38">up</stem>
			</note>
			<note>
				<pitch>
					<step>G</step>
					<octave>4</octave>
				</pitch>
				<duration>13440</duration>
				<voice>1</voice>
				<type>half</type>
				<stem default-y="4.62">up</stem>
				<lyric number="1" justify="center" default-y="-87.18">
					<syllabic>single</syllabic>
					<text font-family="Times New Roman" font-size="10" font-weight="normal" font-style="normal" xml:lang="en">To</text>
				</lyric>
				<lyric number="2" justify="center" default-y="-103.58">
					<syllabic>single</syllabic>
					<text font-family="Times New Roman" font-size="10" font-weight="normal" font-style="normal" xml:lang="en">And</text>
				</lyric>
				<lyric number="3" justify="center" default-y="-120.38">
					<syllabic>single</syllabic>
					<text font-family="Times New Roman" font-size="10" font-weight="normal" font-style="normal" xml:lang="en">They</text>
				</lyric>
			</note>
			<note>
				<chord/>
				<pitch>
					<step>E</step>
					<octave>4</octave>
				</pitch>
				<duration>13440</duration>
				<voice>1</voice>
				<type>half</type>
				<stem default-y="4.62">up</stem>
			</note>
		</measure>
		<!--==========================[1,11]=============================-->
		<measure number="11" width="229">
			<note>
				<pitch>
					<step>C</step>
					<octave>5</octave>
				</pitch>
				<duration>6720</duration>
				<voice>1</voice>
				<type>quarter</type>
				<stem default-y="9.62">up</stem>
				<lyric number="1" justify="center" default-y="-87.18">
					<syllabic>single</syllabic>
					<text font-family="Times New Roman" font-size="10" font-weight="normal" font-style="normal" xml:lang="en">meet</text>
				</lyric>
				<lyric number="2" justify="center" default-y="-103.58">
					<syllabic>single</syllabic>
					<text font-family="Times New Roman" font-size="10" font-weight="normal" font-style="normal" xml:lang="en">seek</text>
				</lyric>
				<lyric number="3" justify="center" default-y="-120.38">
					<syllabic>single</syllabic>
					<text font-family="Times New Roman" font-size="10" font-weight="normal" font-style="normal" xml:lang="en">lean</text>
				</lyric>
			</note>
			<note>
				<chord/>
				<pitch>
					<step>E</step>
					<octave>4</octave>
				</pitch>
				<duration>6720</duration>
				<voice>1</voice>
				<type>quarter</type>
				<stem default-y="9.62">up</stem>
			</note>
			<note>
				<pitch>
					<step>C</step>
					<octave>5</octave>
				</pitch>
				<duration>6720</duration>
				<voice>1</voice>
				<type>quarter</type>
				<stem default-y="9.62">up</stem>
				<lyric number="1" justify="center" default-y="-87.18">
					<syllabic>begin</syllabic>
					<text font-family="Times New Roman" font-size="10" font-weight="normal" font-style="normal" xml:lang="en">th'as</text>
				</lyric>
				<lyric number="2" justify="center" default-y="-103.58">
					<syllabic>end</syllabic>
					<text font-family="Times New Roman" font-size="10" font-weight="normal" font-style="normal" xml:lang="en">
Thy</text>
				</lyric>
				<lyric number="3" justify="center" default-y="-120.38">
					<syllabic>begin</syllabic>
					<text font-family="Times New Roman" font-size="10" font-weight="normal" font-style="normal" xml:lang="en">up</text>
				</lyric>
			</note>
			<note>
				<chord/>
				<pitch>
					<step>E</step>
					<octave>4</octave>
				</pitch>
				<duration>6720</duration>
				<voice>1</voice>
				<type>quarter</type>
				<stem default-y="9.62">up</stem>
			</note>
			<note>
				<pitch>
					<step>C</step>
					<octave>5</octave>
				</pitch>
				<duration>6720</duration>
				<voice>1</voice>
				<type>quarter</type>
				<stem default-y="9.62">up</stem>
				<lyric number="1" justify="center" default-y="-87.18">
					<syllabic>middle</syllabic>
					<text font-family="Times New Roman" font-size="10" font-weight="normal" font-style="normal" xml:lang="en">sem</text>
				</lyric>
				<lyric number="2" justify="center" default-y="-103.58">
					<syllabic>end</syllabic>
					<text font-family="Times New Roman" font-size="10" font-weight="normal" font-style="normal" xml:lang="en">face</text>
				</lyric>
				<lyric number="3" justify="center" default-y="-120.38">
					<syllabic>single</syllabic>
					<text font-family="Times New Roman" font-size="10" font-weight="normal" font-style="normal" xml:lang="en">on</text>
				</lyric>
			</note>
			<note>
				<chord/>
				<pitch>
					<step>E</step>
					<octave>4</octave>
				</pitch>
				<duration>6720</duration>
				<voice>1</voice>
				<type>quarter</type>
				<stem default-y="9.62">up</stem>
			</note>
			<note>
				<pitch>
					<step>C</step>
					<octave>5</octave>
				</pitch>
				<duration>6720</duration>
				<voice>1</voice>
				<type>quarter</type>
				<stem default-y="9.62">up</stem>
				<lyric number="1" justify="center" default-y="-87.18">
					<syllabic>single</syllabic>
					<text font-family="Times New Roman" font-size="10" font-weight="normal" font-style="normal" xml:lang="en">blies</text>
				</lyric>
				<lyric number="2" justify="center" default-y="-103.58">
					<syllabic>single</syllabic>
					<text font-family="Times New Roman" font-size="10" font-weight="normal" font-style="normal" xml:lang="en">and</text>
				</lyric>
				<lyric number="3" justify="center" default-y="-120.38">
					<syllabic>single</syllabic>
					<text font-family="Times New Roman" font-size="10" font-weight="normal" font-style="normal" xml:lang="en">their</text>
				</lyric>
			</note>
			<note>
				<chord/>
				<pitch>
					<step>E</step>
					<octave>4</octave>
				</pitch>
				<duration>6720</duration>
				<voice>1</voice>
				<type>quarter</type>
				<stem default-y="9.62">up</stem>
			</note>
		</measure>
		<!--==========================[1,12]=============================-->
		<measure number="12" width="147">
			<note>
				<pitch>
					<step>D</step>
					<octave>5</octave>
				</pitch>
				<duration>13440</duration>
				<voice>1</voice>
				<type>half</type>
				<stem default-y="14.62">up</stem>
				<lyric number="1" justify="center" default-y="-87.18">
					<syllabic>single</syllabic>
					<text font-family="Times New Roman" font-size="10" font-weight="normal" font-style="normal" xml:lang="en">of</text>
				</lyric>
				<lyric number="2" justify="center" default-y="-103.58">
					<syllabic>single</syllabic>
					<text font-family="Times New Roman" font-size="10" font-weight="normal" font-style="normal" xml:lang="en">learn</text>
				</lyric>
				<lyric number="3" justify="center" default-y="-120.38">
					<syllabic>begin</syllabic>
					<text font-family="Times New Roman" font-size="10" font-weight="normal" font-style="normal" xml:lang="en">help</text>
				</lyric>
			</note>
			<note>
				<chord/>
				<pitch>
					<step>F</step>
					<octave>4</octave>
				</pitch>
				<duration>13440</duration>
				<voice>1</voice>
				<type>half</type>
				<stem default-y="14.62">up</stem>
			</note>
			<note>
				<pitch>
					<step>B</step>
					<octave>4</octave>
				</pitch>
				<duration>13440</duration>
				<voice>1</voice>
				<type>half</type>
				<stem default-y="14.62">up</stem>
				<lyric number="1" justify="center" default-y="-87.18">
					<syllabic>end</syllabic>
					<text font-family="Times New Roman" font-size="10" font-weight="normal" font-style="normal" xml:lang="en">the</text>
				</lyric>
				<lyric number="2" justify="center" default-y="-103.58">
					<syllabic>single</syllabic>
					<text font-family="Times New Roman" font-size="10" font-weight="normal" font-style="normal" xml:lang="en">Thy</text>
				</lyric>
				<lyric number="3" justify="center" default-y="-120.38">
					<syllabic>single</syllabic>
					<text font-family="Times New Roman" font-size="10" font-weight="normal" font-style="normal" xml:lang="en">er,</text>
				</lyric>
			</note>
			<note>
				<chord/>
				<pitch>
					<step>D</step>
					<octave>4</octave>
				</pitch>
				<duration>13440</duration>
				<voice>1</voice>
				<type>half</type>
				<stem default-y="14.62">up</stem>
			</note>
		</measure>
		<!--==========================[1,13]=============================-->
		<measure number="13" width="111">
			<note>
				<pitch>
					<step>C</step>
					<octave>5</octave>
				</pitch>
				<duration>13440</duration>
				<voice>1</voice>
				<type>half</type>
				<stem default-y="9.62">up</stem>
				<lyric number="1" justify="center" default-y="-87.18">
					<syllabic>single</syllabic>
					<text font-family="Times New Roman" font-size="10" font-weight="normal" font-style="normal" xml:lang="en">saints.</text>
				</lyric>
				<lyric number="2" justify="center" default-y="-103.58">
					<syllabic>single</syllabic>
					<text font-family="Times New Roman" font-size="10" font-weight="normal" font-style="normal" xml:lang="en">praise.</text>
				</lyric>
				<lyric number="3" justify="center" default-y="-120.38">
					<syllabic>single</syllabic>
					<text font-family="Times New Roman" font-size="10" font-weight="normal" font-style="normal" xml:lang="en">
God.</text>
				</lyric>
			</note>
			<note>
				<chord/>
				<pitch>
					<step>E</step>
					<octave>4</octave>
				</pitch>
				<duration>13440</duration>
				<voice>1</voice>
				<type>half</type>
				<stem default-y="9.62">up</stem>
			</note>
			<barline location="right">
				<repeat direction="backward" times="3"/>
			</barline>
		</measure>
	</part>
	<part id="P2">
		<!--==========================[2,1]=============================-->
		<measure number="1" width="166">
			<print new-page="yes">
				<staff-layout number="1">
					<staff-distance>125.000</staff-distance>
				</staff-layout>
			</print>
			<barline location="left">
				<repeat direction="forward"/>
			</barline>
			<attributes>
				<divisions>6720</divisions>
				<time>
					<beats>2</beats>
					<beat-type>2</beat-type>
				</time>
				<clef number="1">
					<sign>F</sign>
					<line>4</line>
				</clef>
				<staff-details number="1" print-object="yes">
					<staff-lines>5</staff-lines>
					<staff-size>100.00</staff-size>
				</staff-details>
			</attributes>
			<note print-lyric="no">
				<pitch>
					<step>C</step>
					<octave>4</octave>
				</pitch>
				<duration>13440</duration>
				<voice>1</voice>
				<type>half</type>
				<stem default-y="-50.38">down</stem>
				<lyric number="1" justify="right" default-y="77.82">
					<syllabic>single</syllabic>
					<text font-family="Times New Roman" font-size="10" font-weight="normal" font-style="normal" xml:lang="en">
. How</text>
				</lyric>
				<lyric number="2" justify="right" default-y="61.42">
					<syllabic>single</syllabic>
					<text font-family="Times New Roman" font-size="10" font-weight="normal" font-style="normal" xml:lang="en">
2. Blest</text>
				</lyric>
				<lyric number="3" justify="right" default-y="44.62">
					<syllabic>single</syllabic>
					<text font-family="Times New Roman" font-size="10" font-weight="normal" font-style="normal" xml:lang="en">
3. Blest</text>
				</lyric>
			</note>
			<note>
				<chord/>
				<pitch>
					<step>C</step>
					<octave>3</octave>
				</pitch>
				<duration>13440</duration>
				<voice>1</voice>
				<type>half</type>
				<stem default-y="-59.83">down</stem>
			</note>
		</measure>
		<!--==========================[2,2]=============================-->
		<measure number="2" width="307">
			<note print-lyric="no">
				<pitch>
					<step>G</step>
					<octave>3</octave>
				</pitch>
				<duration>6720</duration>
				<voice>1</voice>
				<type>quarter</type>
				<stem default-y="-50.38">down</stem>
				<lyric number="1" justify="center" default-y="77.82">
					<syllabic>begin</syllabic>
					<text font-family="Times New Roman" font-size="10" font-weight="normal" font-style="normal" xml:lang="en">pleas</text>
				</lyric>
				<lyric number="2" justify="center" default-y="61.42">
					<syllabic>end</syllabic>
					<text font-family="Times New Roman" font-size="10" font-weight="normal" font-style="normal" xml:lang="en">are</text>
				</lyric>
				<lyric number="3" justify="center" default-y="44.62">
					<syllabic>single</syllabic>
					<text font-family="Times New Roman" font-size="10" font-weight="normal" font-style="normal" xml:lang="en">are</text>
				</lyric>
			</note>
			<note>
				<chord/>
				<pitch>
					<step>C</step>
					<octave>3</octave>
				</pitch>
				<duration>6720</duration>
				<voice>1</voice>
				<type>quarter</type>
				<stem default-y="-50.38">down</stem>
			</note>
			<note print-lyric="no">
				<pitch>
					<step>G</step>
					<octave>3</octave>
				</pitch>
				<duration>6720</duration>
				<voice>1</voice>
				<type>quarter</type>
				<stem default-y="-50.38">down</stem>
				<lyric number="1" justify="center" default-y="77.82">
					<syllabic>single</syllabic>
					<text font-family="Times New Roman" font-size="10" font-weight="normal" font-style="normal" xml:lang="en">ant,</text>
				</lyric>
				<lyric number="2" justify="center" default-y="61.42">
					<syllabic>single</syllabic>
					<text font-family="Times New Roman" font-size="10" font-weight="normal" font-style="normal" xml:lang="en">the</text>
				</lyric>
				<lyric number="3" justify="center" default-y="44.62">
					<syllabic>single</syllabic>
					<text font-family="Times New Roman" font-size="10" font-weight="normal" font-style="normal" xml:lang="en">the</text>
				</lyric>
			</note>
			<note>
				<chord/>
				<pitch>
					<step>C</step>
					<octave>3</octave>
				</pitch>
				<duration>6720</duration>
				<voice>1</voice>
				<type>quarter</type>
				<stem default-y="-50.38">down</stem>
			</note>
			<note print-lyric="no">
				<pitch>
					<step>C</step>
					<octave>4</octave>
				</pitch>
				<duration>6720</duration>
				<voice>1</voice>
				<type>quarter</type>
				<stem default-y="-50.38">down</stem>
				<lyric number="1" justify="center" default-y="77.82">
					<syllabic>single</syllabic>
					<text font-family="Times New Roman" font-size="10" font-weight="normal" font-style="normal" xml:lang="en">how</text>
				</lyric>
				<lyric number="2" justify="center" default-y="61.42">
					<syllabic>single</syllabic>
					<text font-family="Times New Roman" font-size="10" font-weight="normal" font-style="normal" xml:lang="en">souls</text>
				</lyric>
				<lyric number="3" justify="center" default-y="44.62">
					<syllabic>single</syllabic>
					<text font-family="Times New Roman" font-size="10" font-weight="normal" font-style="normal" xml:lang="en">men</text>
				</lyric>
			</note>
			<note>
				<chord/>
				<pitch>
					<step>C</step>
					<octave>3</octave>
				</pitch>
				<duration>6720</duration>
				<voice>1</voice>
				<type>quarter</type>
				<stem default-y="-59.83">down</stem>
			</note>
			<note print-lyric="no">
				<pitch>
					<step>E</step>
					<octave>4</octave>
				</pitch>
				<duration>6720</duration>
				<voice>1</voice>
				<type>quarter</type>
				<stem default-y="-35.38">down</stem>
				<lyric number="1" justify="center" default-y="77.82">
					<syllabic>begin</syllabic>
					<text font-family="Times New Roman" font-size="10" font-weight="normal" font-style="normal" xml:lang="en">di</text>
				</lyric>
				<lyric number="2" justify="center" default-y="61.42">
					<syllabic>end</syllabic>
					<text font-family="Times New Roman" font-size="10" font-weight="normal" font-style="normal" xml:lang="en">that</text>
				</lyric>
				<lyric number="3" justify="center" default-y="44.62">
					<syllabic>single</syllabic>
					<text font-family="Times New Roman" font-size="10" font-weight="normal" font-style="normal" xml:lang="en">whose</text>
				</lyric>
			</note>
			<note>
				<chord/>
				<pitch>
					<step>A</step>
					<octave>3</octave>
				</pitch>
				<duration>6720</duration>
				<voice>1</voice>
				<type>quarter</type>
				<stem default-y="-35.38">down</stem>
				<notations>
					<articulations>
						<tenuto placement="above" relative-x="-2.14" relative-y="10.34"/>
					</articulations>
				</notations>
			</note>
		</measure>
		<!--==========================[2,3]=============================-->
		<measure number="3" width="196">
			<note print-lyric="no">
				<pitch>
					<step>F</step>
					<octave>4</octave>
				</pitch>
				<duration>13440</duration>
				<voice>1</voice>
				<type>half</type>
				<stem default-y="-45.38">down</stem>
				<lyric number="1" justify="center" default-y="77.82">
					<syllabic>begin</syllabic>
					<text font-family="Times New Roman" font-size="10" font-weight="normal" font-style="normal" xml:lang="en">vine</text>
				</lyric>
				<lyric number="2" justify="center" default-y="61.42">
					<syllabic>end</syllabic>
					<text font-family="Times New Roman" font-size="10" font-weight="normal" font-style="normal" xml:lang="en">find</text>
				</lyric>
				<lyric number="3" justify="center" default-y="44.62">
					<syllabic>single</syllabic>
					<text font-family="Times New Roman" font-size="10" font-weight="normal" font-style="normal" xml:lang="en">hearts</text>
				</lyric>
			</note>
			<note>
				<chord/>
				<pitch>
					<step>F</step>
					<octave>3</octave>
				</pitch>
				<duration>13440</duration>
				<voice>1</voice>
				<type>half</type>
				<stem default-y="-45.38">down</stem>
			</note>
			<note print-lyric="no">
				<pitch>
					<step>D</step>
					<octave>4</octave>
				</pitch>
				<duration>13440</duration>
				<voice>1</voice>
				<type>half</type>
				<stem default-y="-40.38">down</stem>
				<lyric number="1" justify="center" default-y="77.82">
					<syllabic>single</syllabic>
					<text font-family="Times New Roman" font-size="10" font-weight="normal" font-style="normal" xml:lang="en">ly</text>
				</lyric>
				<lyric number="2" justify="center" default-y="61.42">
					<syllabic>single</syllabic>
					<text font-family="Times New Roman" font-size="10" font-weight="normal" font-style="normal" xml:lang="en">a</text>
				</lyric>
				<lyric number="3" justify="center" default-y="44.62">
					<syllabic>single</syllabic>
					<text font-family="Times New Roman" font-size="10" font-weight="normal" font-style="normal" xml:lang="en">are</text>
				</lyric>
			</note>
			<note>
				<chord/>
				<pitch>
					<step>G</step>
					<octave>3</octave>
				</pitch>
				<duration>13440</duration>
				<voice>1</voice>
				<type>half</type>
				<stem default-y="-40.38">down</stem>
			</note>
		</measure>
		<!--==========================[2,4]=============================-->
		<measure number="4" width="229">
			<note print-lyric="no">
				<pitch>
					<step>E</step>
					<octave>4</octave>
				</pitch>
				<duration>13440</duration>
				<voice>1</voice>
				<type>half</type>
				<stem default-y="-50.38">down</stem>
				<lyric number="1" justify="center" default-y="77.82">
					<syllabic>single</syllabic>
					<text font-family="Times New Roman" font-size="10" font-weight="normal" font-style="normal" xml:lang="en">fair,</text>
				</lyric>
				<lyric number="2" justify="center" default-y="61.42">
					<syllabic>single</syllabic>
					<text font-family="Times New Roman" font-size="10" font-weight="normal" font-style="normal" xml:lang="en">place</text>
				</lyric>
				<lyric number="3" justify="center" default-y="44.62">
					<syllabic>single</syllabic>
					<text font-family="Times New Roman" font-size="10" font-weight="normal" font-style="normal" xml:lang="en">set</text>
				</lyric>
			</note>
			<note>
				<chord/>
				<pitch>
					<step>C</step>
					<octave>3</octave>
				</pitch>
				<duration>13440</duration>
				<voice>1</voice>
				<type>half</type>
				<stem default-y="-69.83">down</stem>
			</note>
			<note print-lyric="no">
				<pitch>
					<step>B</step>
					<octave>3</octave>
				</pitch>
				<duration>13440</duration>
				<voice>1</voice>
				<type>half</type>
				<stem default-y="-40.38">down</stem>
				<lyric number="1" justify="center" default-y="77.82">
					<syllabic>single</syllabic>
					<text font-family="Times New Roman" font-size="10" font-weight="normal" font-style="normal" xml:lang="en">
O</text>
				</lyric>
				<lyric number="2" justify="center" default-y="61.42">
					<syllabic>begin</syllabic>
					<text font-family="Times New Roman" font-size="10" font-weight="normal" font-style="normal" xml:lang="en">
With</text>
				</lyric>
				<lyric number="3" justify="center" default-y="44.62">
					<syllabic>end</syllabic>
					<text font-family="Times New Roman" font-size="10" font-weight="normal" font-style="normal" xml:lang="en">
To</text>
				</lyric>
			</note>
			<note>
				<chord/>
				<pitch>
					<step>G</step>
					<octave>3</octave>
				</pitch>
				<duration>13440</duration>
				<voice>1</voice>
				<type>half</type>
				<stem default-y="-40.38">down</stem>
			</note>
		</measure>
		<!--==========================[2,5]=============================-->
		<measure number="5" width="292">
			<print new-system="yes">
				<staff-layout number="1">
					<staff-distance>126.666</staff-distance>
				</staff-layout>
			</print>
			<attributes>
				<staff-details number="1" print-object="yes">
				</staff-details>
			</attributes>
			<note print-lyric="no">
				<pitch>
					<step>C</step>
					<octave>4</octave>
				</pitch>
				<duration>6720</duration>
				<voice>1</voice>
				<type>quarter</type>
				<stem default-y="34.62">up</stem>
				<lyric number="1" justify="center" default-y="79.55">
					<syllabic>single</syllabic>
					<text font-family="Times New Roman" font-size="10" font-weight="normal" font-style="normal" xml:lang="en">Lord</text>
				</lyric>
				<lyric number="2" justify="center" default-y="62.75">
					<syllabic>single</syllabic>
					<text font-family="Times New Roman" font-size="10" font-weight="normal" font-style="normal" xml:lang="en">in</text>
				</lyric>
				<lyric number="3" justify="center" default-y="46.35">
					<syllabic>single</syllabic>
					<text font-family="Times New Roman" font-size="10" font-weight="normal" font-style="normal" xml:lang="en">find</text>
				</lyric>
			</note>
			<backup>
				<duration>6720</duration>
			</backup>
			<note>
				<pitch>
					<step>C</step>
					<octave>4</octave>
				</pitch>
				<duration>6720</duration>
				<voice>2</voice>
				<type>quarter</type>
				<stem default-y="-25.38">down</stem>
			</note>
			<note print-lyric="no">
				<pitch>
					<step>C</step>
					<octave>4</octave>
				</pitch>
				<duration>6720</duration>
				<voice>1</voice>
				<type>quarter</type>
				<stem default-y="34.62">up</stem>
				<lyric number="1" justify="center" default-y="79.55">
					<syllabic>single</syllabic>
					<text font-family="Times New Roman" font-size="10" font-weight="normal" font-style="normal" xml:lang="en">of</text>
				</lyric>
				<lyric number="2" justify="center" default-y="62.75">
					<syllabic>single</syllabic>
					<text font-family="Times New Roman" font-size="10" font-weight="normal" font-style="normal" xml:lang="en">the</text>
				</lyric>
				<lyric number="3" justify="center" default-y="46.35">
					<syllabic>single</syllabic>
					<text font-family="Times New Roman" font-size="10" font-weight="normal" font-style="normal" xml:lang="en">the</text>
				</lyric>
			</note>
			<backup>
				<duration>6720</duration>
			</backup>
			<note>
				<pitch>
					<step>C</step>
					<octave>4</octave>
				</pitch>
				<duration>6720</duration>
				<voice>2</voice>
				<type>quarter</type>
				<stem default-y="-25.38">down</stem>
			</note>
			<note print-lyric="no">
				<pitch>
					<step>C</step>
					<octave>4</octave>
				</pitch>
				<duration>6720</duration>
				<voice>1</voice>
				<type>quarter</type>
				<stem default-y="34.62">up</stem>
				<lyric number="1" justify="center" default-y="79.55">
					<syllabic>single</syllabic>
					<text font-family="Times New Roman" font-size="10" font-weight="normal" font-style="normal" xml:lang="en">hosts,</text>
				</lyric>
				<lyric number="2" justify="center" default-y="62.75">
					<syllabic>begin</syllabic>
					<text font-family="Times New Roman" font-size="10" font-weight="normal" font-style="normal" xml:lang="en">tem</text>
				</lyric>
				<lyric number="3" justify="center" default-y="46.35">
					<syllabic>end</syllabic>
					<text font-family="Times New Roman" font-size="10" font-weight="normal" font-style="normal" xml:lang="en">way</text>
				</lyric>
			</note>
			<backup>
				<duration>6720</duration>
			</backup>
			<note>
				<pitch>
					<step>C</step>
					<octave>4</octave>
				</pitch>
				<duration>6720</duration>
				<voice>2</voice>
				<type>quarter</type>
				<stem default-y="-25.38">down</stem>
			</note>
			<note print-lyric="no">
				<pitch>
					<step>G</step>
					<octave>3</octave>
				</pitch>
				<duration>6720</duration>
				<voice>2</voice>
				<type>quarter</type>
				<stem default-y="-50.38">down</stem>
				<lyric number="1" justify="center" default-y="79.55">
					<syllabic>single</syllabic>
					<text font-family="Times New Roman" font-size="10" font-weight="normal" font-style="normal" xml:lang="en">Thy</text>
				</lyric>
				<lyric number="2" justify="center" default-y="62.75">
					<syllabic>single</syllabic>
					<text font-family="Times New Roman" font-size="10" font-weight="normal" font-style="normal" xml:lang="en">ple</text>
				</lyric>
				<lyric number="3" justify="center" default-y="46.35">
					<syllabic>single</syllabic>
					<text font-family="Times New Roman" font-size="10" font-weight="normal" font-style="normal" xml:lang="en">to</text>
				</lyric>
			</note>
			<note>
				<chord/>
				<pitch>
					<step>C</step>
					<octave>3</octave>
				</pitch>
				<duration>6720</duration>
				<voice>2</voice>
				<type>quarter</type>
				<stem default-y="-50.38">down</stem>
			</note>
		</measure>
		<!--==========================[2,6]=============================-->
		<measure number="6" width="181">
			<note print-lyric="no">
				<pitch>
					<step>G</step>
					<octave>3</octave>
				</pitch>
				<duration>13440</duration>
				<voice>1</voice>
				<type>half</type>
				<stem default-y="-55.38">down</stem>
				<lyric number="1" justify="center" default-y="79.55">
					<syllabic>begin</syllabic>
					<text font-family="Times New Roman" font-size="10" font-weight="normal" font-style="normal" xml:lang="en">dwell</text>
				</lyric>
				<lyric number="2" justify="center" default-y="62.75">
					<syllabic>end</syllabic>
					<text font-family="Times New Roman" font-size="10" font-weight="normal" font-style="normal" xml:lang="en">of</text>
				</lyric>
				<lyric number="3" justify="center" default-y="46.35">
					<syllabic>begin</syllabic>
					<text font-family="Times New Roman" font-size="10" font-weight="normal" font-style="normal" xml:lang="en">
Zi</text>
				</lyric>
			</note>
			<note>
				<chord/>
				<pitch>
					<step>D</step>
					<octave>3</octave>
				</pitch>
				<duration>13440</duration>
				<voice>1</voice>
				<type>half</type>
				<stem default-y="-55.38">down</stem>
			</note>
			<note print-lyric="no">
				<pitch>
					<step>F</step>
					<alter>1</alter>
					<octave>3</octave>
				</pitch>
				<duration>13440</duration>
				<voice>1</voice>
				<type>half</type>
				<accidental>sharp</accidental>
				<stem default-y="-55.38">down</stem>
				<lyric number="1" justify="center" default-y="79.55">
					<syllabic>end</syllabic>
					<text font-family="Times New Roman" font-size="10" font-weight="normal" font-style="normal" xml:lang="en">ings</text>
				</lyric>
				<lyric number="2" justify="center" default-y="62.75">
					<syllabic>single</syllabic>
					<text font-family="Times New Roman" font-size="10" font-weight="normal" font-style="normal" xml:lang="en">Thy</text>
				</lyric>
				<lyric number="3" justify="center" default-y="46.35">
					<syllabic>single</syllabic>
					<text font-family="Times New Roman" font-size="10" font-weight="normal" font-style="normal" xml:lang="en">on's</text>
				</lyric>
			</note>
			<note>
				<chord/>
				<pitch>
					<step>D</step>
					<octave>3</octave>
				</pitch>
				<duration>13440</duration>
				<voice>1</voice>
				<type>half</type>
				<stem default-y="-55.38">down</stem>
			</note>
		</measure>
		<!--==========================[2,7]=============================-->
		<measure number="7" width="157">
			<note print-lyric="no">
				<pitch>
					<step>G</step>
					<octave>3</octave>
				</pitch>
				<duration>13440</duration>
				<voice>1</voice>
				<type>half</type>
				<stem default-y="28.77">up</stem>
				<lyric number="1" justify="center" default-y="79.55">
					<syllabic>single</syllabic>
					<text font-family="Times New Roman" font-size="10" font-weight="normal" font-style="normal" xml:lang="en">are!</text>
				</lyric>
				<lyric number="2" justify="center" default-y="62.75">
					<syllabic>single</syllabic>
					<text font-family="Times New Roman" font-size="10" font-weight="normal" font-style="normal" xml:lang="en">grace;</text>
				</lyric>
				<lyric number="3" justify="center" default-y="46.35">
					<syllabic>single</syllabic>
					<text font-family="Times New Roman" font-size="10" font-weight="normal" font-style="normal" xml:lang="en">gate:</text>
				</lyric>
			</note>
			<note>
				<chord/>
				<pitch>
					<step>G</step>
					<octave>2</octave>
				</pitch>
				<duration>13440</duration>
				<voice>1</voice>
				<type>half</type>
				<stem default-y="19.62">up</stem>
			</note>
			<note print-lyric="no">
				<pitch>
					<step>G</step>
					<octave>3</octave>
				</pitch>
				<duration>13440</duration>
				<voice>1</voice>
				<type>half</type>
				<stem default-y="19.62">up</stem>
				<lyric number="1" justify="center" default-y="79.55">
					<syllabic>single</syllabic>
					<text font-family="Times New Roman" font-size="10" font-weight="normal" font-style="normal" xml:lang="en">With</text>
				</lyric>
				<lyric number="2" justify="center" default-y="62.75">
					<syllabic>single</syllabic>
					<text font-family="Times New Roman" font-size="10" font-weight="normal" font-style="normal" xml:lang="en">There</text>
				</lyric>
				<lyric number="3" justify="center" default-y="46.35">
					<syllabic>single</syllabic>
					<text font-family="Times New Roman" font-size="10" font-weight="normal" font-style="normal" xml:lang="en">God</text>
				</lyric>
			</note>
			<backup>
				<duration>13440</duration>
			</backup>
			<note>
				<cue/>
				<pitch>
					<step>G</step>
					<octave>2</octave>
				</pitch>
				<duration>13440</duration>
				<voice>2</voice>
				<type>half</type>
				<stem default-y="-57.88">down</stem>
			</note>
		</measure>
		<!--==========================[2,8]=============================-->
		<measure number="8" width="268">
			<note print-lyric="no">
				<pitch>
					<step>G</step>
					<octave>3</octave>
				</pitch>
				<duration>6720</duration>
				<voice>1</voice>
				<type>quarter</type>
				<stem default-y="19.62">up</stem>
				<lyric number="1" justify="center" default-y="79.55">
					<syllabic>single</syllabic>
					<text font-family="Times New Roman" font-size="10" font-weight="normal" font-style="normal" xml:lang="en">long</text>
				</lyric>
				<lyric number="2" justify="center" default-y="62.75">
					<syllabic>single</syllabic>
					<text font-family="Times New Roman" font-size="10" font-weight="normal" font-style="normal" xml:lang="en">they</text>
				</lyric>
				<lyric number="3" justify="center" default-y="46.35">
					<syllabic>single</syllabic>
					<text font-family="Times New Roman" font-size="10" font-weight="normal" font-style="normal" xml:lang="en">is</text>
				</lyric>
			</note>
			<backup>
				<duration>6720</duration>
			</backup>
			<note>
				<cue/>
				<pitch>
					<step>C</step>
					<octave>3</octave>
				</pitch>
				<duration>13440</duration>
				<voice>2</voice>
				<type>half</type>
				<dot/>
				<stem default-y="-42.88">down</stem>
			</note>
			<forward>
				<duration>6720</duration>
			</forward>
			<note print-lyric="no">
				<pitch>
					<step>G</step>
					<octave>3</octave>
				</pitch>
				<duration>6720</duration>
				<voice>1</voice>
				<type>quarter</type>
				<stem default-y="19.62">up</stem>
				<lyric number="1" justify="center" default-y="79.55">
					<syllabic>begin</syllabic>
					<text font-family="Times New Roman" font-size="10" font-weight="normal" font-style="normal" xml:lang="en">de</text>
				</lyric>
				<lyric number="2" justify="center" default-y="62.75">
					<syllabic>middle</syllabic>
					<text font-family="Times New Roman" font-size="10" font-weight="normal" font-style="normal" xml:lang="en">be</text>
				</lyric>
				<lyric number="3" justify="center" default-y="46.35">
					<syllabic>end</syllabic>
					<text font-family="Times New Roman" font-size="10" font-weight="normal" font-style="normal" xml:lang="en">their</text>
				</lyric>
			</note>
			<note print-lyric="no">
				<pitch>
					<step>G</step>
					<octave>3</octave>
				</pitch>
				<duration>6720</duration>
				<voice>1</voice>
				<type>quarter</type>
				<stem default-y="19.62">up</stem>
				<lyric number="1" justify="center" default-y="79.55">
					<syllabic>single</syllabic>
					<text font-family="Times New Roman" font-size="10" font-weight="normal" font-style="normal" xml:lang="en">sire</text>
				</lyric>
				<lyric number="2" justify="center" default-y="62.75">
					<syllabic>single</syllabic>
					<text font-family="Times New Roman" font-size="10" font-weight="normal" font-style="normal" xml:lang="en">hold</text>
				</lyric>
				<lyric number="3" justify="center" default-y="46.35">
					<syllabic>single</syllabic>
					<text font-family="Times New Roman" font-size="10" font-weight="normal" font-style="normal" xml:lang="en">strength;</text>
				</lyric>
			</note>
			<note print-lyric="no">
				<pitch>
					<step>G</step>
					<octave>3</octave>
				</pitch>
				<duration>6720</duration>
				<voice>1</voice>
				<type>quarter</type>
				<stem default-y="19.62">up</stem>
				<lyric number="1" justify="center" default-y="79.55">
					<syllabic>single</syllabic>
					<text font-family="Times New Roman" font-size="10" font-weight="normal" font-style="normal" xml:lang="en">my</text>
				</lyric>
				<lyric number="2" justify="center" default-y="62.75">
					<syllabic>single</syllabic>
					<text font-family="Times New Roman" font-size="10" font-weight="normal" font-style="normal" xml:lang="en">
Thy</text>
				</lyric>
				<lyric number="3" justify="center" default-y="46.35">
					<syllabic>single</syllabic>
					<text font-family="Times New Roman" font-size="10" font-weight="normal" font-style="normal" xml:lang="en">and</text>
				</lyric>
			</note>
			<backup>
				<duration>6720</duration>
			</backup>
			<note>
				<cue/>
				<pitch>
					<step>G</step>
					<octave>2</octave>
				</pitch>
				<duration>6720</duration>
				<voice>2</voice>
				<type>quarter</type>
				<stem default-y="-57.88">down</stem>
			</note>
		</measure>
		<!--==========================[2,9]=============================-->
		<measure number="9" width="216">
			<print new-system="yes">
				<staff-layout number="1">
					<staff-distance>125.000</staff-distance>
				</staff-layout>
			</print>
			<attributes>
				<staff-details number="1" print-object="yes">
				</staff-details>
			</attributes>
			<note print-lyric="no">
				<pitch>
					<step>G</step>
					<octave>3</octave>
				</pitch>
				<duration>13440</duration>
				<voice>1</voice>
				<type>half</type>
				<stem default-y="19.62">up</stem>
				<lyric number="1" justify="center" default-y="77.82">
					<syllabic>begin</syllabic>
					<text font-family="Times New Roman" font-size="10" font-weight="normal" font-style="normal" xml:lang="en">spir</text>
				</lyric>
				<lyric number="2" justify="center" default-y="61.42">
					<syllabic>middle</syllabic>
					<text font-family="Times New Roman" font-size="10" font-weight="normal" font-style="normal" xml:lang="en">gen</text>
				</lyric>
				<lyric number="3" justify="center" default-y="44.62">
					<syllabic>end</syllabic>
					<text font-family="Times New Roman" font-size="10" font-weight="normal" font-style="normal" xml:lang="en">thro'</text>
				</lyric>
			</note>
			<backup>
				<duration>13440</duration>
			</backup>
			<note>
				<cue/>
				<pitch>
					<step>C</step>
					<octave>3</octave>
				</pitch>
				<duration>26880</duration>
				<voice>2</voice>
				<type>whole</type>
				<stem>none</stem>
			</note>
			<forward>
				<duration>13440</duration>
			</forward>
			<note print-lyric="no">
				<pitch>
					<step>C</step>
					<octave>4</octave>
				</pitch>
				<duration>10080</duration>
				<voice>1</voice>
				<type>quarter</type>
				<dot/>
				<stem default-y="34.62">up</stem>
				<notations>
					<slur type="start" number="1" placement="above" orientation="over"/>
				</notations>
				<lyric number="1" justify="center" default-y="77.82">
					<syllabic>single</syllabic>
					<text font-family="Times New Roman" font-size="10" font-weight="normal" font-style="normal" xml:lang="en">it</text>
				</lyric>
				<lyric number="2" justify="center" default-y="61.42">
					<syllabic>single</syllabic>
					<text font-family="Times New Roman" font-size="10" font-weight="normal" font-style="normal" xml:lang="en">tle</text>
				</lyric>
				<lyric number="3" justify="center" default-y="44.62">
					<syllabic>single</syllabic>
					<text font-family="Times New Roman" font-size="10" font-weight="normal" font-style="normal" xml:lang="en">the</text>
				</lyric>
			</note>
			<note>
				<pitch>
					<step>G</step>
					<octave>3</octave>
				</pitch>
				<duration>3360</duration>
				<voice>1</voice>
				<type>eighth</type>
				<stem default-y="30.18">up</stem>
				<notations>
					<slur type="stop" number="1"/>
				</notations>
			</note>
		</measure>
		<!--==========================[2,10]=============================-->
		<measure number="10" width="190">
			<note print-lyric="no">
				<pitch>
					<step>G</step>
					<octave>3</octave>
				</pitch>
				<duration>13440</duration>
				<voice>1</voice>
				<type>half</type>
				<stem default-y="19.62">up</stem>
				<lyric number="1" justify="center" default-y="77.82">
					<syllabic>single</syllabic>
					<text font-family="Times New Roman" font-size="10" font-weight="normal" font-style="normal" xml:lang="en">faints</text>
				</lyric>
				<lyric number="2" justify="center" default-y="61.42">
					<syllabic>single</syllabic>
					<text font-family="Times New Roman" font-size="10" font-weight="normal" font-style="normal" xml:lang="en">rays,</text>
				</lyric>
				<lyric number="3" justify="center" default-y="44.62">
					<syllabic>single</syllabic>
					<text font-family="Times New Roman" font-size="10" font-weight="normal" font-style="normal" xml:lang="en">road</text>
				</lyric>
			</note>
			<backup>
				<duration>13440</duration>
			</backup>
			<note>
				<cue/>
				<pitch>
					<step>C</step>
					<octave>3</octave>
				</pitch>
				<duration>13440</duration>
				<voice>2</voice>
				<type>half</type>
				<stem default-y="-42.88">down</stem>
			</note>
			<forward>
				<duration>13440</duration>
			</forward>
			<note print-lyric="no">
				<pitch>
					<step>C</step>
					<octave>4</octave>
				</pitch>
				<duration>13440</duration>
				<voice>1</voice>
				<type>half</type>
				<stem default-y="-50.38">down</stem>
				<lyric number="1" justify="center" default-y="77.82">
					<syllabic>single</syllabic>
					<text font-family="Times New Roman" font-size="10" font-weight="normal" font-style="normal" xml:lang="en">To</text>
				</lyric>
				<lyric number="2" justify="center" default-y="61.42">
					<syllabic>single</syllabic>
					<text font-family="Times New Roman" font-size="10" font-weight="normal" font-style="normal" xml:lang="en">And</text>
				</lyric>
				<lyric number="3" justify="center" default-y="44.62">
					<syllabic>single</syllabic>
					<text font-family="Times New Roman" font-size="10" font-weight="normal" font-style="normal" xml:lang="en">They</text>
				</lyric>
			</note>
			<note>
				<chord/>
				<pitch>
					<step>C</step>
					<octave>3</octave>
				</pitch>
				<duration>13440</duration>
				<voice>1</voice>
				<type>half</type>
				<stem default-y="-59.83">down</stem>
			</note>
		</measure>
		<!--==========================[2,11]=============================-->
		<measure number="11" width="229">
			<note print-lyric="no">
				<pitch>
					<step>G</step>
					<octave>3</octave>
				</pitch>
				<duration>6720</duration>
				<voice>2</voice>
				<type>quarter</type>
				<stem default-y="-50.38">down</stem>
				<lyric number="1" justify="center" default-y="77.82">
					<syllabic>single</syllabic>
					<text font-family="Times New Roman" font-size="10" font-weight="normal" font-style="normal" xml:lang="en">meet</text>
				</lyric>
				<lyric number="2" justify="center" default-y="61.42">
					<syllabic>single</syllabic>
					<text font-family="Times New Roman" font-size="10" font-weight="normal" font-style="normal" xml:lang="en">seek</text>
				</lyric>
				<lyric number="3" justify="center" default-y="44.62">
					<syllabic>single</syllabic>
					<text font-family="Times New Roman" font-size="10" font-weight="normal" font-style="normal" xml:lang="en">lean</text>
				</lyric>
			</note>
			<note>
				<chord/>
				<pitch>
					<step>C</step>
					<octave>3</octave>
				</pitch>
				<duration>6720</duration>
				<voice>2</voice>
				<type>quarter</type>
				<stem default-y="-50.38">down</stem>
			</note>
			<note print-lyric="no">
				<pitch>
					<step>G</step>
					<octave>3</octave>
				</pitch>
				<duration>6720</duration>
				<voice>2</voice>
				<type>quarter</type>
				<stem default-y="-50.38">down</stem>
				<lyric number="1" justify="center" default-y="77.82">
					<syllabic>begin</syllabic>
					<text font-family="Times New Roman" font-size="10" font-weight="normal" font-style="normal" xml:lang="en">th'as</text>
				</lyric>
				<lyric number="2" justify="center" default-y="61.42">
					<syllabic>end</syllabic>
					<text font-family="Times New Roman" font-size="10" font-weight="normal" font-style="normal" xml:lang="en">
Thy</text>
				</lyric>
				<lyric number="3" justify="center" default-y="44.62">
					<syllabic>begin</syllabic>
					<text font-family="Times New Roman" font-size="10" font-weight="normal" font-style="normal" xml:lang="en">up</text>
				</lyric>
			</note>
			<note>
				<chord/>
				<pitch>
					<step>C</step>
					<octave>3</octave>
				</pitch>
				<duration>6720</duration>
				<voice>2</voice>
				<type>quarter</type>
				<stem default-y="-50.38">down</stem>
			</note>
			<note print-lyric="no">
				<pitch>
					<step>G</step>
					<octave>3</octave>
				</pitch>
				<duration>6720</duration>
				<voice>2</voice>
				<type>quarter</type>
				<stem default-y="-50.38">down</stem>
				<lyric number="1" justify="center" default-y="77.82">
					<syllabic>middle</syllabic>
					<text font-family="Times New Roman" font-size="10" font-weight="normal" font-style="normal" xml:lang="en">sem</text>
				</lyric>
				<lyric number="2" justify="center" default-y="61.42">
					<syllabic>end</syllabic>
					<text font-family="Times New Roman" font-size="10" font-weight="normal" font-style="normal" xml:lang="en">face</text>
				</lyric>
				<lyric number="3" justify="center" default-y="44.62">
					<syllabic>single</syllabic>
					<text font-family="Times New Roman" font-size="10" font-weight="normal" font-style="normal" xml:lang="en">on</text>
				</lyric>
			</note>
			<note>
				<chord/>
				<pitch>
					<step>C</step>
					<octave>3</octave>
				</pitch>
				<duration>6720</duration>
				<voice>2</voice>
				<type>quarter</type>
				<stem default-y="-50.38">down</stem>
			</note>
			<note print-lyric="no">
				<pitch>
					<step>A</step>
					<octave>3</octave>
				</pitch>
				<duration>6720</duration>
				<voice>1</voice>
				<type>quarter</type>
				<stem default-y="24.62">up</stem>
				<lyric number="1" justify="center" default-y="77.82">
					<syllabic>single</syllabic>
					<text font-family="Times New Roman" font-size="10" font-weight="normal" font-style="normal" xml:lang="en">blies</text>
				</lyric>
				<lyric number="2" justify="center" default-y="61.42">
					<syllabic>single</syllabic>
					<text font-family="Times New Roman" font-size="10" font-weight="normal" font-style="normal" xml:lang="en">and</text>
				</lyric>
				<lyric number="3" justify="center" default-y="44.62">
					<syllabic>single</syllabic>
					<text font-family="Times New Roman" font-size="10" font-weight="normal" font-style="normal" xml:lang="en">their</text>
				</lyric>
			</note>
			<backup>
				<duration>6720</duration>
			</backup>
			<note>
				<pitch>
					<step>A</step>
					<octave>3</octave>
				</pitch>
				<duration>6720</duration>
				<voice>2</voice>
				<type>quarter</type>
				<stem default-y="-35.38">down</stem>
			</note>
		</measure>
		<!--==========================[2,12]=============================-->
		<measure number="12" width="147">
			<note print-lyric="no">
				<pitch>
					<step>A</step>
					<octave>3</octave>
				</pitch>
				<duration>13440</duration>
				<voice>2</voice>
				<type>half</type>
				<stem default-y="-45.38">down</stem>
				<lyric number="1" justify="center" default-y="77.82">
					<syllabic>single</syllabic>
					<text font-family="Times New Roman" font-size="10" font-weight="normal" font-style="normal" xml:lang="en">of</text>
				</lyric>
				<lyric number="2" justify="center" default-y="61.42">
					<syllabic>single</syllabic>
					<text font-family="Times New Roman" font-size="10" font-weight="normal" font-style="normal" xml:lang="en">learn</text>
				</lyric>
				<lyric number="3" justify="center" default-y="44.62">
					<syllabic>begin</syllabic>
					<text font-family="Times New Roman" font-size="10" font-weight="normal" font-style="normal" xml:lang="en">help</text>
				</lyric>
			</note>
			<note>
				<chord/>
				<pitch>
					<step>F</step>
					<octave>3</octave>
				</pitch>
				<duration>13440</duration>
				<voice>2</voice>
				<type>half</type>
				<stem default-y="-45.38">down</stem>
			</note>
			<note print-lyric="no">
				<pitch>
					<step>G</step>
					<octave>3</octave>
				</pitch>
				<duration>13440</duration>
				<voice>1</voice>
				<type>half</type>
				<stem default-y="19.62">up</stem>
				<lyric number="1" justify="center" default-y="77.82">
					<syllabic>end</syllabic>
					<text font-family="Times New Roman" font-size="10" font-weight="normal" font-style="normal" xml:lang="en">the</text>
				</lyric>
				<lyric number="2" justify="center" default-y="61.42">
					<syllabic>single</syllabic>
					<text font-family="Times New Roman" font-size="10" font-weight="normal" font-style="normal" xml:lang="en">Thy</text>
				</lyric>
				<lyric number="3" justify="center" default-y="44.62">
					<syllabic>single</syllabic>
					<text font-family="Times New Roman" font-size="10" font-weight="normal" font-style="normal" xml:lang="en">er,</text>
				</lyric>
			</note>
			<backup>
				<duration>13440</duration>
			</backup>
			<note>
				<pitch>
					<step>G</step>
					<octave>3</octave>
				</pitch>
				<duration>13440</duration>
				<voice>2</voice>
				<type>half</type>
				<stem default-y="-40.38">down</stem>
			</note>
		</measure>
		<!--==========================[2,13]=============================-->
		<measure number="13" width="111">
			<note print-lyric="no">
				<pitch>
					<step>G</step>
					<octave>3</octave>
				</pitch>
				<duration>13440</duration>
				<voice>1</voice>
				<type>half</type>
				<stem default-y="-50.38">down</stem>
				<lyric number="1" justify="center" default-y="77.82">
					<syllabic>single</syllabic>
					<text font-family="Times New Roman" font-size="10" font-weight="normal" font-style="normal" xml:lang="en">saints.</text>
				</lyric>
				<lyric number="2" justify="center" default-y="61.42">
					<syllabic>single</syllabic>
					<text font-family="Times New Roman" font-size="10" font-weight="normal" font-style="normal" xml:lang="en">praise.</text>
				</lyric>
				<lyric number="3" justify="center" default-y="44.62">
					<syllabic>single</syllabic>
					<text font-family="Times New Roman" font-size="10" font-weight="normal" font-style="normal" xml:lang="en">
God.</text>
				</lyric>
			</note>
			<note>
				<chord/>
				<pitch>
					<step>C</step>
					<octave>3</octave>
				</pitch>
				<duration>13440</duration>
				<voice>1</voice>
				<type>half</type>
				<stem default-y="-50.38">down</stem>
			</note>
			<barline location="right">
				<repeat direction="backward" times="3"/>
			</barline>
		</measure>
	</part>
</score-partwise>
