<?xml version="1.0" encoding="UTF-8" standalone="no"?>
<!DOCTYPE score-partwise PUBLIC "-//Recordare//DTD MusicXML 2.0 Partwise//EN" "http://www.musicxml.org/dtds/partwise.dtd">
<score-partwise version="2.0">
	<work>
		<work-title>FROM EVERY PLACE
(Warren. L. M.)</work-title>
	</work>
	<identification>
		<creator type="composer">V. C. Taylor</creator>
		<creator type="poet">John Pierpont</creator>
		<encoding>
			<software>PDFtoMusic Pro v1.6.5 Build 1B9E7 (c) Myriad - http://www.myriad-online.com</software>
			<?PDFtoMusic Document type 0100- 31306BFA?>
			<supports attribute="new-system" element="print" type="yes" value="yes"/>
			<supports attribute="new-page" element="print" type="yes" value="yes"/>
		</encoding>
	</identification>
	<defaults>
		<scaling>
			<millimeters>8.239169</millimeters>
			<tenths>40</tenths>
		</scaling>
		<page-layout>
			<page-height>1440.369</page-height>
			<page-width>1019.048</page-width>
			<page-margins type="both">
				<left-margin>48.549</left-margin>
				<right-margin>48.549</right-margin>
				<top-margin>48.549</top-margin>
				 <bottom-margin>48.549</bottom-margin>
			</page-margins>
		</page-layout>
		<appearance>
			<line-width type="stem">0.7682</line-width>
			<line-width type="beam">5.0000</line-width>
			<line-width type="staff">0.7683</line-width>
			<line-width type="light barline">0.7808</line-width>
			<line-width type="heavy barline">5.0001</line-width>
			<line-width type="leger">0.7683</line-width>
		</appearance>
	</defaults>
	<credit page="1">
		<credit-words  default-x="59.762" default-y="1213.425" justify="left" valign="baseline" font-family="Times New Roman" font-size="10" font-weight="normal" font-style="normal">John Pierpont</credit-words>
	</credit>
	<credit page="1">
		<credit-words  default-x="62.962" default-y="1291.825" justify="left" valign="baseline" font-family="Times New Roman" font-size="18" font-weight="bold" font-style="normal">457</credit-words>
	</credit>
	<credit page="1">
		<credit-words  default-x="508.734" default-y="1274.225" justify="center" valign="baseline" font-family="Times New Roman" font-size="18" font-weight="normal" font-style="normal">FROM EVERY PLACE
</credit-words>
		<credit-words   justify="center" valign="baseline" font-family="Times New Roman" font-size="10" font-weight="normal" font-style="normal">(Warren. L. M.)</credit-words>
	</credit>
	<credit page="1">
		<credit-words  default-x="878.962" default-y="1213.425" justify="left" valign="baseline" font-family="Times New Roman" font-size="10" font-weight="normal" font-style="normal">V. C. Taylor</credit-words>
	</credit>
	<part-list>
		<score-part id="P1">
			<part-name></part-name>
			<score-instrument id="P1-I1">
				<instrument-name>Instrument 1</instrument-name>
			</score-instrument>
			<midi-instrument id="P1-I1">
				<midi-channel>1</midi-channel>
				<midi-bank>2</midi-bank>
				<midi-program>53</midi-program>
				<volume>50</volume>
				<pan>-90</pan>
				<elevation>0</elevation>
				<?Myriad
				<iddigit>5210</iddigit>
				?>
			</midi-instrument>
		</score-part>
		<score-part id="P2">
			<part-name></part-name>
			<score-instrument id="P2-I1">
				<instrument-name>Instrument 2</instrument-name>
			</score-instrument>
			<midi-instrument id="P2-I1">
				<midi-channel>2</midi-channel>
				<midi-bank>5</midi-bank>
				<midi-program>53</midi-program>
				<volume>50</volume>
				<pan>90</pan>
				<elevation>0</elevation>
				<?Myriad
				<iddigit>5240</iddigit>
				?>
			</midi-instrument>
		</score-part>
	</part-list>
	<part id="P1">
		<!--==========================[1,1]=============================-->
		<measure number="1" width="199">
			<print new-page="yes">
				<system-layout>
					<system-margins>
						<left-margin>11.213</left-margin>
						<right-margin>10.276</right-margin>
					</system-margins>
					<top-system-distance>208.678</top-system-distance>
				</system-layout>
			</print>
			<barline location="left">
				<repeat direction="forward"/>
			</barline>
			<attributes>
				<divisions>6720</divisions>
				<key>
					<fifths>4</fifths>
					<mode>major</mode>
				</key>
				<time>
					<beats>2</beats>
					<beat-type>2</beat-type>
				</time>
				<clef number="1">
					<sign>G</sign>
					<line>2</line>
				</clef>
				<staff-details number="1" print-object="yes">
					<staff-lines>5</staff-lines>
					<staff-size>100.00</staff-size>
				</staff-details>
			</attributes>
			<note>
				<pitch>
					<step>B</step>
					<octave>4</octave>
				</pitch>
				<duration>13440</duration>
				<voice>1</voice>
				<type>half</type>
				<stem default-y="14.62">up</stem>
				<lyric number="1" justify="right" default-y="-80.52">
					<syllabic>single</syllabic>
					<text font-family="Times New Roman" font-size="10" font-weight="normal" font-style="normal" xml:lang="en">
. O</text>
				</lyric>
				<lyric number="2" justify="right" default-y="-96.52">
					<syllabic>single</syllabic>
					<text font-family="Times New Roman" font-size="10" font-weight="normal" font-style="normal" xml:lang="en">
2. From</text>
				</lyric>
				<lyric number="3" justify="right" default-y="-113.72">
					<syllabic>single</syllabic>
					<text font-family="Times New Roman" font-size="10" font-weight="normal" font-style="normal" xml:lang="en">
3. To</text>
				</lyric>
			</note>
			<note>
				<chord/>
				<pitch>
					<step>E</step>
					<octave>4</octave>
				</pitch>
				<duration>13440</duration>
				<voice>1</voice>
				<type>half</type>
				<stem default-y="14.62">up</stem>
			</note>
		</measure>
		<!--==========================[1,2]=============================-->
		<measure number="2" width="294">
			<note>
				<pitch>
					<step>G</step>
					<alter>1</alter>
					<octave>4</octave>
				</pitch>
				<duration>6720</duration>
				<voice>1</voice>
				<type>quarter</type>
				<stem default-y="4.62">up</stem>
				<lyric number="1" justify="center" default-y="-80.52">
					<syllabic>single</syllabic>
					<text font-family="Times New Roman" font-size="10" font-weight="normal" font-style="normal" xml:lang="en">Thou</text>
				</lyric>
				<lyric number="2" justify="center" default-y="-96.92">
					<syllabic>begin</syllabic>
					<text font-family="Times New Roman" font-size="10" font-weight="normal" font-style="normal" xml:lang="en">ev</text>
				</lyric>
				<lyric number="3" justify="center" default-y="-113.72">
					<syllabic>end</syllabic>
					<text font-family="Times New Roman" font-size="10" font-weight="normal" font-style="normal" xml:lang="en">Thee</text>
				</lyric>
			</note>
			<note>
				<chord/>
				<pitch>
					<step>E</step>
					<octave>4</octave>
				</pitch>
				<duration>6720</duration>
				<voice>1</voice>
				<type>quarter</type>
				<stem default-y="4.62">up</stem>
			</note>
			<note>
				<pitch>
					<step>G</step>
					<alter>1</alter>
					<octave>4</octave>
				</pitch>
				<duration>6720</duration>
				<voice>1</voice>
				<type>quarter</type>
				<stem default-y="4.62">up</stem>
				<lyric number="1" justify="center" default-y="-80.52">
					<syllabic>single</syllabic>
					<text font-family="Times New Roman" font-size="10" font-weight="normal" font-style="normal" xml:lang="en">to</text>
				</lyric>
				<lyric number="2" justify="center" default-y="-96.92">
					<syllabic>single</syllabic>
					<text font-family="Times New Roman" font-size="10" font-weight="normal" font-style="normal" xml:lang="en">'ry</text>
				</lyric>
				<lyric number="3" justify="center" default-y="-113.72">
					<syllabic>single</syllabic>
					<text font-family="Times New Roman" font-size="10" font-weight="normal" font-style="normal" xml:lang="en">shall</text>
				</lyric>
			</note>
			<note>
				<chord/>
				<pitch>
					<step>E</step>
					<octave>4</octave>
				</pitch>
				<duration>6720</duration>
				<voice>1</voice>
				<type>quarter</type>
				<stem default-y="4.62">up</stem>
			</note>
			<note>
				<pitch>
					<step>G</step>
					<alter>1</alter>
					<octave>4</octave>
				</pitch>
				<duration>6720</duration>
				<voice>1</voice>
				<type>quarter</type>
				<stem default-y="4.62">up</stem>
				<lyric number="1" justify="center" default-y="-80.52">
					<syllabic>single</syllabic>
					<text font-family="Times New Roman" font-size="10" font-weight="normal" font-style="normal" xml:lang="en">whom,</text>
				</lyric>
				<lyric number="2" justify="center" default-y="-96.92">
					<syllabic>single</syllabic>
					<text font-family="Times New Roman" font-size="10" font-weight="normal" font-style="normal" xml:lang="en">place</text>
				</lyric>
				<lyric number="3" justify="center" default-y="-113.72">
					<syllabic>single</syllabic>
					<text font-family="Times New Roman" font-size="10" font-weight="normal" font-style="normal" xml:lang="en">age,</text>
				</lyric>
			</note>
			<note>
				<chord/>
				<pitch>
					<step>E</step>
					<octave>4</octave>
				</pitch>
				<duration>6720</duration>
				<voice>1</voice>
				<type>quarter</type>
				<stem default-y="4.62">up</stem>
			</note>
			<note>
				<pitch>
					<step>F</step>
					<alter>1</alter>
					<octave>4</octave>
				</pitch>
				<duration>6720</duration>
				<voice>1</voice>
				<type>quarter</type>
				<stem default-y="-0.38">up</stem>
				<lyric number="1" justify="center" default-y="-80.52">
					<syllabic>single</syllabic>
					<text font-family="Times New Roman" font-size="10" font-weight="normal" font-style="normal" xml:lang="en">in</text>
				</lyric>
				<lyric number="2" justify="center" default-y="-96.92">
					<syllabic>begin</syllabic>
					<text font-family="Times New Roman" font-size="10" font-weight="normal" font-style="normal" xml:lang="en">be</text>
				</lyric>
				<lyric number="3" justify="center" default-y="-113.72">
					<syllabic>end</syllabic>
					<text font-family="Times New Roman" font-size="10" font-weight="normal" font-style="normal" xml:lang="en">with</text>
				</lyric>
			</note>
			<note>
				<chord/>
				<pitch>
					<step>D</step>
					<alter>1</alter>
					<octave>4</octave>
				</pitch>
				<duration>6720</duration>
				<voice>1</voice>
				<type>quarter</type>
				<stem default-y="-0.38">up</stem>
			</note>
		</measure>
		<!--==========================[1,3]=============================-->
		<measure number="3" width="220">
			<note>
				<pitch>
					<step>E</step>
					<octave>4</octave>
				</pitch>
				<duration>13440</duration>
				<voice>1</voice>
				<type>half</type>
				<stem default-y="-5.38">up</stem>
				<lyric number="1" justify="center" default-y="-80.52">
					<syllabic>begin</syllabic>
					<text font-family="Times New Roman" font-size="10" font-weight="normal" font-style="normal" xml:lang="en">an</text>
				</lyric>
				<lyric number="2" justify="center" default-y="-96.92">
					<syllabic>end</syllabic>
					<text font-family="Times New Roman" font-size="10" font-weight="normal" font-style="normal" xml:lang="en">low</text>
				</lyric>
				<lyric number="3" justify="center" default-y="-113.72">
					<syllabic>begin</syllabic>
					<text font-family="Times New Roman" font-size="10" font-weight="normal" font-style="normal" xml:lang="en">snow</text>
				</lyric>
			</note>
			<backup>
				<duration>13440</duration>
			</backup>
			<note>
				<pitch>
					<step>E</step>
					<octave>4</octave>
				</pitch>
				<duration>13440</duration>
				<voice>2</voice>
				<type>half</type>
				<stem default-y="-65.38">down</stem>
			</note>
			<note>
				<pitch>
					<step>F</step>
					<alter>1</alter>
					<octave>4</octave>
				</pitch>
				<duration>13440</duration>
				<voice>1</voice>
				<type>half</type>
				<stem default-y="-0.38">up</stem>
				<lyric number="1" justify="center" default-y="-80.52">
					<syllabic>end</syllabic>
					<text font-family="Times New Roman" font-size="10" font-weight="normal" font-style="normal" xml:lang="en">cient</text>
				</lyric>
				<lyric number="2" justify="center" default-y="-96.92">
					<syllabic>single</syllabic>
					<text font-family="Times New Roman" font-size="10" font-weight="normal" font-style="normal" xml:lang="en">the</text>
				</lyric>
				<lyric number="3" justify="center" default-y="-113.72">
					<syllabic>single</syllabic>
					<text font-family="Times New Roman" font-size="10" font-weight="normal" font-style="normal" xml:lang="en">y</text>
				</lyric>
			</note>
			<note>
				<chord/>
				<pitch>
					<step>D</step>
					<alter>1</alter>
					<octave>4</octave>
				</pitch>
				<duration>13440</duration>
				<voice>1</voice>
				<type>half</type>
				<stem default-y="-0.38">up</stem>
			</note>
		</measure>
		<!--==========================[1,4]=============================-->
		<measure number="4" width="186">
			<note>
				<pitch>
					<step>G</step>
					<alter>1</alter>
					<octave>4</octave>
				</pitch>
				<duration>26880</duration>
				<voice>1</voice>
				<type>whole</type>
				<stem>none</stem>
				<lyric number="1" justify="center" default-y="-80.52">
					<syllabic>single</syllabic>
					<text font-family="Times New Roman" font-size="10" font-weight="normal" font-style="normal" xml:lang="en">time,</text>
				</lyric>
				<lyric number="2" justify="center" default-y="-96.92">
					<syllabic>single</syllabic>
					<text font-family="Times New Roman" font-size="10" font-weight="normal" font-style="normal" xml:lang="en">skies,</text>
				</lyric>
				<lyric number="3" justify="center" default-y="-113.72">
					<syllabic>single</syllabic>
					<text font-family="Times New Roman" font-size="10" font-weight="normal" font-style="normal" xml:lang="en">hair,</text>
				</lyric>
			</note>
			<note>
				<chord/>
				<pitch>
					<step>E</step>
					<octave>4</octave>
				</pitch>
				<duration>26880</duration>
				<voice>1</voice>
				<type>whole</type>
				<stem>none</stem>
			</note>
		</measure>
		<!--==========================[1,5]=============================-->
		<measure number="5" width="375">
			<print new-system="yes">
				<system-layout>
					<system-margins>
						<left-margin>11.213</left-margin>
						<right-margin>15.414</right-margin>
					</system-margins>
					<system-distance>83.333</system-distance>
				</system-layout>
			</print>
			<attributes>
				<staff-details number="1" print-object="yes">
				</staff-details>
			</attributes>
			<note>
				<pitch>
					<step>E</step>
					<octave>5</octave>
				</pitch>
				<duration>13440</duration>
				<voice>2</voice>
				<type>half</type>
				<stem default-y="-55.38">down</stem>
				<lyric number="1" justify="center" default-y="-80.25">
					<syllabic>single</syllabic>
					<text font-family="Times New Roman" font-size="10" font-weight="normal" font-style="normal" xml:lang="en">
The</text>
				</lyric>
				<lyric number="2" justify="center" default-y="-97.05">
					<syllabic>single</syllabic>
					<text font-family="Times New Roman" font-size="10" font-weight="normal" font-style="normal" xml:lang="en">
The</text>
				</lyric>
				<lyric number="3" justify="center" default-y="-113.85">
					<syllabic>single</syllabic>
					<text font-family="Times New Roman" font-size="10" font-weight="normal" font-style="normal" xml:lang="en">
And</text>
				</lyric>
			</note>
			<note>
				<chord/>
				<pitch>
					<step>G</step>
					<alter>1</alter>
					<octave>4</octave>
				</pitch>
				<duration>13440</duration>
				<voice>2</voice>
				<type>half</type>
				<stem default-y="-55.38">down</stem>
			</note>
			<note>
				<pitch>
					<step>D</step>
					<alter>1</alter>
					<octave>5</octave>
				</pitch>
				<duration>3360</duration>
				<voice>1</voice>
				<type>eighth</type>
				<stem default-y="22.12">up</stem>
				<beam number="1">begin</beam>
				<lyric number="1" justify="center" default-y="-80.25">
					<syllabic>begin</syllabic>
					<text font-family="Times New Roman" font-size="10" font-weight="normal" font-style="normal" xml:lang="en">psalm</text>
				</lyric>
				<lyric number="2" justify="center" default-y="-97.05">
					<syllabic>middle</syllabic>
					<text font-family="Times New Roman" font-size="10" font-weight="normal" font-style="normal" xml:lang="en">grate</text>
				</lyric>
				<lyric number="3" justify="center" default-y="-113.85">
					<syllabic>end</syllabic>
					<text font-family="Times New Roman" font-size="10" font-weight="normal" font-style="normal" xml:lang="en">strength,</text>
				</lyric>
			</note>
			<note>
				<pitch>
					<step>C</step>
					<alter>1</alter>
					<octave>5</octave>
				</pitch>
				<duration>3360</duration>
				<voice>1</voice>
				<type>eighth</type>
				<stem default-y="17.17">up</stem>
				<beam number="1">end</beam>
			</note>
			<backup>
				<duration>6720</duration>
			</backup>
			<note>
				<pitch>
					<step>A</step>
					<octave>4</octave>
				</pitch>
				<duration>6720</duration>
				<voice>2</voice>
				<type>quarter</type>
				<stem default-y="-50.38">down</stem>
			</note>
			<note>
				<pitch>
					<step>B</step>
					<octave>4</octave>
				</pitch>
				<duration>3360</duration>
				<voice>1</voice>
				<type>eighth</type>
				<stem default-y="12.12">up</stem>
				<beam number="1">begin</beam>
				<lyric number="1" justify="center" default-y="-80.25">
					<syllabic>single</syllabic>
					<text font-family="Times New Roman" font-size="10" font-weight="normal" font-style="normal" xml:lang="en">ist's</text>
				</lyric>
				<lyric number="2" justify="center" default-y="-97.05">
					<syllabic>single</syllabic>
					<text font-family="Times New Roman" font-size="10" font-weight="normal" font-style="normal" xml:lang="en">ful</text>
				</lyric>
				<lyric number="3" justify="center" default-y="-113.85">
					<syllabic>single</syllabic>
					<text font-family="Times New Roman" font-size="10" font-weight="normal" font-style="normal" xml:lang="en">and</text>
				</lyric>
			</note>
			<note>
				<chord/>
				<pitch>
					<step>G</step>
					<alter>1</alter>
					<octave>4</octave>
				</pitch>
				<duration>3360</duration>
				<voice>1</voice>
				<type>eighth</type>
				<stem default-y="12.12">up</stem>
			</note>
			<note>
				<pitch>
					<step>A</step>
					<octave>4</octave>
				</pitch>
				<duration>3360</duration>
				<voice>1</voice>
				<type>eighth</type>
				<stem default-y="7.16">up</stem>
				<beam number="1">end</beam>
			</note>
			<note>
				<chord/>
				<pitch>
					<step>F</step>
					<alter>1</alter>
					<octave>4</octave>
				</pitch>
				<duration>3360</duration>
				<voice>1</voice>
				<type>eighth</type>
				<stem default-y="7.16">up</stem>
			</note>
		</measure>
		<!--==========================[1,6]=============================-->
		<measure number="6" width="232">
			<note>
				<pitch>
					<step>G</step>
					<alter>1</alter>
					<octave>4</octave>
				</pitch>
				<duration>10080</duration>
				<voice>1</voice>
				<type>quarter</type>
				<dot/>
				<stem default-y="4.62">up</stem>
				<notations>
					<slur type="start" number="1" placement="above" orientation="over"/>
				</notations>
				<lyric number="1" justify="center" default-y="-80.25">
					<syllabic>begin</syllabic>
					<text font-family="Times New Roman" font-size="10" font-weight="normal" font-style="normal" xml:lang="en">sa</text>
				</lyric>
				<lyric number="2" justify="center" default-y="-97.05">
					<syllabic>end</syllabic>
					<text font-family="Times New Roman" font-size="10" font-weight="normal" font-style="normal" xml:lang="en">song,</text>
				</lyric>
				<lyric number="3" justify="center" default-y="-113.85">
					<syllabic>begin</syllabic>
					<text font-family="Times New Roman" font-size="10" font-weight="normal" font-style="normal" xml:lang="en">beau</text>
				</lyric>
			</note>
			<backup>
				<duration>10080</duration>
			</backup>
			<note>
				<pitch>
					<step>E</step>
					<octave>4</octave>
				</pitch>
				<duration>20160</duration>
				<voice>2</voice>
				<type>half</type>
				<dot/>
				<stem default-y="-65.38">down</stem>
			</note>
			<backup>
				<duration>10080</duration>
			</backup>
			<note>
				<pitch>
					<step>A</step>
					<octave>4</octave>
				</pitch>
				<duration>3360</duration>
				<voice>1</voice>
				<type>eighth</type>
				<stem default-y="10.51">up</stem>
			</note>
			<note>
				<pitch>
					<step>B</step>
					<octave>4</octave>
				</pitch>
				<duration>6720</duration>
				<voice>1</voice>
				<type>quarter</type>
				<stem default-y="14.62">up</stem>
				<notations>
					<slur type="stop" number="1"/>
				</notations>
			</note>
			<note>
				<pitch>
					<step>A</step>
					<octave>4</octave>
				</pitch>
				<duration>6720</duration>
				<voice>1</voice>
				<type>quarter</type>
				<stem default-y="9.62">up</stem>
				<lyric number="1" justify="center" default-y="-80.25">
					<syllabic>end</syllabic>
					<text font-family="Times New Roman" font-size="10" font-weight="normal" font-style="normal" xml:lang="en">cred</text>
				</lyric>
				<lyric number="2" justify="center" default-y="-97.05">
					<syllabic>single</syllabic>
					<text font-family="Times New Roman" font-size="10" font-weight="normal" font-style="normal" xml:lang="en">the</text>
				</lyric>
				<lyric number="3" justify="center" default-y="-113.85">
					<syllabic>single</syllabic>
					<text font-family="Times New Roman" font-size="10" font-weight="normal" font-style="normal" xml:lang="en">ty,</text>
				</lyric>
			</note>
			<note>
				<chord/>
				<pitch>
					<step>F</step>
					<alter>1</alter>
					<octave>4</octave>
				</pitch>
				<duration>6720</duration>
				<voice>1</voice>
				<type>quarter</type>
				<stem default-y="9.62">up</stem>
			</note>
		</measure>
		<!--==========================[1,7]=============================-->
		<measure number="7" width="171">
			<note>
				<pitch>
					<step>G</step>
					<alter>1</alter>
					<octave>4</octave>
				</pitch>
				<duration>13440</duration>
				<voice>1</voice>
				<type>half</type>
				<stem default-y="4.62">up</stem>
				<lyric number="1" justify="center" default-y="-80.25">
					<syllabic>single</syllabic>
					<text font-family="Times New Roman" font-size="10" font-weight="normal" font-style="normal" xml:lang="en">harp</text>
				</lyric>
				<lyric number="2" justify="center" default-y="-97.05">
					<syllabic>begin</syllabic>
					<text font-family="Times New Roman" font-size="10" font-weight="normal" font-style="normal" xml:lang="en">fer</text>
				</lyric>
				<lyric number="3" justify="center" default-y="-113.85">
					<syllabic>end</syllabic>
					<text font-family="Times New Roman" font-size="10" font-weight="normal" font-style="normal" xml:lang="en">bend</text>
				</lyric>
			</note>
			<note>
				<chord/>
				<pitch>
					<step>E</step>
					<octave>4</octave>
				</pitch>
				<duration>13440</duration>
				<voice>1</voice>
				<type>half</type>
				<stem default-y="4.62">up</stem>
			</note>
			<note>
				<pitch>
					<step>F</step>
					<alter>1</alter>
					<octave>4</octave>
				</pitch>
				<duration>13440</duration>
				<voice>1</voice>
				<type>half</type>
				<stem default-y="-0.38">up</stem>
				<lyric number="1" justify="center" default-y="-80.25">
					<syllabic>single</syllabic>
					<text font-family="Times New Roman" font-size="10" font-weight="normal" font-style="normal" xml:lang="en">was</text>
				</lyric>
				<lyric number="2" justify="center" default-y="-97.05">
					<syllabic>single</syllabic>
					<text font-family="Times New Roman" font-size="10" font-weight="normal" font-style="normal" xml:lang="en">vent</text>
				</lyric>
				<lyric number="3" justify="center" default-y="-113.85">
					<syllabic>single</syllabic>
					<text font-family="Times New Roman" font-size="10" font-weight="normal" font-style="normal" xml:lang="en">the</text>
				</lyric>
			</note>
			<note>
				<chord/>
				<pitch>
					<step>D</step>
					<alter>1</alter>
					<octave>4</octave>
				</pitch>
				<duration>13440</duration>
				<voice>1</voice>
				<type>half</type>
				<stem default-y="-0.38">up</stem>
			</note>
		</measure>
		<!--==========================[1,8]=============================-->
		<measure number="8" width="115">
			<note>
				<pitch>
					<step>E</step>
					<octave>4</octave>
				</pitch>
				<duration>13440</duration>
				<voice>1</voice>
				<type>half</type>
				<stem default-y="-5.38">up</stem>
				<notations>
					<fermata type="upright" relative-x="-4.26" relative-y="12.54"/>
				</notations>
				<lyric number="1" justify="center" default-y="-80.25">
					<syllabic>single</syllabic>
					<text font-family="Times New Roman" font-size="10" font-weight="normal" font-style="normal" xml:lang="en">strung,</text>
				</lyric>
				<lyric number="2" justify="center" default-y="-97.05">
					<syllabic>single</syllabic>
					<text font-family="Times New Roman" font-size="10" font-weight="normal" font-style="normal" xml:lang="en">prayer—</text>
				</lyric>
				<lyric number="3" justify="center" default-y="-113.85">
					<syllabic>single</syllabic>
					<text font-family="Times New Roman" font-size="10" font-weight="normal" font-style="normal" xml:lang="en">knee,</text>
				</lyric>
			</note>
			<backup>
				<duration>13440</duration>
			</backup>
			<note>
				<pitch>
					<step>E</step>
					<octave>4</octave>
				</pitch>
				<duration>13440</duration>
				<voice>2</voice>
				<type>half</type>
				<stem default-y="-65.38">down</stem>
			</note>
			<barline location="right">
				<bar-style>heavy</bar-style>
			</barline>
		</measure>
		<!--==========================[1,9]=============================-->
		<measure number="9" width="203">
			<print new-system="yes">
				<system-layout>
					<system-margins>
						<left-margin>11.213</left-margin>
						<right-margin>10.276</right-margin>
					</system-margins>
					<system-distance>91.666</system-distance>
				</system-layout>
			</print>
			<attributes>
				<staff-details number="1" print-object="yes">
				</staff-details>
			</attributes>
			<note>
				<pitch>
					<step>F</step>
					<alter>1</alter>
					<octave>4</octave>
				</pitch>
				<duration>13440</duration>
				<voice>1</voice>
				<type>half</type>
				<stem default-y="-0.38">up</stem>
				<lyric number="1" justify="center" default-y="-72.05">
					<syllabic>single</syllabic>
					<text font-family="Times New Roman" font-size="10" font-weight="normal" font-style="normal" xml:lang="en">
Whom</text>
				</lyric>
				<lyric number="2" justify="center" default-y="-88.85">
					<syllabic>single</syllabic>
					<text font-family="Times New Roman" font-size="10" font-weight="normal" font-style="normal" xml:lang="en">
The</text>
				</lyric>
				<lyric number="3" justify="center" default-y="-105.25">
					<syllabic>single</syllabic>
					<text font-family="Times New Roman" font-size="10" font-weight="normal" font-style="normal" xml:lang="en">
And</text>
				</lyric>
			</note>
			<note>
				<chord/>
				<pitch>
					<step>D</step>
					<alter>1</alter>
					<octave>4</octave>
				</pitch>
				<duration>13440</duration>
				<voice>1</voice>
				<type>half</type>
				<stem default-y="-0.38">up</stem>
			</note>
		</measure>
		<!--==========================[1,10]=============================-->
		<measure number="10" width="302">
			<note>
				<pitch>
					<step>F</step>
					<alter>1</alter>
					<octave>4</octave>
				</pitch>
				<duration>6720</duration>
				<voice>1</voice>
				<type>quarter</type>
				<stem default-y="-0.38">up</stem>
				<lyric number="1" justify="center" default-y="-72.05">
					<syllabic>single</syllabic>
					<text font-family="Times New Roman" font-size="10" font-weight="normal" font-style="normal" xml:lang="en">kings</text>
				</lyric>
				<lyric number="2" justify="center" default-y="-88.85">
					<syllabic>begin</syllabic>
					<text font-family="Times New Roman" font-size="10" font-weight="normal" font-style="normal" xml:lang="en">in</text>
				</lyric>
				<lyric number="3" justify="center" default-y="-105.25">
					<syllabic>middle</syllabic>
					<text font-family="Times New Roman" font-size="10" font-weight="normal" font-style="normal" xml:lang="en">child</text>
				</lyric>
			</note>
			<note>
				<chord/>
				<pitch>
					<step>D</step>
					<alter>1</alter>
					<octave>4</octave>
				</pitch>
				<duration>6720</duration>
				<voice>1</voice>
				<type>quarter</type>
				<stem default-y="-0.38">up</stem>
			</note>
			<note>
				<pitch>
					<step>F</step>
					<alter>1</alter>
					<octave>4</octave>
				</pitch>
				<duration>6720</duration>
				<voice>1</voice>
				<type>quarter</type>
				<stem default-y="-0.38">up</stem>
				<lyric number="1" justify="center" default-y="-72.05">
					<syllabic>middle</syllabic>
					<text font-family="Times New Roman" font-size="10" font-weight="normal" font-style="normal" xml:lang="en">a</text>
				</lyric>
				<lyric number="2" justify="center" default-y="-88.85">
					<syllabic>end</syllabic>
					<text font-family="Times New Roman" font-size="10" font-weight="normal" font-style="normal" xml:lang="en">cense</text>
				</lyric>
				<lyric number="3" justify="center" default-y="-105.25">
					<syllabic>single</syllabic>
					<text font-family="Times New Roman" font-size="10" font-weight="normal" font-style="normal" xml:lang="en">hood</text>
				</lyric>
			</note>
			<note>
				<chord/>
				<pitch>
					<step>D</step>
					<alter>1</alter>
					<octave>4</octave>
				</pitch>
				<duration>6720</duration>
				<voice>1</voice>
				<type>quarter</type>
				<stem default-y="-0.38">up</stem>
			</note>
			<note>
				<pitch>
					<step>G</step>
					<alter>1</alter>
					<octave>4</octave>
				</pitch>
				<duration>6720</duration>
				<voice>1</voice>
				<type>quarter</type>
				<stem default-y="4.62">up</stem>
				<lyric number="1" justify="center" default-y="-72.05">
					<syllabic>single</syllabic>
					<text font-family="Times New Roman" font-size="10" font-weight="normal" font-style="normal" xml:lang="en">dored</text>
				</lyric>
				<lyric number="2" justify="center" default-y="-88.85">
					<syllabic>single</syllabic>
					<text font-family="Times New Roman" font-size="10" font-weight="normal" font-style="normal" xml:lang="en">of</text>
				</lyric>
				<lyric number="3" justify="center" default-y="-105.25">
					<syllabic>single</syllabic>
					<text font-family="Times New Roman" font-size="10" font-weight="normal" font-style="normal" xml:lang="en">lisp</text>
				</lyric>
			</note>
			<note>
				<chord/>
				<pitch>
					<step>E</step>
					<octave>4</octave>
				</pitch>
				<duration>6720</duration>
				<voice>1</voice>
				<type>quarter</type>
				<stem default-y="4.62">up</stem>
			</note>
			<note>
				<pitch>
					<step>G</step>
					<alter>1</alter>
					<octave>4</octave>
				</pitch>
				<duration>6720</duration>
				<voice>1</voice>
				<type>quarter</type>
				<stem default-y="4.62">up</stem>
				<lyric number="1" justify="center" default-y="-72.05">
					<syllabic>single</syllabic>
					<text font-family="Times New Roman" font-size="10" font-weight="normal" font-style="normal" xml:lang="en">in</text>
				</lyric>
				<lyric number="2" justify="center" default-y="-88.85">
					<syllabic>single</syllabic>
					<text font-family="Times New Roman" font-size="10" font-weight="normal" font-style="normal" xml:lang="en">the</text>
				</lyric>
				<lyric number="3" justify="center" default-y="-105.25">
					<syllabic>single</syllabic>
					<text font-family="Times New Roman" font-size="10" font-weight="normal" font-style="normal" xml:lang="en">with</text>
				</lyric>
			</note>
			<note>
				<chord/>
				<pitch>
					<step>E</step>
					<octave>4</octave>
				</pitch>
				<duration>6720</duration>
				<voice>1</voice>
				<type>quarter</type>
				<stem default-y="4.62">up</stem>
			</note>
		</measure>
		<!--==========================[1,11]=============================-->
		<measure number="11" width="205">
			<note>
				<pitch>
					<step>B</step>
					<octave>4</octave>
				</pitch>
				<duration>13440</duration>
				<voice>1</voice>
				<type>half</type>
				<stem default-y="14.62">up</stem>
				<lyric number="1" justify="center" default-y="-72.05">
					<syllabic>single</syllabic>
					<text font-family="Times New Roman" font-size="10" font-weight="normal" font-style="normal" xml:lang="en">songs</text>
				</lyric>
				<lyric number="2" justify="center" default-y="-88.85">
					<syllabic>single</syllabic>
					<text font-family="Times New Roman" font-size="10" font-weight="normal" font-style="normal" xml:lang="en">heart—</text>
				</lyric>
				<lyric number="3" justify="center" default-y="-105.25">
					<syllabic>begin</syllabic>
					<text font-family="Times New Roman" font-size="10" font-weight="normal" font-style="normal" xml:lang="en">rev</text>
				</lyric>
			</note>
			<note>
				<chord/>
				<pitch>
					<step>E</step>
					<octave>4</octave>
				</pitch>
				<duration>13440</duration>
				<voice>1</voice>
				<type>half</type>
				<stem default-y="14.62">up</stem>
			</note>
			<note>
				<pitch>
					<step>G</step>
					<alter>1</alter>
					<octave>4</octave>
				</pitch>
				<duration>13440</duration>
				<voice>1</voice>
				<type>half</type>
				<stem default-y="4.62">up</stem>
				<lyric number="1" justify="center" default-y="-72.05">
					<syllabic>middle</syllabic>
					<text font-family="Times New Roman" font-size="10" font-weight="normal" font-style="normal" xml:lang="en">sub</text>
				</lyric>
				<lyric number="2" justify="center" default-y="-88.85">
					<syllabic>end</syllabic>
					<text font-family="Times New Roman" font-size="10" font-weight="normal" font-style="normal" xml:lang="en">may</text>
				</lyric>
				<lyric number="3" justify="center" default-y="-105.25">
					<syllabic>single</syllabic>
					<text font-family="Times New Roman" font-size="10" font-weight="normal" font-style="normal" xml:lang="en">'rent</text>
				</lyric>
			</note>
			<note>
				<chord/>
				<pitch>
					<step>E</step>
					<octave>4</octave>
				</pitch>
				<duration>13440</duration>
				<voice>1</voice>
				<type>half</type>
				<stem default-y="4.62">up</stem>
			</note>
		</measure>
		<!--==========================[1,12]=============================-->
		<measure number="12" width="189">
			<note>
				<pitch>
					<step>F</step>
					<alter>1</alter>
					<octave>4</octave>
				</pitch>
				<duration>26880</duration>
				<voice>1</voice>
				<type>whole</type>
				<stem>none</stem>
				<lyric number="1" justify="center" default-y="-72.05">
					<syllabic>single</syllabic>
					<text font-family="Times New Roman" font-size="10" font-weight="normal" font-style="normal" xml:lang="en">lime,</text>
				</lyric>
				<lyric number="2" justify="center" default-y="-88.85">
					<syllabic>single</syllabic>
					<text font-family="Times New Roman" font-size="10" font-weight="normal" font-style="normal" xml:lang="en">rise</text>
				</lyric>
				<lyric number="3" justify="center" default-y="-105.25">
					<syllabic>single</syllabic>
					<text font-family="Times New Roman" font-size="10" font-weight="normal" font-style="normal" xml:lang="en">air</text>
				</lyric>
			</note>
			<note>
				<chord/>
				<pitch>
					<step>D</step>
					<alter>1</alter>
					<octave>4</octave>
				</pitch>
				<duration>26880</duration>
				<voice>1</voice>
				<type>whole</type>
				<stem>none</stem>
			</note>
		</measure>
		<!--==========================[1,13]=============================-->
		<measure number="13" width="382">
			<print new-system="yes">
				<system-layout>
					<system-margins>
						<left-margin>11.213</left-margin>
						<right-margin>15.414</right-margin>
					</system-margins>
					<system-distance>100.000</system-distance>
				</system-layout>
			</print>
			<attributes>
				<staff-details number="1" print-object="yes">
				</staff-details>
			</attributes>
			<note>
				<pitch>
					<step>E</step>
					<octave>5</octave>
				</pitch>
				<duration>13440</duration>
				<voice>1</voice>
				<type>half</type>
				<stem default-y="-55.38">down</stem>
				<lyric number="1" justify="center" default-y="-80.25">
					<syllabic>single</syllabic>
					<text font-family="Times New Roman" font-size="10" font-weight="normal" font-style="normal" xml:lang="en">
And</text>
				</lyric>
				<lyric number="2" justify="center" default-y="-97.05">
					<syllabic>single</syllabic>
					<text font-family="Times New Roman" font-size="10" font-weight="normal" font-style="normal" xml:lang="en">
To</text>
				</lyric>
				<lyric number="3" justify="center" default-y="-113.85">
					<syllabic>single</syllabic>
					<text font-family="Times New Roman" font-size="10" font-weight="normal" font-style="normal" xml:lang="en">
Its</text>
				</lyric>
			</note>
			<note>
				<chord/>
				<pitch>
					<step>G</step>
					<alter>1</alter>
					<octave>4</octave>
				</pitch>
				<duration>13440</duration>
				<voice>1</voice>
				<type>half</type>
				<stem default-y="-55.38">down</stem>
			</note>
			<note>
				<pitch>
					<step>B</step>
					<octave>4</octave>
				</pitch>
				<duration>3360</duration>
				<voice>1</voice>
				<type>eighth</type>
				<stem default-y="12.16">up</stem>
				<beam number="1">begin</beam>
				<lyric number="1" justify="center" default-y="-80.25">
					<syllabic>begin</syllabic>
					<text font-family="Times New Roman" font-size="10" font-weight="normal" font-style="normal" xml:lang="en">pro</text>
				</lyric>
				<lyric number="2" justify="center" default-y="-97.05">
					<syllabic>end</syllabic>
					<text font-family="Times New Roman" font-size="10" font-weight="normal" font-style="normal" xml:lang="en">heav'n,</text>
				</lyric>
				<lyric number="3" justify="center" default-y="-113.85">
					<syllabic>begin</syllabic>
					<text font-family="Times New Roman" font-size="10" font-weight="normal" font-style="normal" xml:lang="en">prais</text>
				</lyric>
			</note>
			<note>
				<chord/>
				<pitch>
					<step>G</step>
					<alter>1</alter>
					<octave>4</octave>
				</pitch>
				<duration>3360</duration>
				<voice>1</voice>
				<type>eighth</type>
				<stem default-y="12.16">up</stem>
			</note>
			<note>
				<pitch>
					<step>C</step>
					<alter>1</alter>
					<octave>5</octave>
				</pitch>
				<duration>3360</duration>
				<voice>1</voice>
				<type>eighth</type>
				<stem default-y="17.12">up</stem>
				<beam number="1">end</beam>
			</note>
			<note>
				<chord/>
				<pitch>
					<step>A</step>
					<octave>4</octave>
				</pitch>
				<duration>3360</duration>
				<voice>1</voice>
				<type>eighth</type>
				<stem default-y="17.12">up</stem>
			</note>
			<note>
				<pitch>
					<step>B</step>
					<octave>4</octave>
				</pitch>
				<duration>3360</duration>
				<voice>1</voice>
				<type>eighth</type>
				<stem default-y="12.12">up</stem>
				<beam number="1">begin</beam>
				<lyric number="1" justify="center" default-y="-80.25">
					<syllabic>end</syllabic>
					<text font-family="Times New Roman" font-size="10" font-weight="normal" font-style="normal" xml:lang="en">phets</text>
				</lyric>
				<lyric number="2" justify="center" default-y="-97.05">
					<syllabic>single</syllabic>
					<text font-family="Times New Roman" font-size="10" font-weight="normal" font-style="normal" xml:lang="en">and</text>
				</lyric>
				<lyric number="3" justify="center" default-y="-113.85">
					<syllabic>single</syllabic>
					<text font-family="Times New Roman" font-size="10" font-weight="normal" font-style="normal" xml:lang="en">es</text>
				</lyric>
			</note>
			<note>
				<chord/>
				<pitch>
					<step>G</step>
					<alter>1</alter>
					<octave>4</octave>
				</pitch>
				<duration>3360</duration>
				<voice>1</voice>
				<type>eighth</type>
				<stem default-y="12.12">up</stem>
			</note>
			<note>
				<pitch>
					<step>A</step>
					<octave>4</octave>
				</pitch>
				<duration>3360</duration>
				<voice>1</voice>
				<type>eighth</type>
				<stem default-y="7.15">up</stem>
				<beam number="1">end</beam>
			</note>
			<note>
				<chord/>
				<pitch>
					<step>F</step>
					<alter>1</alter>
					<octave>4</octave>
				</pitch>
				<duration>3360</duration>
				<voice>1</voice>
				<type>eighth</type>
				<stem default-y="7.15">up</stem>
			</note>
		</measure>
		<!--==========================[1,14]=============================-->
		<measure number="14" width="209">
			<note>
				<pitch>
					<step>G</step>
					<alter>1</alter>
					<octave>4</octave>
				</pitch>
				<duration>10080</duration>
				<voice>1</voice>
				<type>quarter</type>
				<dot/>
				<stem default-y="4.62">up</stem>
				<notations>
					<slur type="start" number="1" placement="above" orientation="over"/>
				</notations>
				<lyric number="1" justify="center" default-y="-80.25">
					<syllabic>single</syllabic>
					<text font-family="Times New Roman" font-size="10" font-weight="normal" font-style="normal" xml:lang="en">praised</text>
				</lyric>
				<lyric number="2" justify="center" default-y="-97.05">
					<syllabic>single</syllabic>
					<text font-family="Times New Roman" font-size="10" font-weight="normal" font-style="normal" xml:lang="en">find</text>
				</lyric>
				<lyric number="3" justify="center" default-y="-113.85">
					<syllabic>single</syllabic>
					<text font-family="Times New Roman" font-size="10" font-weight="normal" font-style="normal" xml:lang="en">and</text>
				</lyric>
			</note>
			<backup>
				<duration>10080</duration>
			</backup>
			<note>
				<pitch>
					<step>E</step>
					<octave>4</octave>
				</pitch>
				<duration>20160</duration>
				<voice>2</voice>
				<type>half</type>
				<dot/>
				<stem default-y="-65.38">down</stem>
			</note>
			<backup>
				<duration>10080</duration>
			</backup>
			<note>
				<pitch>
					<step>A</step>
					<octave>4</octave>
				</pitch>
				<duration>3360</duration>
				<voice>1</voice>
				<type>eighth</type>
				<stem default-y="10.51">up</stem>
			</note>
			<note>
				<pitch>
					<step>B</step>
					<octave>4</octave>
				</pitch>
				<duration>6720</duration>
				<voice>1</voice>
				<type>quarter</type>
				<stem default-y="14.62">up</stem>
				<notations>
					<slur type="stop" number="1"/>
				</notations>
			</note>
			<note>
				<pitch>
					<step>A</step>
					<octave>4</octave>
				</pitch>
				<duration>6720</duration>
				<voice>1</voice>
				<type>quarter</type>
				<stem default-y="9.62">up</stem>
				<lyric number="1" justify="center" default-y="-80.25">
					<syllabic>single</syllabic>
					<text font-family="Times New Roman" font-size="10" font-weight="normal" font-style="normal" xml:lang="en">with</text>
				</lyric>
				<lyric number="2" justify="center" default-y="-97.05">
					<syllabic>begin</syllabic>
					<text font-family="Times New Roman" font-size="10" font-weight="normal" font-style="normal" xml:lang="en">ac</text>
				</lyric>
				<lyric number="3" justify="center" default-y="-113.85">
					<syllabic>end</syllabic>
					<text font-family="Times New Roman" font-size="10" font-weight="normal" font-style="normal" xml:lang="en">its</text>
				</lyric>
			</note>
			<note>
				<chord/>
				<pitch>
					<step>F</step>
					<alter>1</alter>
					<octave>4</octave>
				</pitch>
				<duration>6720</duration>
				<voice>1</voice>
				<type>quarter</type>
				<stem default-y="9.62">up</stem>
			</note>
		</measure>
		<!--==========================[1,15]=============================-->
		<measure number="15" width="189">
			<note>
				<pitch>
					<step>G</step>
					<alter>1</alter>
					<octave>4</octave>
				</pitch>
				<duration>13440</duration>
				<voice>1</voice>
				<type>half</type>
				<stem default-y="4.62">up</stem>
				<lyric number="1" justify="center" default-y="-80.25">
					<syllabic>begin</syllabic>
					<text font-family="Times New Roman" font-size="10" font-weight="normal" font-style="normal" xml:lang="en">glow</text>
				</lyric>
				<lyric number="2" justify="center" default-y="-97.05">
					<syllabic>middle</syllabic>
					<text font-family="Times New Roman" font-size="10" font-weight="normal" font-style="normal" xml:lang="en">cep</text>
				</lyric>
				<lyric number="3" justify="center" default-y="-113.85">
					<syllabic>end</syllabic>
					<text font-family="Times New Roman" font-size="10" font-weight="normal" font-style="normal" xml:lang="en">prayers</text>
				</lyric>
			</note>
			<note>
				<chord/>
				<pitch>
					<step>E</step>
					<octave>4</octave>
				</pitch>
				<duration>13440</duration>
				<voice>1</voice>
				<type>half</type>
				<stem default-y="4.62">up</stem>
			</note>
			<note>
				<pitch>
					<step>F</step>
					<alter>1</alter>
					<octave>4</octave>
				</pitch>
				<duration>13440</duration>
				<voice>1</voice>
				<type>half</type>
				<stem default-y="-0.38">up</stem>
				<lyric number="1" justify="center" default-y="-80.25">
					<syllabic>single</syllabic>
					<text font-family="Times New Roman" font-size="10" font-weight="normal" font-style="normal" xml:lang="en">ing</text>
				</lyric>
				<lyric number="2" justify="center" default-y="-97.05">
					<syllabic>single</syllabic>
					<text font-family="Times New Roman" font-size="10" font-weight="normal" font-style="normal" xml:lang="en">tance</text>
				</lyric>
				<lyric number="3" justify="center" default-y="-113.85">
					<syllabic>single</syllabic>
					<text font-family="Times New Roman" font-size="10" font-weight="normal" font-style="normal" xml:lang="en">to</text>
				</lyric>
			</note>
			<note>
				<chord/>
				<pitch>
					<step>D</step>
					<alter>1</alter>
					<octave>4</octave>
				</pitch>
				<duration>13440</duration>
				<voice>1</voice>
				<type>half</type>
				<stem default-y="-0.38">up</stem>
			</note>
		</measure>
		<!--==========================[1,16]=============================-->
		<measure number="16" width="112">
			<note>
				<pitch>
					<step>E</step>
					<octave>4</octave>
				</pitch>
				<duration>13440</duration>
				<voice>1</voice>
				<type>half</type>
				<stem default-y="-5.38">up</stem>
				<notations>
					<fermata type="upright" relative-x="-7.46" relative-y="12.54"/>
				</notations>
				<lyric number="1" justify="center" default-y="-80.25">
					<syllabic>single</syllabic>
					<text font-family="Times New Roman" font-size="10" font-weight="normal" font-style="normal" xml:lang="en">tongue,</text>
				</lyric>
				<lyric number="2" justify="center" default-y="-97.05">
					<syllabic>single</syllabic>
					<text font-family="Times New Roman" font-size="10" font-weight="normal" font-style="normal" xml:lang="en">there.</text>
				</lyric>
				<lyric number="3" justify="center" default-y="-113.85">
					<syllabic>single</syllabic>
					<text font-family="Times New Roman" font-size="10" font-weight="normal" font-style="normal" xml:lang="en">
Thee.</text>
				</lyric>
			</note>
			<backup>
				<duration>13440</duration>
			</backup>
			<note>
				<pitch>
					<step>E</step>
					<octave>4</octave>
				</pitch>
				<duration>13440</duration>
				<voice>2</voice>
				<type>half</type>
				<stem default-y="-65.38">down</stem>
			</note>
			<barline location="right">
				<repeat direction="backward" times="3"/>
			</barline>
		</measure>
	</part>
	<part id="P2">
		<!--==========================[2,1]=============================-->
		<measure number="1" width="199">
			<print new-page="yes">
				<staff-layout number="1">
					<staff-distance>113.333</staff-distance>
				</staff-layout>
			</print>
			<barline location="left">
				<repeat direction="forward"/>
			</barline>
			<attributes>
				<divisions>6720</divisions>
				<key>
					<fifths>4</fifths>
					<mode>major</mode>
				</key>
				<time>
					<beats>2</beats>
					<beat-type>2</beat-type>
				</time>
				<clef number="1">
					<sign>F</sign>
					<line>4</line>
				</clef>
				<staff-details number="1" print-object="yes">
					<staff-lines>5</staff-lines>
					<staff-size>100.00</staff-size>
				</staff-details>
			</attributes>
			<note print-lyric="no">
				<pitch>
					<step>G</step>
					<alter>1</alter>
					<octave>3</octave>
				</pitch>
				<duration>13440</duration>
				<voice>1</voice>
				<type>half</type>
				<stem default-y="-50.38">down</stem>
				<lyric number="1" justify="right" default-y="72.82">
					<syllabic>single</syllabic>
					<text font-family="Times New Roman" font-size="10" font-weight="normal" font-style="normal" xml:lang="en">
. O</text>
				</lyric>
				<lyric number="2" justify="right" default-y="56.82">
					<syllabic>single</syllabic>
					<text font-family="Times New Roman" font-size="10" font-weight="normal" font-style="normal" xml:lang="en">
2. From</text>
				</lyric>
				<lyric number="3" justify="right" default-y="39.62">
					<syllabic>single</syllabic>
					<text font-family="Times New Roman" font-size="10" font-weight="normal" font-style="normal" xml:lang="en">
3. To</text>
				</lyric>
			</note>
			<note>
				<chord/>
				<pitch>
					<step>E</step>
					<octave>3</octave>
				</pitch>
				<duration>13440</duration>
				<voice>1</voice>
				<type>half</type>
				<stem default-y="-50.38">down</stem>
			</note>
		</measure>
		<!--==========================[2,2]=============================-->
		<measure number="2" width="294">
			<note print-lyric="no">
				<pitch>
					<step>B</step>
					<octave>3</octave>
				</pitch>
				<duration>6720</duration>
				<voice>2</voice>
				<type>quarter</type>
				<stem default-y="-50.38">down</stem>
				<lyric number="1" justify="center" default-y="72.82">
					<syllabic>single</syllabic>
					<text font-family="Times New Roman" font-size="10" font-weight="normal" font-style="normal" xml:lang="en">Thou</text>
				</lyric>
				<lyric number="2" justify="center" default-y="56.42">
					<syllabic>begin</syllabic>
					<text font-family="Times New Roman" font-size="10" font-weight="normal" font-style="normal" xml:lang="en">ev</text>
				</lyric>
				<lyric number="3" justify="center" default-y="39.62">
					<syllabic>end</syllabic>
					<text font-family="Times New Roman" font-size="10" font-weight="normal" font-style="normal" xml:lang="en">Thee</text>
				</lyric>
			</note>
			<note>
				<chord/>
				<pitch>
					<step>E</step>
					<octave>3</octave>
				</pitch>
				<duration>6720</duration>
				<voice>2</voice>
				<type>quarter</type>
				<stem default-y="-50.38">down</stem>
			</note>
			<note print-lyric="no">
				<pitch>
					<step>B</step>
					<octave>3</octave>
				</pitch>
				<duration>6720</duration>
				<voice>2</voice>
				<type>quarter</type>
				<stem default-y="-50.38">down</stem>
				<lyric number="1" justify="center" default-y="72.82">
					<syllabic>single</syllabic>
					<text font-family="Times New Roman" font-size="10" font-weight="normal" font-style="normal" xml:lang="en">to</text>
				</lyric>
				<lyric number="2" justify="center" default-y="56.42">
					<syllabic>single</syllabic>
					<text font-family="Times New Roman" font-size="10" font-weight="normal" font-style="normal" xml:lang="en">'ry</text>
				</lyric>
				<lyric number="3" justify="center" default-y="39.62">
					<syllabic>single</syllabic>
					<text font-family="Times New Roman" font-size="10" font-weight="normal" font-style="normal" xml:lang="en">shall</text>
				</lyric>
			</note>
			<note>
				<chord/>
				<pitch>
					<step>E</step>
					<octave>3</octave>
				</pitch>
				<duration>6720</duration>
				<voice>2</voice>
				<type>quarter</type>
				<stem default-y="-50.38">down</stem>
			</note>
			<note print-lyric="no">
				<pitch>
					<step>B</step>
					<octave>3</octave>
				</pitch>
				<duration>6720</duration>
				<voice>2</voice>
				<type>quarter</type>
				<stem default-y="-50.38">down</stem>
				<lyric number="1" justify="center" default-y="72.82">
					<syllabic>single</syllabic>
					<text font-family="Times New Roman" font-size="10" font-weight="normal" font-style="normal" xml:lang="en">whom,</text>
				</lyric>
				<lyric number="2" justify="center" default-y="56.42">
					<syllabic>single</syllabic>
					<text font-family="Times New Roman" font-size="10" font-weight="normal" font-style="normal" xml:lang="en">place</text>
				</lyric>
				<lyric number="3" justify="center" default-y="39.62">
					<syllabic>single</syllabic>
					<text font-family="Times New Roman" font-size="10" font-weight="normal" font-style="normal" xml:lang="en">age,</text>
				</lyric>
			</note>
			<note>
				<chord/>
				<pitch>
					<step>E</step>
					<octave>3</octave>
				</pitch>
				<duration>6720</duration>
				<voice>2</voice>
				<type>quarter</type>
				<stem default-y="-50.38">down</stem>
			</note>
			<note print-lyric="no">
				<pitch>
					<step>B</step>
					<octave>3</octave>
				</pitch>
				<duration>6720</duration>
				<voice>1</voice>
				<type>quarter</type>
				<stem default-y="29.62">up</stem>
				<lyric number="1" justify="center" default-y="72.82">
					<syllabic>single</syllabic>
					<text font-family="Times New Roman" font-size="10" font-weight="normal" font-style="normal" xml:lang="en">in</text>
				</lyric>
				<lyric number="2" justify="center" default-y="56.42">
					<syllabic>begin</syllabic>
					<text font-family="Times New Roman" font-size="10" font-weight="normal" font-style="normal" xml:lang="en">be</text>
				</lyric>
				<lyric number="3" justify="center" default-y="39.62">
					<syllabic>end</syllabic>
					<text font-family="Times New Roman" font-size="10" font-weight="normal" font-style="normal" xml:lang="en">with</text>
				</lyric>
			</note>
			<backup>
				<duration>6720</duration>
			</backup>
			<note>
				<pitch>
					<step>A</step>
					<octave>3</octave>
				</pitch>
				<duration>6720</duration>
				<voice>2</voice>
				<type>quarter</type>
				<stem default-y="-35.38">down</stem>
			</note>
		</measure>
		<!--==========================[2,3]=============================-->
		<measure number="3" width="220">
			<note print-lyric="no">
				<pitch>
					<step>B</step>
					<octave>3</octave>
				</pitch>
				<duration>13440</duration>
				<voice>2</voice>
				<type>half</type>
				<stem default-y="-40.38">down</stem>
				<lyric number="1" justify="center" default-y="72.82">
					<syllabic>begin</syllabic>
					<text font-family="Times New Roman" font-size="10" font-weight="normal" font-style="normal" xml:lang="en">an</text>
				</lyric>
				<lyric number="2" justify="center" default-y="56.42">
					<syllabic>end</syllabic>
					<text font-family="Times New Roman" font-size="10" font-weight="normal" font-style="normal" xml:lang="en">low</text>
				</lyric>
				<lyric number="3" justify="center" default-y="39.62">
					<syllabic>begin</syllabic>
					<text font-family="Times New Roman" font-size="10" font-weight="normal" font-style="normal" xml:lang="en">snow</text>
				</lyric>
			</note>
			<note>
				<chord/>
				<pitch>
					<step>G</step>
					<alter>1</alter>
					<octave>3</octave>
				</pitch>
				<duration>13440</duration>
				<voice>2</voice>
				<type>half</type>
				<stem default-y="-40.38">down</stem>
			</note>
			<note print-lyric="no">
				<pitch>
					<step>B</step>
					<octave>3</octave>
				</pitch>
				<duration>13440</duration>
				<voice>1</voice>
				<type>half</type>
				<stem default-y="29.62">up</stem>
				<lyric number="1" justify="center" default-y="72.82">
					<syllabic>end</syllabic>
					<text font-family="Times New Roman" font-size="10" font-weight="normal" font-style="normal" xml:lang="en">cient</text>
				</lyric>
				<lyric number="2" justify="center" default-y="56.42">
					<syllabic>single</syllabic>
					<text font-family="Times New Roman" font-size="10" font-weight="normal" font-style="normal" xml:lang="en">the</text>
				</lyric>
				<lyric number="3" justify="center" default-y="39.62">
					<syllabic>single</syllabic>
					<text font-family="Times New Roman" font-size="10" font-weight="normal" font-style="normal" xml:lang="en">y</text>
				</lyric>
			</note>
			<backup>
				<duration>13440</duration>
			</backup>
			<note>
				<pitch>
					<step>B</step>
					<octave>3</octave>
				</pitch>
				<duration>13440</duration>
				<voice>2</voice>
				<type>half</type>
				<stem default-y="-30.38">down</stem>
			</note>
		</measure>
		<!--==========================[2,4]=============================-->
		<measure number="4" width="186">
			<note print-lyric="no">
				<pitch>
					<step>B</step>
					<octave>3</octave>
				</pitch>
				<duration>26880</duration>
				<voice>1</voice>
				<type>whole</type>
				<stem>none</stem>
				<lyric number="1" justify="center" default-y="72.82">
					<syllabic>single</syllabic>
					<text font-family="Times New Roman" font-size="10" font-weight="normal" font-style="normal" xml:lang="en">time,</text>
				</lyric>
				<lyric number="2" justify="center" default-y="56.42">
					<syllabic>single</syllabic>
					<text font-family="Times New Roman" font-size="10" font-weight="normal" font-style="normal" xml:lang="en">skies,</text>
				</lyric>
				<lyric number="3" justify="center" default-y="39.62">
					<syllabic>single</syllabic>
					<text font-family="Times New Roman" font-size="10" font-weight="normal" font-style="normal" xml:lang="en">hair,</text>
				</lyric>
			</note>
			<note>
				<chord/>
				<pitch>
					<step>E</step>
					<octave>3</octave>
				</pitch>
				<duration>26880</duration>
				<voice>1</voice>
				<type>whole</type>
				<stem>none</stem>
			</note>
		</measure>
		<!--==========================[2,5]=============================-->
		<measure number="5" width="375">
			<print new-system="yes">
				<staff-layout number="1">
					<staff-distance>113.334</staff-distance>
				</staff-layout>
			</print>
			<attributes>
				<staff-details number="1" print-object="yes">
				</staff-details>
			</attributes>
			<note print-lyric="no">
				<pitch>
					<step>E</step>
					<octave>4</octave>
				</pitch>
				<duration>13440</duration>
				<voice>1</voice>
				<type>half</type>
				<stem default-y="-50.38">down</stem>
				<lyric number="1" justify="center" default-y="73.08">
					<syllabic>single</syllabic>
					<text font-family="Times New Roman" font-size="10" font-weight="normal" font-style="normal" xml:lang="en">
The</text>
				</lyric>
				<lyric number="2" justify="center" default-y="56.28">
					<syllabic>single</syllabic>
					<text font-family="Times New Roman" font-size="10" font-weight="normal" font-style="normal" xml:lang="en">
The</text>
				</lyric>
				<lyric number="3" justify="center" default-y="39.48">
					<syllabic>single</syllabic>
					<text font-family="Times New Roman" font-size="10" font-weight="normal" font-style="normal" xml:lang="en">
And</text>
				</lyric>
			</note>
			<note>
				<chord/>
				<pitch>
					<step>E</step>
					<octave>3</octave>
				</pitch>
				<duration>13440</duration>
				<voice>1</voice>
				<type>half</type>
				<stem default-y="-50.38">down</stem>
				<notations>
					<articulations>
						<tenuto placement="above" relative-x="-2.28" relative-y="25.07"/>
					</articulations>
				</notations>
			</note>
			<note print-lyric="no">
				<pitch>
					<step>E</step>
					<octave>4</octave>
				</pitch>
				<duration>6720</duration>
				<voice>1</voice>
				<type>quarter</type>
				<stem default-y="-50.38">down</stem>
				<lyric number="1" justify="center" default-y="73.08">
					<syllabic>begin</syllabic>
					<text font-family="Times New Roman" font-size="10" font-weight="normal" font-style="normal" xml:lang="en">psalm</text>
				</lyric>
				<lyric number="2" justify="center" default-y="56.28">
					<syllabic>middle</syllabic>
					<text font-family="Times New Roman" font-size="10" font-weight="normal" font-style="normal" xml:lang="en">grate</text>
				</lyric>
				<lyric number="3" justify="center" default-y="39.48">
					<syllabic>end</syllabic>
					<text font-family="Times New Roman" font-size="10" font-weight="normal" font-style="normal" xml:lang="en">strength,</text>
				</lyric>
			</note>
			<note>
				<chord/>
				<pitch>
					<step>E</step>
					<octave>3</octave>
				</pitch>
				<duration>6720</duration>
				<voice>1</voice>
				<type>quarter</type>
				<stem default-y="-50.38">down</stem>
				<notations>
					<articulations>
						<tenuto placement="above" relative-x="-2.40" relative-y="25.07"/>
					</articulations>
				</notations>
			</note>
			<note print-lyric="no">
				<pitch>
					<step>E</step>
					<octave>4</octave>
				</pitch>
				<duration>6720</duration>
				<voice>1</voice>
				<type>quarter</type>
				<stem default-y="-50.38">down</stem>
				<lyric number="1" justify="center" default-y="73.08">
					<syllabic>single</syllabic>
					<text font-family="Times New Roman" font-size="10" font-weight="normal" font-style="normal" xml:lang="en">ist's</text>
				</lyric>
				<lyric number="2" justify="center" default-y="56.28">
					<syllabic>single</syllabic>
					<text font-family="Times New Roman" font-size="10" font-weight="normal" font-style="normal" xml:lang="en">ful</text>
				</lyric>
				<lyric number="3" justify="center" default-y="39.48">
					<syllabic>single</syllabic>
					<text font-family="Times New Roman" font-size="10" font-weight="normal" font-style="normal" xml:lang="en">and</text>
				</lyric>
			</note>
			<note>
				<chord/>
				<pitch>
					<step>E</step>
					<octave>3</octave>
				</pitch>
				<duration>6720</duration>
				<voice>1</voice>
				<type>quarter</type>
				<stem default-y="-50.38">down</stem>
				<notations>
					<articulations>
						<tenuto placement="above" relative-x="-2.25" relative-y="25.07"/>
					</articulations>
				</notations>
			</note>
		</measure>
		<!--==========================[2,6]=============================-->
		<measure number="6" width="232">
			<note print-lyric="no">
				<pitch>
					<step>B</step>
					<octave>3</octave>
				</pitch>
				<duration>20160</duration>
				<voice>1</voice>
				<type>half</type>
				<dot/>
				<stem default-y="29.62">up</stem>
				<lyric number="1" justify="center" default-y="73.08">
					<syllabic>begin</syllabic>
					<text font-family="Times New Roman" font-size="10" font-weight="normal" font-style="normal" xml:lang="en">sa</text>
				</lyric>
				<lyric number="2" justify="center" default-y="56.28">
					<syllabic>end</syllabic>
					<text font-family="Times New Roman" font-size="10" font-weight="normal" font-style="normal" xml:lang="en">song,</text>
				</lyric>
				<lyric number="3" justify="center" default-y="39.48">
					<syllabic>begin</syllabic>
					<text font-family="Times New Roman" font-size="10" font-weight="normal" font-style="normal" xml:lang="en">beau</text>
				</lyric>
			</note>
			<backup>
				<duration>20160</duration>
			</backup>
			<note>
				<pitch>
					<step>E</step>
					<octave>3</octave>
				</pitch>
				<duration>10080</duration>
				<voice>2</voice>
				<type>quarter</type>
				<dot/>
				<stem default-y="-50.38">down</stem>
				<notations>
					<slur type="start" number="1" placement="below" orientation="under"/>
				</notations>
			</note>
			<note>
				<pitch>
					<step>F</step>
					<alter>1</alter>
					<octave>3</octave>
				</pitch>
				<duration>3360</duration>
				<voice>2</voice>
				<type>eighth</type>
				<stem default-y="-46.08">down</stem>
			</note>
			<note>
				<pitch>
					<step>G</step>
					<alter>1</alter>
					<octave>3</octave>
				</pitch>
				<duration>6720</duration>
				<voice>2</voice>
				<type>quarter</type>
				<stem default-y="-40.38">down</stem>
				<notations>
					<slur type="stop" number="1"/>
				</notations>
			</note>
			<note print-lyric="no">
				<pitch>
					<step>C</step>
					<alter>1</alter>
					<octave>4</octave>
				</pitch>
				<duration>6720</duration>
				<voice>2</voice>
				<type>quarter</type>
				<stem default-y="-35.38">down</stem>
				<lyric number="1" justify="center" default-y="73.08">
					<syllabic>end</syllabic>
					<text font-family="Times New Roman" font-size="10" font-weight="normal" font-style="normal" xml:lang="en">cred</text>
				</lyric>
				<lyric number="2" justify="center" default-y="56.28">
					<syllabic>single</syllabic>
					<text font-family="Times New Roman" font-size="10" font-weight="normal" font-style="normal" xml:lang="en">the</text>
				</lyric>
				<lyric number="3" justify="center" default-y="39.48">
					<syllabic>single</syllabic>
					<text font-family="Times New Roman" font-size="10" font-weight="normal" font-style="normal" xml:lang="en">ty,</text>
				</lyric>
			</note>
			<note>
				<chord/>
				<pitch>
					<step>A</step>
					<octave>3</octave>
				</pitch>
				<duration>6720</duration>
				<voice>2</voice>
				<type>quarter</type>
				<stem default-y="-35.38">down</stem>
			</note>
		</measure>
		<!--==========================[2,7]=============================-->
		<measure number="7" width="171">
			<note print-lyric="no">
				<pitch>
					<step>B</step>
					<octave>3</octave>
				</pitch>
				<duration>13440</duration>
				<voice>1</voice>
				<type>half</type>
				<stem default-y="29.62">up</stem>
				<lyric number="1" justify="center" default-y="73.08">
					<syllabic>single</syllabic>
					<text font-family="Times New Roman" font-size="10" font-weight="normal" font-style="normal" xml:lang="en">harp</text>
				</lyric>
				<lyric number="2" justify="center" default-y="56.28">
					<syllabic>begin</syllabic>
					<text font-family="Times New Roman" font-size="10" font-weight="normal" font-style="normal" xml:lang="en">fer</text>
				</lyric>
				<lyric number="3" justify="center" default-y="39.48">
					<syllabic>end</syllabic>
					<text font-family="Times New Roman" font-size="10" font-weight="normal" font-style="normal" xml:lang="en">bend</text>
				</lyric>
			</note>
			<backup>
				<duration>13440</duration>
			</backup>
			<note>
				<pitch>
					<step>B</step>
					<octave>3</octave>
				</pitch>
				<duration>13440</duration>
				<voice>2</voice>
				<type>half</type>
				<stem default-y="-30.38">down</stem>
			</note>
			<note print-lyric="no">
				<pitch>
					<step>A</step>
					<octave>3</octave>
				</pitch>
				<duration>13440</duration>
				<voice>2</voice>
				<type>half</type>
				<stem default-y="-55.38">down</stem>
				<lyric number="1" justify="center" default-y="73.08">
					<syllabic>single</syllabic>
					<text font-family="Times New Roman" font-size="10" font-weight="normal" font-style="normal" xml:lang="en">was</text>
				</lyric>
				<lyric number="2" justify="center" default-y="56.28">
					<syllabic>single</syllabic>
					<text font-family="Times New Roman" font-size="10" font-weight="normal" font-style="normal" xml:lang="en">vent</text>
				</lyric>
				<lyric number="3" justify="center" default-y="39.48">
					<syllabic>single</syllabic>
					<text font-family="Times New Roman" font-size="10" font-weight="normal" font-style="normal" xml:lang="en">the</text>
				</lyric>
			</note>
			<note>
				<chord/>
				<pitch>
					<step>B</step>
					<octave>2</octave>
				</pitch>
				<duration>13440</duration>
				<voice>2</voice>
				<type>half</type>
				<stem default-y="-60.10">down</stem>
			</note>
		</measure>
		<!--==========================[2,8]=============================-->
		<measure number="8" width="115">
			<note print-lyric="no">
				<pitch>
					<step>G</step>
					<alter>1</alter>
					<octave>3</octave>
				</pitch>
				<duration>13440</duration>
				<voice>1</voice>
				<type>half</type>
				<stem default-y="-50.38">down</stem>
				<notations>
					<fermata type="inverted" relative-x="-9.06" relative-y="-8.05"/>
				</notations>
				<lyric number="1" justify="center" default-y="73.08">
					<syllabic>single</syllabic>
					<text font-family="Times New Roman" font-size="10" font-weight="normal" font-style="normal" xml:lang="en">strung,</text>
				</lyric>
				<lyric number="2" justify="center" default-y="56.28">
					<syllabic>single</syllabic>
					<text font-family="Times New Roman" font-size="10" font-weight="normal" font-style="normal" xml:lang="en">prayer—</text>
				</lyric>
				<lyric number="3" justify="center" default-y="39.48">
					<syllabic>single</syllabic>
					<text font-family="Times New Roman" font-size="10" font-weight="normal" font-style="normal" xml:lang="en">knee,</text>
				</lyric>
			</note>
			<note>
				<chord/>
				<pitch>
					<step>E</step>
					<octave>3</octave>
				</pitch>
				<duration>13440</duration>
				<voice>1</voice>
				<type>half</type>
				<stem default-y="-50.38">down</stem>
			</note>
		</measure>
		<!--==========================[2,9]=============================-->
		<measure number="9" width="203">
			<print new-system="yes">
				<staff-layout number="1">
					<staff-distance>95.000</staff-distance>
				</staff-layout>
			</print>
			<attributes>
				<staff-details number="1" print-object="yes">
				</staff-details>
			</attributes>
			<note print-lyric="no">
				<pitch>
					<step>B</step>
					<octave>3</octave>
				</pitch>
				<duration>13440</duration>
				<voice>1</voice>
				<type>half</type>
				<stem default-y="-55.38">down</stem>
				<lyric number="1" justify="center" default-y="62.95">
					<syllabic>single</syllabic>
					<text font-family="Times New Roman" font-size="10" font-weight="normal" font-style="normal" xml:lang="en">
Whom</text>
				</lyric>
				<lyric number="2" justify="center" default-y="46.15">
					<syllabic>single</syllabic>
					<text font-family="Times New Roman" font-size="10" font-weight="normal" font-style="normal" xml:lang="en">
The</text>
				</lyric>
				<lyric number="3" justify="center" default-y="29.75">
					<syllabic>single</syllabic>
					<text font-family="Times New Roman" font-size="10" font-weight="normal" font-style="normal" xml:lang="en">
And</text>
				</lyric>
			</note>
			<note>
				<chord/>
				<pitch>
					<step>B</step>
					<octave>2</octave>
				</pitch>
				<duration>13440</duration>
				<voice>1</voice>
				<type>half</type>
				<stem default-y="-64.56">down</stem>
			</note>
		</measure>
		<!--==========================[2,10]=============================-->
		<measure number="10" width="302">
			<note print-lyric="no">
				<pitch>
					<step>B</step>
					<octave>3</octave>
				</pitch>
				<duration>6720</duration>
				<voice>1</voice>
				<type>quarter</type>
				<stem default-y="-55.38">down</stem>
				<lyric number="1" justify="center" default-y="62.95">
					<syllabic>single</syllabic>
					<text font-family="Times New Roman" font-size="10" font-weight="normal" font-style="normal" xml:lang="en">kings</text>
				</lyric>
				<lyric number="2" justify="center" default-y="46.15">
					<syllabic>begin</syllabic>
					<text font-family="Times New Roman" font-size="10" font-weight="normal" font-style="normal" xml:lang="en">in</text>
				</lyric>
				<lyric number="3" justify="center" default-y="29.75">
					<syllabic>middle</syllabic>
					<text font-family="Times New Roman" font-size="10" font-weight="normal" font-style="normal" xml:lang="en">child</text>
				</lyric>
			</note>
			<note>
				<chord/>
				<pitch>
					<step>B</step>
					<octave>2</octave>
				</pitch>
				<duration>6720</duration>
				<voice>1</voice>
				<type>quarter</type>
				<stem default-y="-64.56">down</stem>
			</note>
			<note print-lyric="no">
				<pitch>
					<step>B</step>
					<octave>3</octave>
				</pitch>
				<duration>6720</duration>
				<voice>1</voice>
				<type>quarter</type>
				<stem default-y="-55.38">down</stem>
				<lyric number="1" justify="center" default-y="62.95">
					<syllabic>middle</syllabic>
					<text font-family="Times New Roman" font-size="10" font-weight="normal" font-style="normal" xml:lang="en">a</text>
				</lyric>
				<lyric number="2" justify="center" default-y="46.15">
					<syllabic>end</syllabic>
					<text font-family="Times New Roman" font-size="10" font-weight="normal" font-style="normal" xml:lang="en">cense</text>
				</lyric>
				<lyric number="3" justify="center" default-y="29.75">
					<syllabic>single</syllabic>
					<text font-family="Times New Roman" font-size="10" font-weight="normal" font-style="normal" xml:lang="en">hood</text>
				</lyric>
			</note>
			<note>
				<chord/>
				<pitch>
					<step>B</step>
					<octave>2</octave>
				</pitch>
				<duration>6720</duration>
				<voice>1</voice>
				<type>quarter</type>
				<stem default-y="-64.56">down</stem>
			</note>
			<note print-lyric="no">
				<pitch>
					<step>B</step>
					<octave>3</octave>
				</pitch>
				<duration>6720</duration>
				<voice>1</voice>
				<type>quarter</type>
				<stem default-y="-50.38">down</stem>
				<lyric number="1" justify="center" default-y="62.95">
					<syllabic>single</syllabic>
					<text font-family="Times New Roman" font-size="10" font-weight="normal" font-style="normal" xml:lang="en">dored</text>
				</lyric>
				<lyric number="2" justify="center" default-y="46.15">
					<syllabic>single</syllabic>
					<text font-family="Times New Roman" font-size="10" font-weight="normal" font-style="normal" xml:lang="en">of</text>
				</lyric>
				<lyric number="3" justify="center" default-y="29.75">
					<syllabic>single</syllabic>
					<text font-family="Times New Roman" font-size="10" font-weight="normal" font-style="normal" xml:lang="en">lisp</text>
				</lyric>
			</note>
			<note>
				<chord/>
				<pitch>
					<step>E</step>
					<octave>3</octave>
				</pitch>
				<duration>6720</duration>
				<voice>1</voice>
				<type>quarter</type>
				<stem default-y="-50.38">down</stem>
			</note>
			<note print-lyric="no">
				<pitch>
					<step>B</step>
					<octave>3</octave>
				</pitch>
				<duration>6720</duration>
				<voice>1</voice>
				<type>quarter</type>
				<stem default-y="-50.38">down</stem>
				<lyric number="1" justify="center" default-y="62.95">
					<syllabic>single</syllabic>
					<text font-family="Times New Roman" font-size="10" font-weight="normal" font-style="normal" xml:lang="en">in</text>
				</lyric>
				<lyric number="2" justify="center" default-y="46.15">
					<syllabic>single</syllabic>
					<text font-family="Times New Roman" font-size="10" font-weight="normal" font-style="normal" xml:lang="en">the</text>
				</lyric>
				<lyric number="3" justify="center" default-y="29.75">
					<syllabic>single</syllabic>
					<text font-family="Times New Roman" font-size="10" font-weight="normal" font-style="normal" xml:lang="en">with</text>
				</lyric>
			</note>
			<note>
				<chord/>
				<pitch>
					<step>E</step>
					<octave>3</octave>
				</pitch>
				<duration>6720</duration>
				<voice>1</voice>
				<type>quarter</type>
				<stem default-y="-50.38">down</stem>
			</note>
		</measure>
		<!--==========================[2,11]=============================-->
		<measure number="11" width="204">
			<note print-lyric="no">
				<pitch>
					<step>B</step>
					<octave>3</octave>
				</pitch>
				<duration>13440</duration>
				<voice>1</voice>
				<type>half</type>
				<stem default-y="-40.38">down</stem>
				<lyric number="1" justify="center" default-y="62.95">
					<syllabic>single</syllabic>
					<text font-family="Times New Roman" font-size="10" font-weight="normal" font-style="normal" xml:lang="en">songs</text>
				</lyric>
				<lyric number="2" justify="center" default-y="46.15">
					<syllabic>single</syllabic>
					<text font-family="Times New Roman" font-size="10" font-weight="normal" font-style="normal" xml:lang="en">heart—</text>
				</lyric>
				<lyric number="3" justify="center" default-y="29.75">
					<syllabic>begin</syllabic>
					<text font-family="Times New Roman" font-size="10" font-weight="normal" font-style="normal" xml:lang="en">rev</text>
				</lyric>
			</note>
			<note>
				<chord/>
				<pitch>
					<step>G</step>
					<alter>1</alter>
					<octave>3</octave>
				</pitch>
				<duration>13440</duration>
				<voice>1</voice>
				<type>half</type>
				<stem default-y="-40.38">down</stem>
			</note>
			<note print-lyric="no">
				<pitch>
					<step>B</step>
					<octave>3</octave>
				</pitch>
				<duration>13440</duration>
				<voice>1</voice>
				<type>half</type>
				<stem default-y="-50.38">down</stem>
				<lyric number="1" justify="center" default-y="62.95">
					<syllabic>middle</syllabic>
					<text font-family="Times New Roman" font-size="10" font-weight="normal" font-style="normal" xml:lang="en">sub</text>
				</lyric>
				<lyric number="2" justify="center" default-y="46.15">
					<syllabic>end</syllabic>
					<text font-family="Times New Roman" font-size="10" font-weight="normal" font-style="normal" xml:lang="en">may</text>
				</lyric>
				<lyric number="3" justify="center" default-y="29.75">
					<syllabic>single</syllabic>
					<text font-family="Times New Roman" font-size="10" font-weight="normal" font-style="normal" xml:lang="en">'rent</text>
				</lyric>
			</note>
			<note>
				<chord/>
				<pitch>
					<step>E</step>
					<octave>3</octave>
				</pitch>
				<duration>13440</duration>
				<voice>1</voice>
				<type>half</type>
				<stem default-y="-50.38">down</stem>
			</note>
		</measure>
		<!--==========================[2,12]=============================-->
		<measure number="12" width="189">
			<note print-lyric="no">
				<pitch>
					<step>B</step>
					<octave>3</octave>
				</pitch>
				<duration>26880</duration>
				<voice>1</voice>
				<type>whole</type>
				<stem>none</stem>
				<lyric number="1" justify="center" default-y="62.95">
					<syllabic>single</syllabic>
					<text font-family="Times New Roman" font-size="10" font-weight="normal" font-style="normal" xml:lang="en">lime,</text>
				</lyric>
				<lyric number="2" justify="center" default-y="46.15">
					<syllabic>single</syllabic>
					<text font-family="Times New Roman" font-size="10" font-weight="normal" font-style="normal" xml:lang="en">rise</text>
				</lyric>
				<lyric number="3" justify="center" default-y="29.75">
					<syllabic>single</syllabic>
					<text font-family="Times New Roman" font-size="10" font-weight="normal" font-style="normal" xml:lang="en">air</text>
				</lyric>
			</note>
			<note>
				<chord/>
				<pitch>
					<step>B</step>
					<octave>2</octave>
				</pitch>
				<duration>26880</duration>
				<voice>1</voice>
				<type>whole</type>
				<stem>none</stem>
			</note>
		</measure>
		<!--==========================[2,13]=============================-->
		<measure number="13" width="382">
			<print new-system="yes">
				<staff-layout number="1">
					<staff-distance>113.333</staff-distance>
				</staff-layout>
			</print>
			<attributes>
				<staff-details number="1" print-object="yes">
				</staff-details>
			</attributes>
			<note print-lyric="no">
				<pitch>
					<step>B</step>
					<octave>3</octave>
				</pitch>
				<duration>13440</duration>
				<voice>1</voice>
				<type>half</type>
				<stem default-y="-50.38">down</stem>
				<lyric number="1" justify="center" default-y="73.08">
					<syllabic>single</syllabic>
					<text font-family="Times New Roman" font-size="10" font-weight="normal" font-style="normal" xml:lang="en">
And</text>
				</lyric>
				<lyric number="2" justify="center" default-y="56.28">
					<syllabic>single</syllabic>
					<text font-family="Times New Roman" font-size="10" font-weight="normal" font-style="normal" xml:lang="en">
To</text>
				</lyric>
				<lyric number="3" justify="center" default-y="39.48">
					<syllabic>single</syllabic>
					<text font-family="Times New Roman" font-size="10" font-weight="normal" font-style="normal" xml:lang="en">
Its</text>
				</lyric>
			</note>
			<note>
				<chord/>
				<pitch>
					<step>E</step>
					<octave>3</octave>
				</pitch>
				<duration>13440</duration>
				<voice>1</voice>
				<type>half</type>
				<stem default-y="-50.38">down</stem>
			</note>
			<note print-lyric="no">
				<pitch>
					<step>E</step>
					<octave>4</octave>
				</pitch>
				<duration>6720</duration>
				<voice>1</voice>
				<type>quarter</type>
				<stem default-y="-50.38">down</stem>
				<lyric number="1" justify="center" default-y="73.08">
					<syllabic>begin</syllabic>
					<text font-family="Times New Roman" font-size="10" font-weight="normal" font-style="normal" xml:lang="en">pro</text>
				</lyric>
				<lyric number="2" justify="center" default-y="56.28">
					<syllabic>end</syllabic>
					<text font-family="Times New Roman" font-size="10" font-weight="normal" font-style="normal" xml:lang="en">heav'n,</text>
				</lyric>
				<lyric number="3" justify="center" default-y="39.48">
					<syllabic>begin</syllabic>
					<text font-family="Times New Roman" font-size="10" font-weight="normal" font-style="normal" xml:lang="en">prais</text>
				</lyric>
			</note>
			<note>
				<chord/>
				<pitch>
					<step>E</step>
					<octave>3</octave>
				</pitch>
				<duration>6720</duration>
				<voice>1</voice>
				<type>quarter</type>
				<stem default-y="-50.38">down</stem>
				<notations>
					<articulations>
						<tenuto placement="above" relative-x="-2.32" relative-y="25.07"/>
					</articulations>
				</notations>
			</note>
			<note print-lyric="no">
				<pitch>
					<step>E</step>
					<octave>4</octave>
				</pitch>
				<duration>6720</duration>
				<voice>1</voice>
				<type>quarter</type>
				<stem default-y="-50.38">down</stem>
				<lyric number="1" justify="center" default-y="73.08">
					<syllabic>end</syllabic>
					<text font-family="Times New Roman" font-size="10" font-weight="normal" font-style="normal" xml:lang="en">phets</text>
				</lyric>
				<lyric number="2" justify="center" default-y="56.28">
					<syllabic>single</syllabic>
					<text font-family="Times New Roman" font-size="10" font-weight="normal" font-style="normal" xml:lang="en">and</text>
				</lyric>
				<lyric number="3" justify="center" default-y="39.48">
					<syllabic>single</syllabic>
					<text font-family="Times New Roman" font-size="10" font-weight="normal" font-style="normal" xml:lang="en">es</text>
				</lyric>
			</note>
			<note>
				<chord/>
				<pitch>
					<step>E</step>
					<octave>3</octave>
				</pitch>
				<duration>6720</duration>
				<voice>1</voice>
				<type>quarter</type>
				<stem default-y="-50.38">down</stem>
				<notations>
					<articulations>
						<tenuto placement="above" relative-x="-2.12" relative-y="25.07"/>
					</articulations>
				</notations>
			</note>
		</measure>
		<!--==========================[2,14]=============================-->
		<measure number="14" width="209">
			<note print-lyric="no">
				<pitch>
					<step>B</step>
					<octave>3</octave>
				</pitch>
				<duration>20160</duration>
				<voice>1</voice>
				<type>half</type>
				<dot/>
				<stem default-y="29.62">up</stem>
				<lyric number="1" justify="center" default-y="73.08">
					<syllabic>single</syllabic>
					<text font-family="Times New Roman" font-size="10" font-weight="normal" font-style="normal" xml:lang="en">praised</text>
				</lyric>
				<lyric number="2" justify="center" default-y="56.28">
					<syllabic>single</syllabic>
					<text font-family="Times New Roman" font-size="10" font-weight="normal" font-style="normal" xml:lang="en">find</text>
				</lyric>
				<lyric number="3" justify="center" default-y="39.48">
					<syllabic>single</syllabic>
					<text font-family="Times New Roman" font-size="10" font-weight="normal" font-style="normal" xml:lang="en">and</text>
				</lyric>
			</note>
			<backup>
				<duration>20160</duration>
			</backup>
			<note>
				<pitch>
					<step>E</step>
					<octave>3</octave>
				</pitch>
				<duration>10080</duration>
				<voice>2</voice>
				<type>quarter</type>
				<dot/>
				<stem default-y="-50.38">down</stem>
				<notations>
					<slur type="start" number="1" placement="below" orientation="under"/>
				</notations>
			</note>
			<note>
				<pitch>
					<step>F</step>
					<alter>1</alter>
					<octave>3</octave>
				</pitch>
				<duration>3360</duration>
				<voice>2</voice>
				<type>eighth</type>
				<stem default-y="-46.08">down</stem>
			</note>
			<note>
				<pitch>
					<step>G</step>
					<alter>1</alter>
					<octave>3</octave>
				</pitch>
				<duration>6720</duration>
				<voice>2</voice>
				<type>quarter</type>
				<stem default-y="-40.38">down</stem>
				<notations>
					<slur type="stop" number="1"/>
				</notations>
			</note>
			<note print-lyric="no">
				<pitch>
					<step>C</step>
					<alter>1</alter>
					<octave>4</octave>
				</pitch>
				<duration>6720</duration>
				<voice>2</voice>
				<type>quarter</type>
				<stem default-y="-35.38">down</stem>
				<lyric number="1" justify="center" default-y="73.08">
					<syllabic>single</syllabic>
					<text font-family="Times New Roman" font-size="10" font-weight="normal" font-style="normal" xml:lang="en">with</text>
				</lyric>
				<lyric number="2" justify="center" default-y="56.28">
					<syllabic>begin</syllabic>
					<text font-family="Times New Roman" font-size="10" font-weight="normal" font-style="normal" xml:lang="en">ac</text>
				</lyric>
				<lyric number="3" justify="center" default-y="39.48">
					<syllabic>end</syllabic>
					<text font-family="Times New Roman" font-size="10" font-weight="normal" font-style="normal" xml:lang="en">its</text>
				</lyric>
			</note>
			<note>
				<chord/>
				<pitch>
					<step>A</step>
					<octave>3</octave>
				</pitch>
				<duration>6720</duration>
				<voice>2</voice>
				<type>quarter</type>
				<stem default-y="-35.38">down</stem>
			</note>
		</measure>
		<!--==========================[2,15]=============================-->
		<measure number="15" width="190">
			<note print-lyric="no">
				<pitch>
					<step>B</step>
					<octave>3</octave>
				</pitch>
				<duration>13440</duration>
				<voice>1</voice>
				<type>half</type>
				<stem default-y="29.62">up</stem>
				<lyric number="1" justify="center" default-y="73.08">
					<syllabic>begin</syllabic>
					<text font-family="Times New Roman" font-size="10" font-weight="normal" font-style="normal" xml:lang="en">glow</text>
				</lyric>
				<lyric number="2" justify="center" default-y="56.28">
					<syllabic>middle</syllabic>
					<text font-family="Times New Roman" font-size="10" font-weight="normal" font-style="normal" xml:lang="en">cep</text>
				</lyric>
				<lyric number="3" justify="center" default-y="39.48">
					<syllabic>end</syllabic>
					<text font-family="Times New Roman" font-size="10" font-weight="normal" font-style="normal" xml:lang="en">prayers</text>
				</lyric>
			</note>
			<backup>
				<duration>13440</duration>
			</backup>
			<note>
				<pitch>
					<step>B</step>
					<octave>3</octave>
				</pitch>
				<duration>13440</duration>
				<voice>2</voice>
				<type>half</type>
				<stem default-y="-30.38">down</stem>
			</note>
			<note print-lyric="no">
				<pitch>
					<step>A</step>
					<octave>3</octave>
				</pitch>
				<duration>13440</duration>
				<voice>2</voice>
				<type>half</type>
				<stem default-y="-55.38">down</stem>
				<lyric number="1" justify="center" default-y="73.08">
					<syllabic>single</syllabic>
					<text font-family="Times New Roman" font-size="10" font-weight="normal" font-style="normal" xml:lang="en">ing</text>
				</lyric>
				<lyric number="2" justify="center" default-y="56.28">
					<syllabic>single</syllabic>
					<text font-family="Times New Roman" font-size="10" font-weight="normal" font-style="normal" xml:lang="en">tance</text>
				</lyric>
				<lyric number="3" justify="center" default-y="39.48">
					<syllabic>single</syllabic>
					<text font-family="Times New Roman" font-size="10" font-weight="normal" font-style="normal" xml:lang="en">to</text>
				</lyric>
			</note>
			<note>
				<chord/>
				<pitch>
					<step>B</step>
					<octave>2</octave>
				</pitch>
				<duration>13440</duration>
				<voice>2</voice>
				<type>half</type>
				<stem default-y="-60.10">down</stem>
			</note>
		</measure>
		<!--==========================[2,16]=============================-->
		<measure number="16" width="112">
			<note print-lyric="no">
				<pitch>
					<step>G</step>
					<alter>1</alter>
					<octave>3</octave>
				</pitch>
				<duration>13440</duration>
				<voice>1</voice>
				<type>half</type>
				<stem default-y="-50.38">down</stem>
				<notations>
					<fermata type="inverted" relative-x="-9.06" relative-y="-6.45"/>
				</notations>
				<lyric number="1" justify="center" default-y="73.08">
					<syllabic>single</syllabic>
					<text font-family="Times New Roman" font-size="10" font-weight="normal" font-style="normal" xml:lang="en">tongue,</text>
				</lyric>
				<lyric number="2" justify="center" default-y="56.28">
					<syllabic>single</syllabic>
					<text font-family="Times New Roman" font-size="10" font-weight="normal" font-style="normal" xml:lang="en">there.</text>
				</lyric>
				<lyric number="3" justify="center" default-y="39.48">
					<syllabic>single</syllabic>
					<text font-family="Times New Roman" font-size="10" font-weight="normal" font-style="normal" xml:lang="en">
Thee.</text>
				</lyric>
			</note>
			<note>
				<chord/>
				<pitch>
					<step>E</step>
					<octave>3</octave>
				</pitch>
				<duration>13440</duration>
				<voice>1</voice>
				<type>half</type>
				<stem default-y="-50.38">down</stem>
			</note>
			<barline location="right">
				<repeat direction="backward" times="3"/>
			</barline>
		</measure>
	</part>
</score-partwise>
