<?xml version="1.0" encoding="UTF-8" standalone="no"?>
<!DOCTYPE score-partwise PUBLIC "-//Recordare//DTD MusicXML 2.0 Partwise//EN" "http://www.musicxml.org/dtds/partwise.dtd">
<score-partwise version="2.0">
	<work>
		<work-title>HIS MERCY ENDURETH
(Psalm 1 36)</work-title>
	</work>
	<identification>
		<creator type="composer">Wm. B. Bradbury</creator>
		<creator type="poet">Choir</creator>
		<encoding>
			<software>PDFtoMusic Pro v1.6.5 Build 1B9E7 (c) Myriad - http://www.myriad-online.com</software>
			<?PDFtoMusic Document type 0100- 31306BFA?>
			<supports attribute="new-system" element="print" type="yes" value="yes"/>
			<supports attribute="new-page" element="print" type="yes" value="yes"/>
		</encoding>
	</identification>
	<defaults>
		<scaling>
			<millimeters>8.239156</millimeters>
			<tenths>40</tenths>
		</scaling>
		<page-layout>
			<page-height>1440.371</page-height>
			<page-width>1019.050</page-width>
			<page-margins type="both">
				<left-margin>48.549</left-margin>
				<right-margin>48.549</right-margin>
				<top-margin>48.549</top-margin>
				 <bottom-margin>48.549</bottom-margin>
			</page-margins>
		</page-layout>
		<appearance>
			<line-width type="stem">0.7682</line-width>
			<line-width type="staff">0.7683</line-width>
			<line-width type="light barline">0.7903</line-width>
			<line-width type="heavy barline">5.0001</line-width>
			<line-width type="leger">0.7683</line-width>
		</appearance>
	</defaults>
	<credit page="1">
		<credit-words  default-x="61.362" default-y="1293.427" justify="left" valign="baseline" font-family="Times New Roman" font-size="18" font-weight="bold" font-style="normal">464</credit-words>
	</credit>
	<credit page="1">
		<credit-words  default-x="154.162" default-y="1199.427" justify="left" valign="baseline" font-family="Times New Roman" font-size="10" font-weight="normal" font-style="italic">Choir</credit-words>
	</credit>
	<credit page="1">
		<credit-words  default-x="508.456" default-y="1274.227" justify="center" valign="baseline" font-family="Times New Roman" font-size="18" font-weight="normal" font-style="normal">HIS MERCY ENDURETH
</credit-words>
		<credit-words   justify="center" valign="baseline" font-family="Times New Roman" font-size="10" font-weight="normal" font-style="normal">(Psalm 1 36)</credit-words>
	</credit>
	<credit page="1">
		<credit-words  default-x="840.163" default-y="1213.427" justify="left" valign="baseline" font-family="Times New Roman" font-size="10" font-weight="normal" font-style="normal">Wm. B. Bradbury</credit-words>
	</credit>
	<part-list>
		<score-part id="P1">
			<part-name></part-name>
			<score-instrument id="P1-I1">
				<instrument-name>Instrument 1</instrument-name>
			</score-instrument>
			<midi-instrument id="P1-I1">
				<midi-channel>1</midi-channel>
				<midi-bank>3</midi-bank>
				<midi-program>53</midi-program>
				<volume>50</volume>
				<pan>-90</pan>
				<elevation>0</elevation>
				<?Myriad
				<iddigit>5220</iddigit>
				?>
			</midi-instrument>
		</score-part>
		<score-part id="P2">
			<part-name></part-name>
			<score-instrument id="P2-I1">
				<instrument-name>Instrument 2</instrument-name>
			</score-instrument>
			<midi-instrument id="P2-I1">
				<midi-channel>2</midi-channel>
				<midi-bank>5</midi-bank>
				<midi-program>53</midi-program>
				<volume>50</volume>
				<pan>90</pan>
				<elevation>0</elevation>
				<?Myriad
				<iddigit>5240</iddigit>
				?>
			</midi-instrument>
		</score-part>
	</part-list>
	<part id="P1">
		<!--==========================[1,1]=============================-->
		<measure number="1" width="900">
			<print new-page="yes">
				<system-layout>
					<system-margins>
						<left-margin>11.213</left-margin>
						<right-margin>10.276</right-margin>
					</system-margins>
					<top-system-distance>202.012</top-system-distance>
				</system-layout>
			</print>
			<attributes>
				<divisions>6720</divisions>
				<key>
					<fifths>1</fifths>
					<mode>major</mode>
				</key>
				<clef number="1">
					<sign>G</sign>
					<line>2</line>
				</clef>
				<staff-details number="1" print-object="yes">
					<staff-lines>5</staff-lines>
					<staff-size>100.00</staff-size>
				</staff-details>
			</attributes>
			<note>
				<pitch>
					<step>B</step>
					<octave>4</octave>
				</pitch>
				<duration>26880</duration>
				<voice>1</voice>
				<type>whole</type>
				<stem>none</stem>
				<lyric number="1" justify="right" default-y="-67.98">
					<syllabic>single</syllabic>
					<text font-family="Times New Roman" font-size="10" font-weight="normal" font-style="normal" xml:lang="en">
. O give thanks unto the Lord, for He is good;</text>
				</lyric>
				<lyric number="2" justify="right" default-y="-84.38">
					<syllabic>single</syllabic>
					<text font-family="Times New Roman" font-size="10" font-weight="normal" font-style="normal" xml:lang="en">
2. O give thanks to the Lord of lords:</text>
				</lyric>
				<lyric number="3" justify="right" default-y="-101.18">
					<syllabic>single</syllabic>
					<text font-family="Times New Roman" font-size="10" font-weight="normal" font-style="normal" xml:lang="en">
3. To Him that by wisdom made the heavens:</text>
				</lyric>
				<lyric number="4" justify="right" default-y="-117.98">
					<syllabic>single</syllabic>
					<text font-family="Times New Roman" font-size="10" font-weight="normal" font-style="normal" xml:lang="en">
4. To Him that made great lights:</text>
				</lyric>
				<lyric number="5" justify="right" default-y="-134.38">
					<syllabic>single</syllabic>
					<text font-family="Times New Roman" font-size="10" font-weight="normal" font-style="normal" xml:lang="en">
5. Who remembered us in our low estate:</text>
				</lyric>
				<lyric number="6" justify="right" default-y="-151.18">
					<syllabic>single</syllabic>
					<text font-family="Times New Roman" font-size="10" font-weight="normal" font-style="normal" xml:lang="en">
6. Who giveth food to all flesh:</text>
				</lyric>
			</note>
			<note>
				<chord/>
				<pitch>
					<step>D</step>
					<octave>4</octave>
				</pitch>
				<duration>26880</duration>
				<voice>1</voice>
				<type>whole</type>
				<stem>none</stem>
			</note>
		</measure>
		<!--==========================[1,2]=============================-->
		<measure number="2" width="186">
			<print new-system="yes">
				<system-layout>
					<system-margins>
						<left-margin>11.213</left-margin>
						<right-margin>10.276</right-margin>
					</system-margins>
					<system-distance>91.667</system-distance>
				</system-layout>
			</print>
			<attributes>
				<staff-details number="1" print-object="yes">
				</staff-details>
			</attributes>
			<note>
				<pitch>
					<step>B</step>
					<octave>4</octave>
				</pitch>
				<duration>6720</duration>
				<voice>1</voice>
				<type>quarter</type>
				<stem default-y="14.62">up</stem>
				<lyric number="1" justify="center" default-y="-67.12">
					<syllabic>single</syllabic>
					<text font-family="Times New Roman" font-size="10" font-weight="normal" font-style="normal" xml:lang="en">for</text>
				</lyric>
			</note>
			<note>
				<chord/>
				<pitch>
					<step>G</step>
					<octave>4</octave>
				</pitch>
				<duration>6720</duration>
				<voice>1</voice>
				<type>quarter</type>
				<stem default-y="14.62">up</stem>
			</note>
			<note>
				<pitch>
					<step>B</step>
					<octave>4</octave>
				</pitch>
				<duration>6720</duration>
				<voice>1</voice>
				<type>quarter</type>
				<stem default-y="14.62">up</stem>
				<lyric number="1" justify="center" default-y="-67.12">
					<syllabic>single</syllabic>
					<text font-family="Times New Roman" font-size="10" font-weight="normal" font-style="normal" xml:lang="en">His</text>
				</lyric>
			</note>
			<note>
				<chord/>
				<pitch>
					<step>G</step>
					<octave>4</octave>
				</pitch>
				<duration>6720</duration>
				<voice>1</voice>
				<type>quarter</type>
				<stem default-y="14.62">up</stem>
			</note>
		</measure>
		<!--==========================[1,3]=============================-->
		<measure number="3" width="238">
			<note>
				<pitch>
					<step>A</step>
					<octave>4</octave>
				</pitch>
				<duration>13440</duration>
				<voice>1</voice>
				<type>half</type>
				<stem default-y="9.62">up</stem>
				<lyric number="1" justify="center" default-y="-67.12">
					<syllabic>begin</syllabic>
					<text font-family="Times New Roman" font-size="10" font-weight="normal" font-style="normal" xml:lang="en">mer</text>
				</lyric>
			</note>
			<note>
				<chord/>
				<pitch>
					<step>F</step>
					<alter>1</alter>
					<octave>4</octave>
				</pitch>
				<duration>13440</duration>
				<voice>1</voice>
				<type>half</type>
				<stem default-y="9.62">up</stem>
			</note>
			<note>
				<pitch>
					<step>B</step>
					<octave>4</octave>
				</pitch>
				<duration>6720</duration>
				<voice>1</voice>
				<type>quarter</type>
				<stem default-y="14.62">up</stem>
				<lyric number="1" justify="center" default-y="-67.12">
					<syllabic>end</syllabic>
					<text font-family="Times New Roman" font-size="10" font-weight="normal" font-style="normal" xml:lang="en">cy</text>
				</lyric>
			</note>
			<note>
				<chord/>
				<pitch>
					<step>G</step>
					<octave>4</octave>
				</pitch>
				<duration>6720</duration>
				<voice>1</voice>
				<type>quarter</type>
				<stem default-y="14.62">up</stem>
			</note>
			<note>
				<pitch>
					<step>B</step>
					<octave>4</octave>
				</pitch>
				<duration>6720</duration>
				<voice>1</voice>
				<type>quarter</type>
				<stem default-y="14.62">up</stem>
				<lyric number="1" justify="center" default-y="-67.12">
					<syllabic>begin</syllabic>
					<text font-family="Times New Roman" font-size="10" font-weight="normal" font-style="normal" xml:lang="en">en</text>
				</lyric>
			</note>
			<note>
				<chord/>
				<pitch>
					<step>G</step>
					<octave>4</octave>
				</pitch>
				<duration>6720</duration>
				<voice>1</voice>
				<type>quarter</type>
				<stem default-y="14.62">up</stem>
			</note>
		</measure>
		<!--==========================[1,4]=============================-->
		<measure number="4" width="235">
			<note>
				<pitch>
					<step>C</step>
					<octave>5</octave>
				</pitch>
				<duration>13440</duration>
				<voice>1</voice>
				<type>half</type>
				<stem default-y="9.62">up</stem>
				<lyric number="1" justify="center" default-y="-67.12">
					<syllabic>middle</syllabic>
					<text font-family="Times New Roman" font-size="10" font-weight="normal" font-style="normal" xml:lang="en">dur</text>
				</lyric>
			</note>
			<note>
				<chord/>
				<pitch>
					<step>G</step>
					<octave>4</octave>
				</pitch>
				<duration>13440</duration>
				<voice>1</voice>
				<type>half</type>
				<stem default-y="9.62">up</stem>
			</note>
			<note>
				<pitch>
					<step>B</step>
					<octave>4</octave>
				</pitch>
				<duration>6720</duration>
				<voice>1</voice>
				<type>quarter</type>
				<stem default-y="14.62">up</stem>
				<lyric number="1" justify="center" default-y="-67.12">
					<syllabic>end</syllabic>
					<text font-family="Times New Roman" font-size="10" font-weight="normal" font-style="normal" xml:lang="en">eth</text>
				</lyric>
			</note>
			<note>
				<chord/>
				<pitch>
					<step>G</step>
					<octave>4</octave>
				</pitch>
				<duration>6720</duration>
				<voice>1</voice>
				<type>quarter</type>
				<stem default-y="14.62">up</stem>
			</note>
			<note>
				<pitch>
					<step>B</step>
					<octave>4</octave>
				</pitch>
				<duration>6720</duration>
				<voice>1</voice>
				<type>quarter</type>
				<stem default-y="14.62">up</stem>
				<lyric number="1" justify="center" default-y="-67.12">
					<syllabic>begin</syllabic>
					<text font-family="Times New Roman" font-size="10" font-weight="normal" font-style="normal" xml:lang="en">for</text>
				</lyric>
			</note>
			<note>
				<chord/>
				<pitch>
					<step>G</step>
					<octave>4</octave>
				</pitch>
				<duration>6720</duration>
				<voice>1</voice>
				<type>quarter</type>
				<stem default-y="14.62">up</stem>
			</note>
		</measure>
		<!--==========================[1,5]=============================-->
		<measure number="5" width="239">
			<note>
				<pitch>
					<step>B</step>
					<octave>4</octave>
				</pitch>
				<duration>6720</duration>
				<voice>1</voice>
				<type>quarter</type>
				<stem default-y="14.62">up</stem>
				<lyric number="1" justify="center" default-y="-67.12">
					<syllabic>middle</syllabic>
					<text font-family="Times New Roman" font-size="10" font-weight="normal" font-style="normal" xml:lang="en">ev</text>
				</lyric>
			</note>
			<note>
				<chord/>
				<pitch>
					<step>G</step>
					<octave>4</octave>
				</pitch>
				<duration>6720</duration>
				<voice>1</voice>
				<type>quarter</type>
				<stem default-y="14.62">up</stem>
			</note>
			<note>
				<pitch>
					<step>A</step>
					<octave>4</octave>
				</pitch>
				<duration>13440</duration>
				<voice>1</voice>
				<type>half</type>
				<stem default-y="9.62">up</stem>
				<lyric number="1" justify="center" default-y="-67.12">
					<syllabic>end</syllabic>
					<text font-family="Times New Roman" font-size="10" font-weight="normal" font-style="normal" xml:lang="en">er.</text>
				</lyric>
			</note>
			<note>
				<chord/>
				<pitch>
					<step>F</step>
					<alter>1</alter>
					<octave>4</octave>
				</pitch>
				<duration>13440</duration>
				<voice>1</voice>
				<type>half</type>
				<stem default-y="9.62">up</stem>
			</note>
			<note>
				<rest>
				</rest>
				<duration>6720</duration>
				<voice>1</voice>
				<type>quarter</type>
			</note>
		</measure>
		<!--==========================[1,6]=============================-->
		<measure number="6" width="900">
			<print new-system="yes">
				<system-layout>
					<system-margins>
						<left-margin>11.213</left-margin>
						<right-margin>10.276</right-margin>
					</system-margins>
					<system-distance>96.667</system-distance>
				</system-layout>
			</print>
			<attributes>
				<staff-details number="1" print-object="yes">
				</staff-details>
			</attributes>
			<forward>
				<duration>840</duration>
			</forward>
			<direction placement="above">
				<direction-type>
					<words font-family="Times New Roman" font-size="10" font-weight="normal" font-style="italic" relative-x="0.00" default-y="6.15">Choir</words>
				</direction-type>
			</direction>
			<backup>
				<duration>840</duration>
			</backup>
			<note>
				<pitch>
					<step>A</step>
					<octave>4</octave>
				</pitch>
				<duration>26880</duration>
				<voice>1</voice>
				<type>whole</type>
				<stem>none</stem>
				<lyric number="1" justify="right" default-y="-67.05">
					<syllabic>single</syllabic>
					<text font-family="Times New Roman" font-size="10" font-weight="normal" font-style="normal" xml:lang="en">
O give thanks unto the God of gods:</text>
				</lyric>
				<lyric number="2" justify="right" default-y="-83.85">
					<syllabic>single</syllabic>
					<text font-family="Times New Roman" font-size="10" font-weight="normal" font-style="normal" xml:lang="en">
To Him who alone doeth great wonders:</text>
				</lyric>
				<lyric number="3" justify="right" default-y="-100.25">
					<syllabic>single</syllabic>
					<text font-family="Times New Roman" font-size="10" font-weight="normal" font-style="normal" xml:lang="en">
To Him that stretched out the earth above the waters:</text>
				</lyric>
				<lyric number="4" justify="right" default-y="-117.05">
					<syllabic>single</syllabic>
					<text font-family="Times New Roman" font-size="10" font-weight="normal" font-style="normal" xml:lang="en">
The sun to rule by day: the moon and stars to rule by night:</text>
				</lyric>
				<lyric number="5" justify="right" default-y="-133.85">
					<syllabic>single</syllabic>
					<text font-family="Times New Roman" font-size="10" font-weight="normal" font-style="normal" xml:lang="en">
And hath redeemed us from our enemies:</text>
				</lyric>
				<lyric number="6" justify="right" default-y="-150.25">
					<syllabic>single</syllabic>
					<text font-family="Times New Roman" font-size="10" font-weight="normal" font-style="normal" xml:lang="en">
O give thanks unto God of heaven:</text>
				</lyric>
			</note>
			<note>
				<chord/>
				<pitch>
					<step>F</step>
					<alter>1</alter>
					<octave>4</octave>
				</pitch>
				<duration>26880</duration>
				<voice>1</voice>
				<type>whole</type>
				<stem>none</stem>
			</note>
		</measure>
		<!--==========================[1,7]=============================-->
		<measure number="7" width="149">
			<print new-system="yes">
				<system-layout>
					<system-margins>
						<left-margin>11.213</left-margin>
						<right-margin>15.414</right-margin>
					</system-margins>
					<system-distance>95.000</system-distance>
				</system-layout>
			</print>
			<attributes>
				<staff-details number="1" print-object="yes">
				</staff-details>
			</attributes>
			<note>
				<pitch>
					<step>A</step>
					<octave>4</octave>
				</pitch>
				<duration>6720</duration>
				<voice>1</voice>
				<type>quarter</type>
				<stem default-y="9.62">up</stem>
				<lyric number="1" justify="center" default-y="-75.25">
					<syllabic>single</syllabic>
					<text font-family="Times New Roman" font-size="10" font-weight="normal" font-style="normal" xml:lang="en">for</text>
				</lyric>
			</note>
			<note>
				<chord/>
				<pitch>
					<step>F</step>
					<alter>1</alter>
					<octave>4</octave>
				</pitch>
				<duration>6720</duration>
				<voice>1</voice>
				<type>quarter</type>
				<stem default-y="9.62">up</stem>
			</note>
			<note>
				<pitch>
					<step>A</step>
					<octave>4</octave>
				</pitch>
				<duration>6720</duration>
				<voice>1</voice>
				<type>quarter</type>
				<stem default-y="9.62">up</stem>
				<lyric number="1" justify="center" default-y="-75.25">
					<syllabic>single</syllabic>
					<text font-family="Times New Roman" font-size="10" font-weight="normal" font-style="normal" xml:lang="en">His</text>
				</lyric>
			</note>
			<note>
				<chord/>
				<pitch>
					<step>F</step>
					<alter>1</alter>
					<octave>4</octave>
				</pitch>
				<duration>6720</duration>
				<voice>1</voice>
				<type>quarter</type>
				<stem default-y="9.62">up</stem>
			</note>
		</measure>
		<!--==========================[1,8]=============================-->
		<measure number="8" width="164">
			<note>
				<pitch>
					<step>B</step>
					<octave>4</octave>
				</pitch>
				<duration>13440</duration>
				<voice>1</voice>
				<type>half</type>
				<stem default-y="14.62">up</stem>
				<lyric number="1" justify="center" default-y="-75.25">
					<syllabic>begin</syllabic>
					<text font-family="Times New Roman" font-size="10" font-weight="normal" font-style="normal" xml:lang="en">mer</text>
				</lyric>
			</note>
			<note>
				<chord/>
				<pitch>
					<step>G</step>
					<octave>4</octave>
				</pitch>
				<duration>13440</duration>
				<voice>1</voice>
				<type>half</type>
				<stem default-y="14.62">up</stem>
			</note>
			<note>
				<pitch>
					<step>C</step>
					<octave>5</octave>
				</pitch>
				<duration>6720</duration>
				<voice>1</voice>
				<type>quarter</type>
				<stem default-y="9.62">up</stem>
				<lyric number="1" justify="center" default-y="-75.25">
					<syllabic>end</syllabic>
					<text font-family="Times New Roman" font-size="10" font-weight="normal" font-style="normal" xml:lang="en">cy</text>
				</lyric>
			</note>
			<note>
				<chord/>
				<pitch>
					<step>G</step>
					<octave>4</octave>
				</pitch>
				<duration>6720</duration>
				<voice>1</voice>
				<type>quarter</type>
				<stem default-y="9.62">up</stem>
			</note>
			<note>
				<pitch>
					<step>A</step>
					<octave>4</octave>
				</pitch>
				<duration>6720</duration>
				<voice>1</voice>
				<type>quarter</type>
				<stem default-y="9.62">up</stem>
				<lyric number="1" justify="center" default-y="-75.25">
					<syllabic>begin</syllabic>
					<text font-family="Times New Roman" font-size="10" font-weight="normal" font-style="normal" xml:lang="en">en</text>
				</lyric>
			</note>
			<note>
				<chord/>
				<pitch>
					<step>E</step>
					<octave>4</octave>
				</pitch>
				<duration>6720</duration>
				<voice>1</voice>
				<type>quarter</type>
				<stem default-y="9.62">up</stem>
			</note>
		</measure>
		<!--==========================[1,9]=============================-->
		<measure number="9" width="162">
			<note>
				<pitch>
					<step>G</step>
					<octave>4</octave>
				</pitch>
				<duration>13440</duration>
				<voice>1</voice>
				<type>half</type>
				<stem default-y="4.62">up</stem>
				<lyric number="1" justify="center" default-y="-75.25">
					<syllabic>middle</syllabic>
					<text font-family="Times New Roman" font-size="10" font-weight="normal" font-style="normal" xml:lang="en">dur</text>
				</lyric>
			</note>
			<note>
				<chord/>
				<pitch>
					<step>D</step>
					<octave>4</octave>
				</pitch>
				<duration>13440</duration>
				<voice>1</voice>
				<type>half</type>
				<stem default-y="4.62">up</stem>
			</note>
			<note>
				<pitch>
					<step>F</step>
					<alter>1</alter>
					<octave>4</octave>
				</pitch>
				<duration>6720</duration>
				<voice>1</voice>
				<type>quarter</type>
				<stem default-y="-0.38">up</stem>
				<lyric number="1" justify="center" default-y="-75.25">
					<syllabic>end</syllabic>
					<text font-family="Times New Roman" font-size="10" font-weight="normal" font-style="normal" xml:lang="en">eth</text>
				</lyric>
			</note>
			<note>
				<chord/>
				<pitch>
					<step>D</step>
					<octave>4</octave>
				</pitch>
				<duration>6720</duration>
				<voice>1</voice>
				<type>quarter</type>
				<stem default-y="-0.38">up</stem>
			</note>
			<note>
				<pitch>
					<step>A</step>
					<octave>4</octave>
				</pitch>
				<duration>6720</duration>
				<voice>1</voice>
				<type>quarter</type>
				<stem default-y="9.62">up</stem>
				<lyric number="1" justify="center" default-y="-75.25">
					<syllabic>begin</syllabic>
					<text font-family="Times New Roman" font-size="10" font-weight="normal" font-style="normal" xml:lang="en">for</text>
				</lyric>
			</note>
			<note>
				<chord/>
				<pitch>
					<step>D</step>
					<octave>4</octave>
				</pitch>
				<duration>6720</duration>
				<voice>1</voice>
				<type>quarter</type>
				<stem default-y="9.62">up</stem>
			</note>
		</measure>
		<!--==========================[1,10]=============================-->
		<measure number="10" width="161">
			<note>
				<pitch>
					<step>A</step>
					<octave>4</octave>
				</pitch>
				<duration>6720</duration>
				<voice>1</voice>
				<type>quarter</type>
				<stem default-y="9.62">up</stem>
				<lyric number="1" justify="center" default-y="-75.25">
					<syllabic>middle</syllabic>
					<text font-family="Times New Roman" font-size="10" font-weight="normal" font-style="normal" xml:lang="en">ev</text>
				</lyric>
			</note>
			<note>
				<chord/>
				<pitch>
					<step>D</step>
					<octave>4</octave>
				</pitch>
				<duration>6720</duration>
				<voice>1</voice>
				<type>quarter</type>
				<stem default-y="9.62">up</stem>
			</note>
			<note>
				<pitch>
					<step>G</step>
					<octave>4</octave>
				</pitch>
				<duration>13440</duration>
				<voice>1</voice>
				<type>half</type>
				<stem default-y="4.62">up</stem>
				<lyric number="1" justify="center" default-y="-75.25">
					<syllabic>end</syllabic>
					<text font-family="Times New Roman" font-size="10" font-weight="normal" font-style="normal" xml:lang="en">er.</text>
				</lyric>
			</note>
			<note>
				<chord/>
				<pitch>
					<step>D</step>
					<octave>4</octave>
				</pitch>
				<duration>13440</duration>
				<voice>1</voice>
				<type>half</type>
				<stem default-y="4.62">up</stem>
			</note>
			<note>
				<rest>
				</rest>
				<duration>6720</duration>
				<voice>1</voice>
				<type>quarter</type>
			</note>
			<barline location="right">
				<bar-style>light-light</bar-style>
			</barline>
		</measure>
		<!--==========================[1,11]=============================-->
		<measure number="11" width="124">
			<forward>
				<duration>1260</duration>
			</forward>
			<direction placement="above">
				<direction-type>
					<words font-family="Times New Roman" font-size="10" font-weight="normal" font-style="italic" relative-x="0.00" default-y="11.95">(Final.)</words>
				</direction-type>
			</direction>
			<backup>
				<duration>1260</duration>
			</backup>
			<note>
				<pitch>
					<step>F</step>
					<alter>1</alter>
					<octave>4</octave>
				</pitch>
				<duration>26880</duration>
				<voice>1</voice>
				<type>whole</type>
				<stem>none</stem>
				<lyric number="1" justify="center" default-y="-75.25">
					<syllabic>begin</syllabic>
					<text font-family="Times New Roman" font-size="10" font-weight="normal" font-style="normal" xml:lang="en">
A</text>
				</lyric>
			</note>
			<note>
				<chord/>
				<pitch>
					<step>D</step>
					<octave>4</octave>
				</pitch>
				<duration>26880</duration>
				<voice>1</voice>
				<type>whole</type>
				<stem>none</stem>
			</note>
		</measure>
		<!--==========================[1,12]=============================-->
		<measure number="12" width="132">
			<note>
				<pitch>
					<step>G</step>
					<octave>4</octave>
				</pitch>
				<duration>26880</duration>
				<voice>1</voice>
				<type>whole</type>
				<stem>none</stem>
				<lyric number="1" justify="center" default-y="-75.25">
					<syllabic>end</syllabic>
					<text font-family="Times New Roman" font-size="10" font-weight="normal" font-style="normal" xml:lang="en">men.</text>
				</lyric>
			</note>
			<note>
				<chord/>
				<pitch>
					<step>D</step>
					<octave>4</octave>
				</pitch>
				<duration>26880</duration>
				<voice>1</voice>
				<type>whole</type>
				<stem>none</stem>
			</note>
			<barline location="right">
				<bar-style>light-heavy</bar-style>
			</barline>
		</measure>
	</part>
	<part id="P2">
		<!--==========================[2,1]=============================-->
		<measure number="1" width="900">
			<print new-page="yes">
				<staff-layout number="1">
					<staff-distance>140.000</staff-distance>
				</staff-layout>
			</print>
			<attributes>
				<divisions>6720</divisions>
				<key>
					<fifths>1</fifths>
					<mode>major</mode>
				</key>
				<clef number="1">
					<sign>F</sign>
					<line>4</line>
				</clef>
				<staff-details number="1" print-object="yes">
					<staff-lines>5</staff-lines>
					<staff-size>100.00</staff-size>
				</staff-details>
			</attributes>
			<forward>
				<duration>26880</duration>
			</forward>
			<direction placement="below">
				<direction-type>
					<words font-family="Times New Roman" font-size="10" font-weight="normal" font-style="italic" relative-x="0.00" default-y="-110.38">Choir and Congregation</words>
				</direction-type>
			</direction>
			<backup>
				<duration>26880</duration>
			</backup>
			<note print-lyric="no">
				<pitch>
					<step>G</step>
					<octave>3</octave>
				</pitch>
				<duration>26880</duration>
				<voice>1</voice>
				<type>whole</type>
				<stem>none</stem>
				<lyric number="1" justify="right" default-y="112.02">
					<syllabic>single</syllabic>
					<text font-family="Times New Roman" font-size="10" font-weight="normal" font-style="normal" xml:lang="en">
. O give thanks unto the Lord, for He is good;</text>
				</lyric>
				<lyric number="2" justify="right" default-y="95.62">
					<syllabic>single</syllabic>
					<text font-family="Times New Roman" font-size="10" font-weight="normal" font-style="normal" xml:lang="en">
2. O give thanks to the Lord of lords:</text>
				</lyric>
				<lyric number="3" justify="right" default-y="78.82">
					<syllabic>single</syllabic>
					<text font-family="Times New Roman" font-size="10" font-weight="normal" font-style="normal" xml:lang="en">
3. To Him that by wisdom made the heavens:</text>
				</lyric>
				<lyric number="4" justify="right" default-y="62.02">
					<syllabic>single</syllabic>
					<text font-family="Times New Roman" font-size="10" font-weight="normal" font-style="normal" xml:lang="en">
4. To Him that made great lights:</text>
				</lyric>
				<lyric number="5" justify="right" default-y="45.62">
					<syllabic>single</syllabic>
					<text font-family="Times New Roman" font-size="10" font-weight="normal" font-style="normal" xml:lang="en">
5. Who remembered us in our low estate:</text>
				</lyric>
				<lyric number="6" justify="right" default-y="28.82">
					<syllabic>single</syllabic>
					<text font-family="Times New Roman" font-size="10" font-weight="normal" font-style="normal" xml:lang="en">
6. Who giveth food to all flesh:</text>
				</lyric>
			</note>
		</measure>
		<!--==========================[2,2]=============================-->
		<measure number="2" width="186">
			<print new-system="yes">
				<staff-layout number="1">
					<staff-distance>65.000</staff-distance>
				</staff-layout>
			</print>
			<attributes>
				<staff-details number="1" print-object="yes">
				</staff-details>
			</attributes>
			<note print-lyric="no">
				<pitch>
					<step>D</step>
					<octave>4</octave>
				</pitch>
				<duration>6720</duration>
				<voice>1</voice>
				<type>quarter</type>
				<stem default-y="-40.38">down</stem>
				<lyric number="1" justify="center" default-y="37.88">
					<syllabic>single</syllabic>
					<text font-family="Times New Roman" font-size="10" font-weight="normal" font-style="normal" xml:lang="en">for</text>
				</lyric>
			</note>
			<note>
				<chord/>
				<pitch>
					<step>G</step>
					<octave>3</octave>
				</pitch>
				<duration>6720</duration>
				<voice>1</voice>
				<type>quarter</type>
				<stem default-y="-40.38">down</stem>
			</note>
			<note print-lyric="no">
				<pitch>
					<step>D</step>
					<octave>4</octave>
				</pitch>
				<duration>6720</duration>
				<voice>1</voice>
				<type>quarter</type>
				<stem default-y="-40.38">down</stem>
				<lyric number="1" justify="center" default-y="37.88">
					<syllabic>single</syllabic>
					<text font-family="Times New Roman" font-size="10" font-weight="normal" font-style="normal" xml:lang="en">His</text>
				</lyric>
			</note>
			<note>
				<chord/>
				<pitch>
					<step>G</step>
					<octave>3</octave>
				</pitch>
				<duration>6720</duration>
				<voice>1</voice>
				<type>quarter</type>
				<stem default-y="-40.38">down</stem>
			</note>
		</measure>
		<!--==========================[2,3]=============================-->
		<measure number="3" width="238">
			<note print-lyric="no">
				<pitch>
					<step>D</step>
					<octave>4</octave>
				</pitch>
				<duration>13440</duration>
				<voice>1</voice>
				<type>half</type>
				<stem default-y="-55.38">down</stem>
				<lyric number="1" justify="center" default-y="37.88">
					<syllabic>begin</syllabic>
					<text font-family="Times New Roman" font-size="10" font-weight="normal" font-style="normal" xml:lang="en">mer</text>
				</lyric>
			</note>
			<note>
				<chord/>
				<pitch>
					<step>D</step>
					<octave>3</octave>
				</pitch>
				<duration>13440</duration>
				<voice>1</voice>
				<type>half</type>
				<stem default-y="-55.38">down</stem>
			</note>
			<note print-lyric="no">
				<pitch>
					<step>D</step>
					<octave>4</octave>
				</pitch>
				<duration>6720</duration>
				<voice>1</voice>
				<type>quarter</type>
				<stem default-y="-40.38">down</stem>
				<lyric number="1" justify="center" default-y="37.88">
					<syllabic>end</syllabic>
					<text font-family="Times New Roman" font-size="10" font-weight="normal" font-style="normal" xml:lang="en">cy</text>
				</lyric>
			</note>
			<note>
				<chord/>
				<pitch>
					<step>G</step>
					<octave>3</octave>
				</pitch>
				<duration>6720</duration>
				<voice>1</voice>
				<type>quarter</type>
				<stem default-y="-40.38">down</stem>
			</note>
			<note print-lyric="no">
				<pitch>
					<step>D</step>
					<octave>4</octave>
				</pitch>
				<duration>6720</duration>
				<voice>1</voice>
				<type>quarter</type>
				<stem default-y="-40.38">down</stem>
				<lyric number="1" justify="center" default-y="37.88">
					<syllabic>begin</syllabic>
					<text font-family="Times New Roman" font-size="10" font-weight="normal" font-style="normal" xml:lang="en">en</text>
				</lyric>
			</note>
			<note>
				<chord/>
				<pitch>
					<step>G</step>
					<octave>3</octave>
				</pitch>
				<duration>6720</duration>
				<voice>1</voice>
				<type>quarter</type>
				<stem default-y="-40.38">down</stem>
			</note>
		</measure>
		<!--==========================[2,4]=============================-->
		<measure number="4" width="235">
			<note print-lyric="no">
				<pitch>
					<step>E</step>
					<octave>4</octave>
				</pitch>
				<duration>13440</duration>
				<voice>1</voice>
				<type>half</type>
				<stem default-y="-50.38">down</stem>
				<lyric number="1" justify="center" default-y="37.88">
					<syllabic>middle</syllabic>
					<text font-family="Times New Roman" font-size="10" font-weight="normal" font-style="normal" xml:lang="en">dur</text>
				</lyric>
			</note>
			<note>
				<chord/>
				<pitch>
					<step>C</step>
					<octave>3</octave>
				</pitch>
				<duration>13440</duration>
				<voice>1</voice>
				<type>half</type>
				<stem default-y="-69.70">down</stem>
			</note>
			<note print-lyric="no">
				<pitch>
					<step>D</step>
					<octave>4</octave>
				</pitch>
				<duration>6720</duration>
				<voice>1</voice>
				<type>quarter</type>
				<stem default-y="-40.38">down</stem>
				<lyric number="1" justify="center" default-y="37.88">
					<syllabic>end</syllabic>
					<text font-family="Times New Roman" font-size="10" font-weight="normal" font-style="normal" xml:lang="en">eth</text>
				</lyric>
			</note>
			<note>
				<chord/>
				<pitch>
					<step>G</step>
					<octave>3</octave>
				</pitch>
				<duration>6720</duration>
				<voice>1</voice>
				<type>quarter</type>
				<stem default-y="-40.38">down</stem>
			</note>
			<note print-lyric="no">
				<pitch>
					<step>D</step>
					<octave>4</octave>
				</pitch>
				<duration>6720</duration>
				<voice>1</voice>
				<type>quarter</type>
				<stem default-y="-40.38">down</stem>
				<lyric number="1" justify="center" default-y="37.88">
					<syllabic>begin</syllabic>
					<text font-family="Times New Roman" font-size="10" font-weight="normal" font-style="normal" xml:lang="en">for</text>
				</lyric>
			</note>
			<note>
				<chord/>
				<pitch>
					<step>G</step>
					<octave>3</octave>
				</pitch>
				<duration>6720</duration>
				<voice>1</voice>
				<type>quarter</type>
				<stem default-y="-40.38">down</stem>
			</note>
		</measure>
		<!--==========================[2,5]=============================-->
		<measure number="5" width="239">
			<note print-lyric="no">
				<pitch>
					<step>D</step>
					<octave>4</octave>
				</pitch>
				<duration>6720</duration>
				<voice>1</voice>
				<type>quarter</type>
				<stem default-y="-55.38">down</stem>
				<lyric number="1" justify="center" default-y="37.88">
					<syllabic>middle</syllabic>
					<text font-family="Times New Roman" font-size="10" font-weight="normal" font-style="normal" xml:lang="en">ev</text>
				</lyric>
			</note>
			<note>
				<chord/>
				<pitch>
					<step>D</step>
					<octave>3</octave>
				</pitch>
				<duration>6720</duration>
				<voice>1</voice>
				<type>quarter</type>
				<stem default-y="-55.38">down</stem>
			</note>
			<note print-lyric="no">
				<pitch>
					<step>D</step>
					<octave>4</octave>
				</pitch>
				<duration>13440</duration>
				<voice>1</voice>
				<type>half</type>
				<stem default-y="-55.38">down</stem>
				<lyric number="1" justify="center" default-y="37.88">
					<syllabic>end</syllabic>
					<text font-family="Times New Roman" font-size="10" font-weight="normal" font-style="normal" xml:lang="en">er.</text>
				</lyric>
			</note>
			<note>
				<chord/>
				<pitch>
					<step>D</step>
					<octave>3</octave>
				</pitch>
				<duration>13440</duration>
				<voice>1</voice>
				<type>half</type>
				<stem default-y="-55.38">down</stem>
			</note>
			<note>
				<rest>
				</rest>
				<duration>6720</duration>
				<voice>1</voice>
				<type>quarter</type>
			</note>
		</measure>
		<!--==========================[2,6]=============================-->
		<measure number="6" width="900">
			<print new-system="yes">
				<staff-layout number="1">
					<staff-distance>140.000</staff-distance>
				</staff-layout>
			</print>
			<attributes>
				<staff-details number="1" print-object="yes">
				</staff-details>
			</attributes>
			<forward>
				<duration>26880</duration>
			</forward>
			<direction placement="below">
				<direction-type>
					<words font-family="Times New Roman" font-size="10" font-weight="normal" font-style="italic" relative-x="0.00" default-y="-115.45">Choir and Congregation</words>
				</direction-type>
			</direction>
			<backup>
				<duration>26880</duration>
			</backup>
			<note print-lyric="no">
				<pitch>
					<step>D</step>
					<octave>4</octave>
				</pitch>
				<duration>26880</duration>
				<voice>1</voice>
				<type>whole</type>
				<stem>none</stem>
				<lyric number="1" justify="right" default-y="112.95">
					<syllabic>single</syllabic>
					<text font-family="Times New Roman" font-size="10" font-weight="normal" font-style="normal" xml:lang="en">
O give thanks unto the God of gods:</text>
				</lyric>
				<lyric number="2" justify="right" default-y="96.15">
					<syllabic>single</syllabic>
					<text font-family="Times New Roman" font-size="10" font-weight="normal" font-style="normal" xml:lang="en">
To Him who alone doeth great wonders:</text>
				</lyric>
				<lyric number="3" justify="right" default-y="79.75">
					<syllabic>single</syllabic>
					<text font-family="Times New Roman" font-size="10" font-weight="normal" font-style="normal" xml:lang="en">
To Him that stretched out the earth above the waters:</text>
				</lyric>
				<lyric number="4" justify="right" default-y="62.95">
					<syllabic>single</syllabic>
					<text font-family="Times New Roman" font-size="10" font-weight="normal" font-style="normal" xml:lang="en">
The sun to rule by day: the moon and stars to rule by night:</text>
				</lyric>
				<lyric number="5" justify="right" default-y="46.15">
					<syllabic>single</syllabic>
					<text font-family="Times New Roman" font-size="10" font-weight="normal" font-style="normal" xml:lang="en">
And hath redeemed us from our enemies:</text>
				</lyric>
				<lyric number="6" justify="right" default-y="29.75">
					<syllabic>single</syllabic>
					<text font-family="Times New Roman" font-size="10" font-weight="normal" font-style="normal" xml:lang="en">
O give thanks unto God of heaven:</text>
				</lyric>
			</note>
			<note>
				<chord/>
				<pitch>
					<step>D</step>
					<octave>3</octave>
				</pitch>
				<duration>26880</duration>
				<voice>1</voice>
				<type>whole</type>
				<stem>none</stem>
			</note>
		</measure>
		<!--==========================[2,7]=============================-->
		<measure number="7" width="150">
			<print new-system="yes">
				<staff-layout number="1">
					<staff-distance>71.667</staff-distance>
				</staff-layout>
			</print>
			<attributes>
				<staff-details number="1" print-object="yes">
				</staff-details>
			</attributes>
			<note print-lyric="no">
				<pitch>
					<step>D</step>
					<octave>4</octave>
				</pitch>
				<duration>6720</duration>
				<voice>1</voice>
				<type>quarter</type>
				<stem default-y="-55.38">down</stem>
				<lyric number="1" justify="center" default-y="36.42">
					<syllabic>single</syllabic>
					<text font-family="Times New Roman" font-size="10" font-weight="normal" font-style="normal" xml:lang="en">for</text>
				</lyric>
			</note>
			<note>
				<chord/>
				<pitch>
					<step>D</step>
					<octave>3</octave>
				</pitch>
				<duration>6720</duration>
				<voice>1</voice>
				<type>quarter</type>
				<stem default-y="-55.38">down</stem>
			</note>
			<forward>
				<duration>6720</duration>
			</forward>
			<direction placement="below">
				<direction-type>
					<words font-family="Times New Roman" font-size="10" font-weight="normal" font-style="normal" relative-x="0.00" default-y="-92.78">Used by permission ofThe</words>
				</direction-type>
			</direction>
			<backup>
				<duration>6720</duration>
			</backup>
			<note print-lyric="no">
				<pitch>
					<step>D</step>
					<octave>4</octave>
				</pitch>
				<duration>6720</duration>
				<voice>1</voice>
				<type>quarter</type>
				<stem default-y="-55.38">down</stem>
				<lyric number="1" justify="center" default-y="36.42">
					<syllabic>single</syllabic>
					<text font-family="Times New Roman" font-size="10" font-weight="normal" font-style="normal" xml:lang="en">His</text>
				</lyric>
			</note>
			<note>
				<chord/>
				<pitch>
					<step>D</step>
					<octave>3</octave>
				</pitch>
				<duration>6720</duration>
				<voice>1</voice>
				<type>quarter</type>
				<stem default-y="-55.38">down</stem>
			</note>
		</measure>
		<!--==========================[2,8]=============================-->
		<measure number="8" width="164">
			<note print-lyric="no">
				<pitch>
					<step>D</step>
					<octave>4</octave>
				</pitch>
				<duration>13440</duration>
				<voice>1</voice>
				<type>half</type>
				<stem default-y="-40.38">down</stem>
				<lyric number="1" justify="center" default-y="36.42">
					<syllabic>begin</syllabic>
					<text font-family="Times New Roman" font-size="10" font-weight="normal" font-style="normal" xml:lang="en">mer</text>
				</lyric>
			</note>
			<note>
				<chord/>
				<pitch>
					<step>G</step>
					<octave>3</octave>
				</pitch>
				<duration>13440</duration>
				<voice>1</voice>
				<type>half</type>
				<stem default-y="-40.38">down</stem>
			</note>
			<note print-lyric="no">
				<pitch>
					<step>E</step>
					<octave>4</octave>
				</pitch>
				<duration>6720</duration>
				<voice>1</voice>
				<type>quarter</type>
				<stem default-y="-50.38">down</stem>
				<lyric number="1" justify="center" default-y="36.42">
					<syllabic>end</syllabic>
					<text font-family="Times New Roman" font-size="10" font-weight="normal" font-style="normal" xml:lang="en">cy</text>
				</lyric>
			</note>
			<note>
				<chord/>
				<pitch>
					<step>C</step>
					<octave>3</octave>
				</pitch>
				<duration>6720</duration>
				<voice>1</voice>
				<type>quarter</type>
				<stem default-y="-70.23">down</stem>
			</note>
			<forward>
				<duration>6720</duration>
			</forward>
			<direction placement="below">
				<direction-type>
					<words font-family="Times New Roman" font-size="10" font-weight="normal" font-style="normal" relative-x="0.00" default-y="-92.78">Biglow &amp; Main Co.</words>
				</direction-type>
			</direction>
			<backup>
				<duration>6720</duration>
			</backup>
			<note print-lyric="no">
				<pitch>
					<step>C</step>
					<octave>4</octave>
				</pitch>
				<duration>6720</duration>
				<voice>1</voice>
				<type>quarter</type>
				<stem default-y="-50.38">down</stem>
				<lyric number="1" justify="center" default-y="36.42">
					<syllabic>begin</syllabic>
					<text font-family="Times New Roman" font-size="10" font-weight="normal" font-style="normal" xml:lang="en">en</text>
				</lyric>
			</note>
			<note>
				<chord/>
				<pitch>
					<step>C</step>
					<octave>3</octave>
				</pitch>
				<duration>6720</duration>
				<voice>1</voice>
				<type>quarter</type>
				<stem default-y="-60.23">down</stem>
			</note>
		</measure>
		<!--==========================[2,9]=============================-->
		<measure number="9" width="162">
			<note print-lyric="no">
				<pitch>
					<step>B</step>
					<octave>3</octave>
				</pitch>
				<duration>13440</duration>
				<voice>1</voice>
				<type>half</type>
				<stem default-y="-55.38">down</stem>
				<lyric number="1" justify="center" default-y="36.42">
					<syllabic>middle</syllabic>
					<text font-family="Times New Roman" font-size="10" font-weight="normal" font-style="normal" xml:lang="en">dur</text>
				</lyric>
			</note>
			<note>
				<chord/>
				<pitch>
					<step>D</step>
					<octave>3</octave>
				</pitch>
				<duration>13440</duration>
				<voice>1</voice>
				<type>half</type>
				<stem default-y="-55.38">down</stem>
			</note>
			<note print-lyric="no">
				<pitch>
					<step>A</step>
					<octave>3</octave>
				</pitch>
				<duration>6720</duration>
				<voice>1</voice>
				<type>quarter</type>
				<stem default-y="-55.38">down</stem>
				<lyric number="1" justify="center" default-y="36.42">
					<syllabic>end</syllabic>
					<text font-family="Times New Roman" font-size="10" font-weight="normal" font-style="normal" xml:lang="en">eth</text>
				</lyric>
			</note>
			<note>
				<chord/>
				<pitch>
					<step>D</step>
					<octave>3</octave>
				</pitch>
				<duration>6720</duration>
				<voice>1</voice>
				<type>quarter</type>
				<stem default-y="-55.38">down</stem>
			</note>
			<note print-lyric="no">
				<pitch>
					<step>C</step>
					<octave>4</octave>
				</pitch>
				<duration>6720</duration>
				<voice>1</voice>
				<type>quarter</type>
				<stem default-y="-55.38">down</stem>
				<lyric number="1" justify="center" default-y="36.42">
					<syllabic>begin</syllabic>
					<text font-family="Times New Roman" font-size="10" font-weight="normal" font-style="normal" xml:lang="en">for</text>
				</lyric>
			</note>
			<note>
				<chord/>
				<pitch>
					<step>D</step>
					<octave>3</octave>
				</pitch>
				<duration>6720</duration>
				<voice>1</voice>
				<type>quarter</type>
				<stem default-y="-55.38">down</stem>
			</note>
		</measure>
		<!--==========================[2,10]=============================-->
		<measure number="10" width="161">
			<note print-lyric="no">
				<pitch>
					<step>C</step>
					<octave>4</octave>
				</pitch>
				<duration>6720</duration>
				<voice>1</voice>
				<type>quarter</type>
				<stem default-y="-40.38">down</stem>
				<lyric number="1" justify="center" default-y="36.42">
					<syllabic>middle</syllabic>
					<text font-family="Times New Roman" font-size="10" font-weight="normal" font-style="normal" xml:lang="en">ev</text>
				</lyric>
			</note>
			<note>
				<chord/>
				<pitch>
					<step>G</step>
					<octave>3</octave>
				</pitch>
				<duration>6720</duration>
				<voice>1</voice>
				<type>quarter</type>
				<stem default-y="-40.38">down</stem>
			</note>
			<note print-lyric="no">
				<pitch>
					<step>B</step>
					<octave>3</octave>
				</pitch>
				<duration>13440</duration>
				<voice>1</voice>
				<type>half</type>
				<stem default-y="-40.38">down</stem>
				<lyric number="1" justify="center" default-y="36.42">
					<syllabic>end</syllabic>
					<text font-family="Times New Roman" font-size="10" font-weight="normal" font-style="normal" xml:lang="en">er.</text>
				</lyric>
			</note>
			<note>
				<chord/>
				<pitch>
					<step>G</step>
					<octave>3</octave>
				</pitch>
				<duration>13440</duration>
				<voice>1</voice>
				<type>half</type>
				<stem default-y="-40.38">down</stem>
			</note>
			<note>
				<rest>
				</rest>
				<duration>6720</duration>
				<voice>1</voice>
				<type>quarter</type>
			</note>
		</measure>
		<!--==========================[2,11]=============================-->
		<measure number="11" width="124">
			<note print-lyric="no">
				<pitch>
					<step>A</step>
					<octave>3</octave>
				</pitch>
				<duration>26880</duration>
				<voice>1</voice>
				<type>whole</type>
				<stem>none</stem>
				<lyric number="1" justify="center" default-y="36.42">
					<syllabic>begin</syllabic>
					<text font-family="Times New Roman" font-size="10" font-weight="normal" font-style="normal" xml:lang="en">
A</text>
				</lyric>
			</note>
			<note>
				<chord/>
				<pitch>
					<step>D</step>
					<octave>3</octave>
				</pitch>
				<duration>26880</duration>
				<voice>1</voice>
				<type>whole</type>
				<stem>none</stem>
			</note>
		</measure>
		<!--==========================[2,12]=============================-->
		<measure number="12" width="132">
			<note print-lyric="no">
				<pitch>
					<step>B</step>
					<octave>3</octave>
				</pitch>
				<duration>26880</duration>
				<voice>1</voice>
				<type>whole</type>
				<stem>none</stem>
				<lyric number="1" justify="center" default-y="36.42">
					<syllabic>end</syllabic>
					<text font-family="Times New Roman" font-size="10" font-weight="normal" font-style="normal" xml:lang="en">men.</text>
				</lyric>
			</note>
			<note>
				<chord/>
				<pitch>
					<step>G</step>
					<octave>3</octave>
				</pitch>
				<duration>26880</duration>
				<voice>1</voice>
				<type>whole</type>
				<stem>none</stem>
			</note>
			<note>
				<chord/>
				<pitch>
					<step>G</step>
					<octave>2</octave>
				</pitch>
				<duration>26880</duration>
				<voice>1</voice>
				<type>whole</type>
				<stem>none</stem>
			</note>
		</measure>
	</part>
</score-partwise>
