<?xml version="1.0" encoding="UTF-8" standalone="no"?>
<!DOCTYPE score-partwise PUBLIC "-//Recordare//DTD MusicXML 2.0 Partwise//EN" "http://www.musicxml.org/dtds/partwise.dtd">
<score-partwise version="2.0">
	<work>
		<work-title>What shall it profit a man, ifhe shall gain the whole world, and lose his own soul? Mk. 8:36
Theyare not ofthe world, even as I am not ofthe world. Jn. 17:16</work-title>
	</work>
	<identification>
		<encoding>
			<software>Harmony Assistant v9.9.0i,64bits (c) Myriad - http://www.myriad-online.com</software>
			<?PDFtoMusic Document type 0000- 57487789?>
			<supports attribute="new-system" element="print" type="yes" value="yes"/>
			<supports attribute="new-page" element="print" type="yes" value="yes"/>
		</encoding>
	</identification>
	<defaults>
		<scaling>
			<millimeters>8.466666</millimeters>
			<tenths>40</tenths>
		</scaling>
		<page-layout>
			<page-height>1316.667</page-height>
			<page-width>1016.667</page-width>
			<page-margins type="both">
				<left-margin>0.000</left-margin>
				<right-margin>0.000</right-margin>
				<top-margin>0.000</top-margin>
				 <bottom-margin>0.000</bottom-margin>
			</page-margins>
		</page-layout>
		<appearance>
			<line-width type="stem">0.9877</line-width>
			<line-width type="staff">0.7407</line-width>
			<line-width type="light barline">1.4815</line-width>
			<line-width type="heavy barline">4.9383</line-width>
			<line-width type="leger">1.4815</line-width>
			<line-width type="enclosure">0.9877</line-width>
			<note-size type="grace">60.3865</note-size>
		</appearance>
	</defaults>
	<credit page="1">
		<credit-words  default-x="248.000" default-y="1292.667" justify="left" valign="top" font-family="Cambria" font-size="7" font-weight="normal" font-style="italic">What shall it profit a man, ifhe shall gain the whole world, and lose his own soul? Mk. 8:36
Theyare not ofthe world, even as I am not ofthe world. Jn. 17:16</credit-words>
	</credit>
	<credit page="1">
		<credit-words  default-x="406.000" default-y="1261.667" justify="left" valign="top" font-family="Arial" font-size="13" font-weight="bold" font-style="normal">Give Me Jesus</credit-words>
	</credit>
	<part-list>
		<part-group type="start" number="1">
			<group-name font-family="Times New Roman" font-size="12" font-weight="normal" font-style="normal"></group-name>
			<group-abbreviation font-family="Times New Roman" font-size="12" font-weight="normal" font-style="normal"></group-abbreviation>
			<group-symbol default-x="-1.00">bracket</group-symbol>
			<group-barline>no</group-barline>
		</part-group>
		<score-part id="P1">
			<part-name font-family="Times New Roman" font-size="12" font-weight="normal" font-style="normal"></part-name>
			<part-abbreviation font-family="Times New Roman" font-size="12" font-weight="normal" font-style="normal"> </part-abbreviation>
			<score-instrument id="P1-I1">
				<instrument-name>Instrument 1</instrument-name>
			</score-instrument>
			<midi-instrument id="P1-I1">
				<midi-channel>1</midi-channel>
				<midi-bank>2</midi-bank>
				<midi-program>53</midi-program>
				<volume>48</volume>
				<pan>-90</pan>
				<elevation>-180</elevation>
				<?Myriad
				<iddigit>5210</iddigit>
				?>
			</midi-instrument>
		</score-part>
		<score-part id="P2">
			<part-name font-family="Times New Roman" font-size="12" font-weight="normal" font-style="normal"></part-name>
			<part-abbreviation font-family="Times New Roman" font-size="12" font-weight="normal" font-style="normal"> </part-abbreviation>
			<score-instrument id="P2-I1">
				<instrument-name>Instrument 2</instrument-name>
			</score-instrument>
			<midi-instrument id="P2-I1">
				<midi-channel>2</midi-channel>
				<midi-bank>5</midi-bank>
				<midi-program>53</midi-program>
				<volume>48</volume>
				<pan>87</pan>
				<elevation>174</elevation>
				<?Myriad
				<iddigit>5240</iddigit>
				?>
			</midi-instrument>
		</score-part>
		<part-group type="stop" number="1"/>
	</part-list>
	<part id="P1">
		<!--==========================[1,1]=============================-->
		<measure number="1" width="147">
			<sound tempo="80" />
			<print new-page="yes">
				<system-layout>
					<system-margins>
						<left-margin>64.000</left-margin>
						<right-margin>0.000</right-margin>
					</system-margins>
					<top-system-distance>96.000</top-system-distance>
				</system-layout>
			</print>
			<barline location="left">
				<repeat direction="forward"/>
			</barline>
			<attributes>
				<divisions>6720</divisions>
				<key>
					<cancel>-6</cancel>
					<fifths>-1</fifths>
					<mode>major</mode>
				</key>
				<time>
					<beats>3</beats>
					<beat-type>4</beat-type>
				</time>
				<clef number="1">
					<sign>G</sign>
					<line>2</line>
				</clef>
				<staff-details number="1" print-object="yes">
					<staff-lines>5</staff-lines>
					<staff-size>72.50</staff-size>
				</staff-details>
			</attributes>
			<note>
				<pitch>
					<step>F</step>
					<octave>4</octave>
				</pitch>
				<duration>5040</duration>
				<voice>1</voice>
				<type>eighth</type>
				<dot/>
				<stem default-y="1.67">up</stem>
				<beam number="1">begin</beam>
			</note>
			<note>
				<pitch>
					<step>F</step>
					<octave>4</octave>
				</pitch>
				<duration>1680</duration>
				<voice>1</voice>
				<type>16th</type>
				<stem default-y="5.00">up</stem>
				<beam number="1">end</beam>
				<lyric number="1" justify="right" default-y="-124.14">
					<syllabic>single</syllabic>
					<text font-family="Cambria" font-size="10" font-weight="normal" font-style="normal" xml:lang="en">the</text>
					<extend/>
				</lyric>
				<lyric number="2" justify="right" default-y="-144.83">
					<syllabic>single</syllabic>
					<text font-family="Cambria" font-size="10" font-weight="normal" font-style="normal" xml:lang="en">the</text>
					<extend/>
				</lyric>
				<lyric number="3" justify="right" default-y="-165.52">
					<syllabic>single</syllabic>
					<text font-family="Cambria" font-size="10" font-weight="normal" font-style="normal" xml:lang="en">the</text>
					<extend/>
				</lyric>
				<lyric number="4" justify="right" default-y="-186.21">
					<syllabic>single</syllabic>
					<text font-family="Cambria" font-size="10" font-weight="normal" font-style="normal" xml:lang="en">the</text>
					<extend/>
				</lyric>
			</note>
			<backup>
				<duration>6720</duration>
			</backup>
			<note>
				<pitch>
					<step>F</step>
					<octave>4</octave>
				</pitch>
				<duration>5040</duration>
				<voice>2</voice>
				<type>eighth</type>
				<dot/>
				<stem default-y="-61.67">down</stem>
				<lyric number="1" justify="right" default-y="-124.14">
					<syllabic>single</syllabic>
					<text font-family="Cambria" font-size="10" font-weight="normal" font-style="normal" xml:lang="en">
1.^Take</text>
					<extend/>
				</lyric>
				<lyric number="2" justify="right" default-y="-144.83">
					<syllabic>single</syllabic>
					<text font-family="Cambria" font-size="10" font-weight="normal" font-style="normal" xml:lang="en">
2.^Take</text>
					<extend/>
				</lyric>
				<lyric number="3" justify="right" default-y="-165.52">
					<syllabic>single</syllabic>
					<text font-family="Cambria" font-size="10" font-weight="normal" font-style="normal" xml:lang="en">
3.^Take</text>
					<extend/>
				</lyric>
				<lyric number="4" justify="right" default-y="-186.21">
					<syllabic>single</syllabic>
					<text font-family="Cambria" font-size="10" font-weight="normal" font-style="normal" xml:lang="en">
4.^Take</text>
					<extend/>
				</lyric>
			</note>
			<backup>
				<duration>5040</duration>
			</backup>
			<attributes>
				<time>
					<beats>3</beats>
					<beat-type>4</beat-type>
				</time>
			</attributes>
		</measure>
		<!--==========================[1,2]=============================-->
		<measure number="2" width="151">
			<note>
				<pitch>
					<step>F</step>
					<octave>4</octave>
				</pitch>
				<duration>10080</duration>
				<voice>1</voice>
				<type>quarter</type>
				<dot/>
				<stem default-y="6.67">up</stem>
				<lyric number="1" justify="right" default-y="-124.14">
					<syllabic>single</syllabic>
					<text font-family="Cambria" font-size="10" font-weight="normal" font-style="normal" xml:lang="en">world,</text>
					<extend/>
				</lyric>
				<lyric number="2" justify="right" default-y="-144.83">
					<syllabic>single</syllabic>
					<text font-family="Cambria" font-size="10" font-weight="normal" font-style="normal" xml:lang="en">world,</text>
					<extend/>
				</lyric>
				<lyric number="3" justify="right" default-y="-165.52">
					<syllabic>single</syllabic>
					<text font-family="Cambria" font-size="10" font-weight="normal" font-style="normal" xml:lang="en">world,</text>
					<extend/>
				</lyric>
				<lyric number="4" justify="right" default-y="-186.21">
					<syllabic>single</syllabic>
					<text font-family="Cambria" font-size="10" font-weight="normal" font-style="normal" xml:lang="en">world,</text>
					<extend/>
				</lyric>
			</note>
			<note>
				<pitch>
					<step>F</step>
					<octave>4</octave>
				</pitch>
				<duration>3360</duration>
				<voice>1</voice>
				<type>eighth</type>
				<stem default-y="6.67">up</stem>
				<lyric number="1" justify="right" default-y="-124.14">
					<syllabic>single</syllabic>
					<text font-family="Cambria" font-size="10" font-weight="normal" font-style="normal" xml:lang="en">but</text>
					<extend/>
				</lyric>
				<lyric number="2" justify="right" default-y="-144.83">
					<syllabic>single</syllabic>
					<text font-family="Cambria" font-size="10" font-weight="normal" font-style="normal" xml:lang="en">but</text>
					<extend/>
				</lyric>
				<lyric number="3" justify="right" default-y="-165.52">
					<syllabic>single</syllabic>
					<text font-family="Cambria" font-size="10" font-weight="normal" font-style="normal" xml:lang="en">but</text>
					<extend/>
				</lyric>
				<lyric number="4" justify="right" default-y="-186.21">
					<syllabic>single</syllabic>
					<text font-family="Cambria" font-size="10" font-weight="normal" font-style="normal" xml:lang="en">but</text>
					<extend/>
				</lyric>
			</note>
			<note>
				<pitch>
					<step>E</step>
					<octave>4</octave>
				</pitch>
				<duration>5040</duration>
				<voice>1</voice>
				<type>eighth</type>
				<dot/>
				<stem default-y="1.67">up</stem>
				<lyric number="1" justify="right" default-y="-124.14">
					<syllabic>single</syllabic>
					<text font-family="Cambria" font-size="10" font-weight="normal" font-style="normal" xml:lang="en">give</text>
					<extend/>
				</lyric>
				<lyric number="2" justify="right" default-y="-144.83">
					<syllabic>single</syllabic>
					<text font-family="Cambria" font-size="10" font-weight="normal" font-style="normal" xml:lang="en">give</text>
					<extend/>
				</lyric>
				<lyric number="3" justify="right" default-y="-165.52">
					<syllabic>single</syllabic>
					<text font-family="Cambria" font-size="10" font-weight="normal" font-style="normal" xml:lang="en">give</text>
					<extend/>
				</lyric>
				<lyric number="4" justify="right" default-y="-186.21">
					<syllabic>single</syllabic>
					<text font-family="Cambria" font-size="10" font-weight="normal" font-style="normal" xml:lang="en">give</text>
					<extend/>
				</lyric>
			</note>
			<note>
				<pitch>
					<step>F</step>
					<octave>4</octave>
				</pitch>
				<duration>1680</duration>
				<voice>1</voice>
				<type>16th</type>
				<stem default-y="6.67">up</stem>
				<lyric number="1" justify="right" default-y="-124.14">
					<syllabic>single</syllabic>
					<text font-family="Cambria" font-size="10" font-weight="normal" font-style="normal" xml:lang="en">me</text>
					<extend/>
				</lyric>
				<lyric number="2" justify="right" default-y="-144.83">
					<syllabic>single</syllabic>
					<text font-family="Cambria" font-size="10" font-weight="normal" font-style="normal" xml:lang="en">me</text>
					<extend/>
				</lyric>
				<lyric number="3" justify="right" default-y="-165.52">
					<syllabic>single</syllabic>
					<text font-family="Cambria" font-size="10" font-weight="normal" font-style="normal" xml:lang="en">me</text>
					<extend/>
				</lyric>
				<lyric number="4" justify="right" default-y="-186.21">
					<syllabic>single</syllabic>
					<text font-family="Cambria" font-size="10" font-weight="normal" font-style="normal" xml:lang="en">me</text>
					<extend/>
				</lyric>
			</note>
		</measure>
		<!--==========================[1,3]=============================-->
		<measure number="3" width="151">
			<note>
				<pitch>
					<step>E</step>
					<octave>4</octave>
				</pitch>
				<duration>6720</duration>
				<voice>1</voice>
				<type>quarter</type>
				<stem default-y="16.67">up</stem>
				<lyric number="1" justify="right" default-y="-124.14">
					<syllabic>begin</syllabic>
					<text font-family="Cambria" font-size="10" font-weight="normal" font-style="normal" xml:lang="en">
Je</text>
				</lyric>
				<lyric number="2" justify="right" default-y="-144.83">
					<syllabic>middle</syllabic>
					<text font-family="Cambria" font-size="10" font-weight="normal" font-style="normal" xml:lang="en">
Je</text>
				</lyric>
				<lyric number="3" justify="right" default-y="-165.52">
					<syllabic>middle</syllabic>
					<text font-family="Cambria" font-size="10" font-weight="normal" font-style="normal" xml:lang="en">
Je</text>
				</lyric>
				<lyric number="4" justify="right" default-y="-186.21">
					<syllabic>middle</syllabic>
					<text font-family="Cambria" font-size="10" font-weight="normal" font-style="normal" xml:lang="en">
Je</text>
				</lyric>
			</note>
			<note>
				<pitch>
					<step>E</step>
					<octave>4</octave>
				</pitch>
				<duration>6720</duration>
				<voice>1</voice>
				<type>quarter</type>
				<stem default-y="11.67">up</stem>
				<lyric number="1" justify="right" default-y="-124.14">
					<syllabic>end</syllabic>
					<text font-family="Cambria" font-size="10" font-weight="normal" font-style="normal" xml:lang="en">sus,</text>
					<extend/>
				</lyric>
				<lyric number="2" justify="right" default-y="-144.83">
					<syllabic>single</syllabic>
					<text font-family="Cambria" font-size="10" font-weight="normal" font-style="normal" xml:lang="en">sus,</text>
					<extend/>
				</lyric>
				<lyric number="3" justify="right" default-y="-165.52">
					<syllabic>single</syllabic>
					<text font-family="Cambria" font-size="10" font-weight="normal" font-style="normal" xml:lang="en">sus,</text>
					<extend/>
				</lyric>
				<lyric number="4" justify="right" default-y="-186.21">
					<syllabic>single</syllabic>
					<text font-family="Cambria" font-size="10" font-weight="normal" font-style="normal" xml:lang="en">sus;</text>
					<extend/>
				</lyric>
			</note>
			<note>
				<pitch>
					<step>G</step>
					<octave>4</octave>
				</pitch>
				<duration>5040</duration>
				<voice>1</voice>
				<type>eighth</type>
				<dot/>
				<stem default-y="11.67">up</stem>
				<lyric number="1" justify="right" default-y="-124.14">
					<syllabic>single</syllabic>
					<text font-family="Cambria" font-size="10" font-weight="normal" font-style="normal" xml:lang="en">All</text>
					<extend/>
				</lyric>
				<lyric number="2" justify="right" default-y="-144.83">
					<syllabic>begin</syllabic>
					<text font-family="Cambria" font-size="10" font-weight="normal" font-style="normal" xml:lang="en">Sweet</text>
				</lyric>
				<lyric number="3" justify="right" default-y="-165.52">
					<syllabic>end</syllabic>
					<text font-family="Cambria" font-size="10" font-weight="normal" font-style="normal" xml:lang="en">Let</text>
					<extend/>
				</lyric>
				<lyric number="4" justify="right" default-y="-186.21">
					<syllabic>single</syllabic>
					<text font-family="Cambria" font-size="10" font-weight="normal" font-style="normal" xml:lang="en">In</text>
					<extend/>
				</lyric>
			</note>
			<note>
				<pitch>
					<step>F</step>
					<octave>4</octave>
				</pitch>
				<duration>1680</duration>
				<voice>1</voice>
				<type>16th</type>
				<stem default-y="6.67">up</stem>
				<lyric number="1" justify="right" default-y="-124.14">
					<syllabic>single</syllabic>
					<text font-family="Cambria" font-size="10" font-weight="normal" font-style="normal" xml:lang="en">its</text>
					<extend/>
				</lyric>
				<lyric number="2" justify="right" default-y="-144.83">
					<syllabic>single</syllabic>
					<text font-family="Cambria" font-size="10" font-weight="normal" font-style="normal" xml:lang="en">est</text>
					<extend/>
				</lyric>
				<lyric number="3" justify="right" default-y="-165.52">
					<syllabic>single</syllabic>
					<text font-family="Cambria" font-size="10" font-weight="normal" font-style="normal" xml:lang="en">me</text>
					<extend/>
				</lyric>
				<lyric number="4" justify="right" default-y="-186.21">
					<syllabic>single</syllabic>
					<text font-family="Cambria" font-size="10" font-weight="normal" font-style="normal" xml:lang="en">His</text>
					<extend/>
				</lyric>
			</note>
		</measure>
		<!--==========================[1,4]=============================-->
		<measure number="4" width="151">
			<note>
				<pitch>
					<step>E</step>
					<octave>4</octave>
				</pitch>
				<duration>10080</duration>
				<voice>1</voice>
				<type>quarter</type>
				<dot/>
				<stem default-y="1.67">up</stem>
				<lyric number="1" justify="right" default-y="-124.14">
					<syllabic>single</syllabic>
					<text font-family="Cambria" font-size="10" font-weight="normal" font-style="normal" xml:lang="en">joys</text>
					<extend/>
				</lyric>
				<lyric number="2" justify="right" default-y="-144.83">
					<syllabic>begin</syllabic>
					<text font-family="Cambria" font-size="10" font-weight="normal" font-style="normal" xml:lang="en">com</text>
				</lyric>
				<lyric number="3" justify="right" default-y="-165.52">
					<syllabic>end</syllabic>
					<text font-family="Cambria" font-size="10" font-weight="normal" font-style="normal" xml:lang="en">view</text>
					<extend/>
				</lyric>
				<lyric number="4" justify="right" default-y="-186.21">
					<syllabic>single</syllabic>
					<text font-family="Cambria" font-size="10" font-weight="normal" font-style="normal" xml:lang="en">cross</text>
					<extend/>
				</lyric>
			</note>
			<note>
				<pitch>
					<step>F</step>
					<octave>4</octave>
				</pitch>
				<duration>3360</duration>
				<voice>1</voice>
				<type>eighth</type>
				<stem default-y="-3.33">up</stem>
			</note>
			<backup>
				<duration>3360</duration>
			</backup>
			<note>
				<pitch>
					<step>F</step>
					<octave>4</octave>
				</pitch>
				<duration>3360</duration>
				<voice>2</voice>
				<type>eighth</type>
				<stem default-y="-61.67">down</stem>
				<lyric number="1" justify="right" default-y="-124.14">
					<syllabic>single</syllabic>
					<text font-family="Cambria" font-size="10" font-weight="normal" font-style="normal" xml:lang="en">are</text>
					<extend/>
				</lyric>
				<lyric number="2" justify="right" default-y="-144.83">
					<syllabic>single</syllabic>
					<text font-family="Cambria" font-size="10" font-weight="normal" font-style="normal" xml:lang="en">fort</text>
					<extend/>
				</lyric>
				<lyric number="3" justify="right" default-y="-165.52">
					<syllabic>single</syllabic>
					<text font-family="Cambria" font-size="10" font-weight="normal" font-style="normal" xml:lang="en">
His</text>
					<extend/>
				</lyric>
				<lyric number="4" justify="right" default-y="-186.21">
					<syllabic>single</syllabic>
					<text font-family="Cambria" font-size="10" font-weight="normal" font-style="normal" xml:lang="en">my</text>
					<extend/>
				</lyric>
			</note>
			<note>
				<pitch>
					<step>E</step>
					<octave>4</octave>
				</pitch>
				<duration>5040</duration>
				<voice>1</voice>
				<type>eighth</type>
				<dot/>
				<stem default-y="1.67">up</stem>
				<lyric number="1" justify="right" default-y="-124.14">
					<syllabic>single</syllabic>
					<text font-family="Cambria" font-size="10" font-weight="normal" font-style="normal" xml:lang="en">but</text>
					<extend/>
				</lyric>
				<lyric number="2" justify="right" default-y="-144.83">
					<syllabic>single</syllabic>
					<text font-family="Cambria" font-size="10" font-weight="normal" font-style="normal" xml:lang="en">of</text>
					<extend/>
				</lyric>
				<lyric number="3" justify="right" default-y="-165.52">
					<syllabic>begin</syllabic>
					<text font-family="Cambria" font-size="10" font-weight="normal" font-style="normal" xml:lang="en">con</text>
				</lyric>
				<lyric number="4" justify="right" default-y="-186.21">
					<syllabic>end</syllabic>
					<text font-family="Cambria" font-size="10" font-weight="normal" font-style="normal" xml:lang="en">trust</text>
					<extend/>
				</lyric>
			</note>
			<note>
				<pitch>
					<step>E</step>
					<octave>4</octave>
				</pitch>
				<duration>1680</duration>
				<voice>1</voice>
				<type>16th</type>
				<stem default-y="6.67">up</stem>
				<lyric number="1" justify="right" default-y="-124.14">
					<syllabic>single</syllabic>
					<text font-family="Cambria" font-size="10" font-weight="normal" font-style="normal" xml:lang="en">a</text>
					<extend/>
				</lyric>
				<lyric number="2" justify="right" default-y="-144.83">
					<syllabic>single</syllabic>
					<text font-family="Cambria" font-size="10" font-weight="normal" font-style="normal" xml:lang="en">my</text>
					<extend/>
				</lyric>
				<lyric number="3" justify="right" default-y="-165.52">
					<syllabic>single</syllabic>
					<text font-family="Cambria" font-size="10" font-weight="normal" font-style="normal" xml:lang="en">stant</text>
					<extend/>
				</lyric>
				<lyric number="4" justify="right" default-y="-186.21">
					<syllabic>single</syllabic>
					<text font-family="Cambria" font-size="10" font-weight="normal" font-style="normal" xml:lang="en">shall</text>
					<extend/>
				</lyric>
			</note>
		</measure>
		<!--==========================[1,5]=============================-->
		<measure number="5" width="104">
			<note>
				<pitch>
					<step>C</step>
					<octave>4</octave>
				</pitch>
				<duration>13440</duration>
				<voice>1</voice>
				<type>half</type>
				<stem default-y="-3.33">up</stem>
				<lyric number="1" justify="right" default-y="-124.14">
					<syllabic>single</syllabic>
					<text font-family="Cambria" font-size="10" font-weight="normal" font-style="normal" xml:lang="en">name;</text>
					<extend/>
				</lyric>
				<lyric number="2" justify="right" default-y="-144.83">
					<syllabic>single</syllabic>
					<text font-family="Cambria" font-size="10" font-weight="normal" font-style="normal" xml:lang="en">soul;</text>
					<extend/>
				</lyric>
				<lyric number="3" justify="right" default-y="-165.52">
					<syllabic>single</syllabic>
					<text font-family="Cambria" font-size="10" font-weight="normal" font-style="normal" xml:lang="en">smile;</text>
					<extend/>
				</lyric>
				<lyric number="4" justify="right" default-y="-186.21">
					<syllabic>single</syllabic>
					<text font-family="Cambria" font-size="10" font-weight="normal" font-style="normal" xml:lang="en">be,</text>
					<extend/>
				</lyric>
			</note>
		</measure>
		<!--==========================[1,6]=============================-->
		<measure number="6" width="60">
			<print new-system="yes">
				<system-layout>
					<system-margins>
						<left-margin>63.000</left-margin>
						<right-margin>0.000</right-margin>
					</system-margins>
					<system-distance>137.000</system-distance>
				</system-layout>
			</print>
			<note>
				<pitch>
					<step>C</step>
					<octave>4</octave>
				</pitch>
				<duration>5040</duration>
				<voice>1</voice>
				<type>eighth</type>
				<dot/>
				<stem default-y="1.67">up</stem>
				<lyric number="1" justify="right" default-y="-128.28">
					<syllabic>single</syllabic>
					<text font-family="Cambria" font-size="10" font-weight="normal" font-style="normal" xml:lang="en">
But</text>
					<extend/>
				</lyric>
				<lyric number="2" justify="right" default-y="-148.97">
					<syllabic>single</syllabic>
					<text font-family="Cambria" font-size="10" font-weight="normal" font-style="normal" xml:lang="en">
With</text>
					<extend/>
				</lyric>
				<lyric number="3" justify="right" default-y="-169.66">
					<syllabic>single</syllabic>
					<text font-family="Cambria" font-size="10" font-weight="normal" font-style="normal" xml:lang="en">
Then</text>
					<extend/>
				</lyric>
				<lyric number="4" justify="right" default-y="-190.34">
					<syllabic>single</syllabic>
					<text font-family="Cambria" font-size="10" font-weight="normal" font-style="normal" xml:lang="en">
Till,</text>
					<extend/>
				</lyric>
			</note>
			<note>
				<pitch>
					<step>C</step>
					<octave>4</octave>
				</pitch>
				<duration>1680</duration>
				<voice>1</voice>
				<type>16th</type>
				<stem default-y="5.00">up</stem>
				<lyric number="1" justify="right" default-y="-128.28">
					<syllabic>single</syllabic>
					<text font-family="Cambria" font-size="10" font-weight="normal" font-style="normal" xml:lang="en">His</text>
					<extend/>
				</lyric>
				<lyric number="2" justify="right" default-y="-148.97">
					<syllabic>single</syllabic>
					<text font-family="Cambria" font-size="10" font-weight="normal" font-style="normal" xml:lang="en">my</text>
					<extend/>
				</lyric>
				<lyric number="3" justify="right" default-y="-169.66">
					<syllabic>begin</syllabic>
					<text font-family="Cambria" font-size="10" font-weight="normal" font-style="normal" xml:lang="en">through</text>
				</lyric>
				<lyric number="4" justify="right" default-y="-190.34">
					<syllabic>end</syllabic>
					<text font-family="Cambria" font-size="10" font-weight="normal" font-style="normal" xml:lang="en">with</text>
					<extend/>
				</lyric>
			</note>
		</measure>
		<!--==========================[1,7]=============================-->
		<measure number="7" width="164">
			<note>
				<pitch>
					<step>F</step>
					<octave>4</octave>
				</pitch>
				<duration>10080</duration>
				<voice>1</voice>
				<type>quarter</type>
				<dot/>
				<stem default-y="6.67">up</stem>
				<lyric number="1" justify="right" default-y="-128.28">
					<syllabic>single</syllabic>
					<text font-family="Cambria" font-size="10" font-weight="normal" font-style="normal" xml:lang="en">love</text>
					<extend/>
				</lyric>
				<lyric number="2" justify="right" default-y="-148.97">
					<syllabic>begin</syllabic>
					<text font-family="Cambria" font-size="10" font-weight="normal" font-style="normal" xml:lang="en">Sav</text>
				</lyric>
				<lyric number="3" justify="right" default-y="-169.66">
					<syllabic>end</syllabic>
					<text font-family="Cambria" font-size="10" font-weight="normal" font-style="normal" xml:lang="en">out</text>
					<extend/>
				</lyric>
				<lyric number="4" justify="right" default-y="-190.34">
					<syllabic>begin</syllabic>
					<text font-family="Cambria" font-size="10" font-weight="normal" font-style="normal" xml:lang="en">clear</text>
				</lyric>
			</note>
			<note>
				<pitch>
					<step>F</step>
					<octave>4</octave>
				</pitch>
				<duration>3360</duration>
				<voice>1</voice>
				<type>eighth</type>
				<stem default-y="6.67">up</stem>
				<lyric number="1" justify="right" default-y="-128.28">
					<syllabic>middle</syllabic>
					<text font-family="Cambria" font-size="10" font-weight="normal" font-style="normal" xml:lang="en">a</text>
				</lyric>
				<lyric number="2" justify="right" default-y="-148.97">
					<syllabic>end</syllabic>
					<text font-family="Cambria" font-size="10" font-weight="normal" font-style="normal" xml:lang="en">ior</text>
					<extend/>
				</lyric>
				<lyric number="3" justify="right" default-y="-169.66">
					<syllabic>single</syllabic>
					<text font-family="Cambria" font-size="10" font-weight="normal" font-style="normal" xml:lang="en">my</text>
					<extend/>
				</lyric>
				<lyric number="4" justify="right" default-y="-190.34">
					<syllabic>single</syllabic>
					<text font-family="Cambria" font-size="10" font-weight="normal" font-style="normal" xml:lang="en">er,</text>
					<extend/>
				</lyric>
			</note>
			<note>
				<pitch>
					<step>E</step>
					<octave>4</octave>
				</pitch>
				<duration>5040</duration>
				<voice>1</voice>
				<type>eighth</type>
				<dot/>
				<stem default-y="1.67">up</stem>
				<lyric number="1" justify="right" default-y="-128.28">
					<syllabic>begin</syllabic>
					<text font-family="Cambria" font-size="10" font-weight="normal" font-style="normal" xml:lang="en">bid</text>
				</lyric>
				<lyric number="2" justify="right" default-y="-148.97">
					<syllabic>middle</syllabic>
					<text font-family="Cambria" font-size="10" font-weight="normal" font-style="normal" xml:lang="en">watch</text>
				</lyric>
				<lyric number="3" justify="right" default-y="-169.66">
					<syllabic>middle</syllabic>
					<text font-family="Cambria" font-size="10" font-weight="normal" font-style="normal" xml:lang="en">pil</text>
				</lyric>
				<lyric number="4" justify="right" default-y="-190.34">
					<syllabic>middle</syllabic>
					<text font-family="Cambria" font-size="10" font-weight="normal" font-style="normal" xml:lang="en">bright</text>
				</lyric>
			</note>
			<note>
				<pitch>
					<step>F</step>
					<octave>4</octave>
				</pitch>
				<duration>1680</duration>
				<voice>1</voice>
				<type>16th</type>
				<stem default-y="6.67">up</stem>
				<lyric number="1" justify="right" default-y="-128.28">
					<syllabic>end</syllabic>
					<text font-family="Cambria" font-size="10" font-weight="normal" font-style="normal" xml:lang="en">eth</text>
					<extend/>
				</lyric>
				<lyric number="2" justify="right" default-y="-148.97">
					<syllabic>single</syllabic>
					<text font-family="Cambria" font-size="10" font-weight="normal" font-style="normal" xml:lang="en">ing</text>
					<extend/>
				</lyric>
				<lyric number="3" justify="right" default-y="-169.66">
					<syllabic>single</syllabic>
					<text font-family="Cambria" font-size="10" font-weight="normal" font-style="normal" xml:lang="en">grim</text>
					<extend/>
				</lyric>
				<lyric number="4" justify="right" default-y="-190.34">
					<syllabic>single</syllabic>
					<text font-family="Cambria" font-size="10" font-weight="normal" font-style="normal" xml:lang="en">er</text>
					<extend/>
				</lyric>
			</note>
		</measure>
		<!--==========================[1,8]=============================-->
		<measure number="8" width="164">
			<note>
				<pitch>
					<step>E</step>
					<octave>4</octave>
				</pitch>
				<duration>6720</duration>
				<voice>1</voice>
				<type>quarter</type>
				<stem default-y="16.67">up</stem>
				<lyric number="1" justify="right" default-y="-128.28">
					<syllabic>begin</syllabic>
					<text font-family="Cambria" font-size="10" font-weight="normal" font-style="normal" xml:lang="en">ev</text>
				</lyric>
				<lyric number="2" justify="right" default-y="-148.97">
					<syllabic>end</syllabic>
					<text font-family="Cambria" font-size="10" font-weight="normal" font-style="normal" xml:lang="en">o'er</text>
					<extend/>
				</lyric>
				<lyric number="3" justify="right" default-y="-169.66">
					<syllabic>begin</syllabic>
					<text font-family="Cambria" font-size="10" font-weight="normal" font-style="normal" xml:lang="en">jour</text>
				</lyric>
				<lyric number="4" justify="right" default-y="-190.34">
					<syllabic>middle</syllabic>
					<text font-family="Cambria" font-size="10" font-weight="normal" font-style="normal" xml:lang="en">vis</text>
				</lyric>
			</note>
			<note>
				<pitch>
					<step>E</step>
					<octave>4</octave>
				</pitch>
				<duration>6720</duration>
				<voice>1</voice>
				<type>quarter</type>
				<stem default-y="11.67">up</stem>
				<lyric number="1" justify="right" default-y="-128.28">
					<syllabic>end</syllabic>
					<text font-family="Cambria" font-size="10" font-weight="normal" font-style="normal" xml:lang="en">er,</text>
					<extend/>
				</lyric>
				<lyric number="2" justify="right" default-y="-148.97">
					<syllabic>single</syllabic>
					<text font-family="Cambria" font-size="10" font-weight="normal" font-style="normal" xml:lang="en">me,</text>
					<extend/>
				</lyric>
				<lyric number="3" justify="right" default-y="-169.66">
					<syllabic>single</syllabic>
					<text font-family="Cambria" font-size="10" font-weight="normal" font-style="normal" xml:lang="en">ney</text>
					<extend/>
				</lyric>
				<lyric number="4" justify="right" default-y="-190.34">
					<syllabic>single</syllabic>
					<text font-family="Cambria" font-size="10" font-weight="normal" font-style="normal" xml:lang="en">ion,</text>
					<extend/>
				</lyric>
			</note>
			<note>
				<pitch>
					<step>G</step>
					<octave>4</octave>
				</pitch>
				<duration>5040</duration>
				<voice>1</voice>
				<type>eighth</type>
				<dot/>
				<stem default-y="11.67">up</stem>
				<lyric number="1" justify="right" default-y="-128.28">
					<syllabic>single</syllabic>
					<text font-family="Cambria" font-size="10" font-weight="normal" font-style="normal" xml:lang="en">
Through</text>
					<extend/>
				</lyric>
				<lyric number="2" justify="right" default-y="-148.97">
					<syllabic>single</syllabic>
					<text font-family="Cambria" font-size="10" font-weight="normal" font-style="normal" xml:lang="en">
I</text>
					<extend/>
				</lyric>
				<lyric number="3" justify="right" default-y="-169.66">
					<syllabic>single</syllabic>
					<text font-family="Cambria" font-size="10" font-weight="normal" font-style="normal" xml:lang="en">
Light</text>
					<extend/>
				</lyric>
				<lyric number="4" justify="right" default-y="-190.34">
					<syllabic>single</syllabic>
					<text font-family="Cambria" font-size="10" font-weight="normal" font-style="normal" xml:lang="en">
Face</text>
					<extend/>
				</lyric>
			</note>
			<note>
				<pitch>
					<step>F</step>
					<octave>4</octave>
				</pitch>
				<duration>1680</duration>
				<voice>1</voice>
				<type>16th</type>
				<stem default-y="6.67">up</stem>
				<lyric number="1" justify="right" default-y="-128.28">
					<syllabic>begin</syllabic>
					<text font-family="Cambria" font-size="10" font-weight="normal" font-style="normal" xml:lang="en">e</text>
				</lyric>
				<lyric number="2" justify="right" default-y="-148.97">
					<syllabic>end</syllabic>
					<text font-family="Cambria" font-size="10" font-weight="normal" font-style="normal" xml:lang="en">can</text>
					<extend/>
				</lyric>
				<lyric number="3" justify="right" default-y="-169.66">
					<syllabic>single</syllabic>
					<text font-family="Cambria" font-size="10" font-weight="normal" font-style="normal" xml:lang="en">will</text>
					<extend/>
				</lyric>
				<lyric number="4" justify="right" default-y="-190.34">
					<syllabic>single</syllabic>
					<text font-family="Cambria" font-size="10" font-weight="normal" font-style="normal" xml:lang="en">to</text>
					<extend/>
				</lyric>
			</note>
		</measure>
		<!--==========================[1,9]=============================-->
		<measure number="9" width="164">
			<note>
				<pitch>
					<step>E</step>
					<octave>4</octave>
				</pitch>
				<duration>10080</duration>
				<voice>1</voice>
				<type>quarter</type>
				<dot/>
				<stem default-y="1.67">up</stem>
				<lyric number="1" justify="right" default-y="-128.28">
					<syllabic>begin</syllabic>
					<text font-family="Cambria" font-size="10" font-weight="normal" font-style="normal" xml:lang="en">ter</text>
				</lyric>
				<lyric number="2" justify="right" default-y="-148.97">
					<syllabic>end</syllabic>
					<text font-family="Cambria" font-size="10" font-weight="normal" font-style="normal" xml:lang="en">sing</text>
					<extend/>
				</lyric>
				<lyric number="3" justify="right" default-y="-169.66">
					<syllabic>single</syllabic>
					<text font-family="Cambria" font-size="10" font-weight="normal" font-style="normal" xml:lang="en">cheer</text>
					<extend/>
				</lyric>
				<lyric number="4" justify="right" default-y="-190.34">
					<syllabic>single</syllabic>
					<text font-family="Cambria" font-size="10" font-weight="normal" font-style="normal" xml:lang="en">face</text>
					<extend/>
				</lyric>
			</note>
			<note>
				<pitch>
					<step>F</step>
					<octave>4</octave>
				</pitch>
				<duration>3360</duration>
				<voice>1</voice>
				<type>eighth</type>
				<stem default-y="-3.33">up</stem>
			</note>
			<backup>
				<duration>3360</duration>
			</backup>
			<note>
				<pitch>
					<step>F</step>
					<octave>4</octave>
				</pitch>
				<duration>3360</duration>
				<voice>2</voice>
				<type>eighth</type>
				<stem default-y="-61.67">down</stem>
				<lyric number="1" justify="right" default-y="-128.28">
					<syllabic>single</syllabic>
					<text font-family="Cambria" font-size="10" font-weight="normal" font-style="normal" xml:lang="en">nal</text>
					<extend/>
				</lyric>
				<lyric number="2" justify="right" default-y="-148.97">
					<syllabic>single</syllabic>
					<text font-family="Cambria" font-size="10" font-weight="normal" font-style="normal" xml:lang="en">though</text>
					<extend/>
				</lyric>
				<lyric number="3" justify="right" default-y="-169.66">
					<syllabic>single</syllabic>
					<text font-family="Cambria" font-size="10" font-weight="normal" font-style="normal" xml:lang="en">me</text>
					<extend/>
				</lyric>
				<lyric number="4" justify="right" default-y="-190.34">
					<syllabic>single</syllabic>
					<text font-family="Cambria" font-size="10" font-weight="normal" font-style="normal" xml:lang="en">my</text>
					<extend/>
				</lyric>
			</note>
			<note>
				<pitch>
					<step>F</step>
					<octave>4</octave>
				</pitch>
				<duration>5040</duration>
				<voice>1</voice>
				<type>eighth</type>
				<dot/>
				<stem default-y="6.67">up</stem>
				<lyric number="1" justify="right" default-y="-128.28">
					<syllabic>single</syllabic>
					<text font-family="Cambria" font-size="10" font-weight="normal" font-style="normal" xml:lang="en">years</text>
					<extend/>
				</lyric>
				<lyric number="2" justify="right" default-y="-148.97">
					<syllabic>begin</syllabic>
					<text font-family="Cambria" font-size="10" font-weight="normal" font-style="normal" xml:lang="en">bil</text>
				</lyric>
				<lyric number="3" justify="right" default-y="-169.66">
					<syllabic>end</syllabic>
					<text font-family="Cambria" font-size="10" font-weight="normal" font-style="normal" xml:lang="en">all</text>
					<extend/>
				</lyric>
				<lyric number="4" justify="right" default-y="-190.34">
					<syllabic>single</syllabic>
					<text font-family="Cambria" font-size="10" font-weight="normal" font-style="normal" xml:lang="en">Lord</text>
					<extend/>
				</lyric>
			</note>
			<note>
				<pitch>
					<step>E</step>
					<octave>4</octave>
				</pitch>
				<duration>1680</duration>
				<voice>1</voice>
				<type>16th</type>
				<stem default-y="5.00">up</stem>
				<lyric number="1" justify="right" default-y="-128.28">
					<syllabic>single</syllabic>
					<text font-family="Cambria" font-size="10" font-weight="normal" font-style="normal" xml:lang="en">the</text>
					<extend/>
				</lyric>
				<lyric number="2" justify="right" default-y="-148.97">
					<syllabic>single</syllabic>
					<text font-family="Cambria" font-size="10" font-weight="normal" font-style="normal" xml:lang="en">lows</text>
					<extend/>
				</lyric>
				<lyric number="3" justify="right" default-y="-169.66">
					<syllabic>single</syllabic>
					<text font-family="Cambria" font-size="10" font-weight="normal" font-style="normal" xml:lang="en">the</text>
					<extend/>
				</lyric>
				<lyric number="4" justify="right" default-y="-190.34">
					<syllabic>single</syllabic>
					<text font-family="Cambria" font-size="10" font-weight="normal" font-style="normal" xml:lang="en">
I</text>
					<extend/>
				</lyric>
			</note>
		</measure>
		<!--==========================[1,10]=============================-->
		<measure number="10" width="111">
			<note>
				<pitch>
					<step>F</step>
					<octave>4</octave>
				</pitch>
				<duration>13440</duration>
				<voice>1</voice>
				<type>half</type>
				<stem default-y="-3.33">up</stem>
			</note>
			<backup>
				<duration>13440</duration>
			</backup>
			<note>
				<pitch>
					<step>F</step>
					<octave>4</octave>
				</pitch>
				<duration>13440</duration>
				<voice>2</voice>
				<type>half</type>
				<stem default-y="-61.67">down</stem>
				<lyric number="1" justify="right" default-y="-128.28">
					<syllabic>single</syllabic>
					<text font-family="Cambria" font-size="10" font-weight="normal" font-style="normal" xml:lang="en">same.</text>
					<extend/>
				</lyric>
				<lyric number="2" justify="right" default-y="-148.97">
					<syllabic>single</syllabic>
					<text font-family="Cambria" font-size="10" font-weight="normal" font-style="normal" xml:lang="en">roll.</text>
					<extend/>
				</lyric>
				<lyric number="3" justify="right" default-y="-169.66">
					<syllabic>single</syllabic>
					<text font-family="Cambria" font-size="10" font-weight="normal" font-style="normal" xml:lang="en">while.</text>
					<extend/>
				</lyric>
				<lyric number="4" justify="right" default-y="-190.34">
					<syllabic>single</syllabic>
					<text font-family="Cambria" font-size="10" font-weight="normal" font-style="normal" xml:lang="en">see.</text>
					<extend/>
				</lyric>
			</note>
			<barline location="right">
				<repeat direction="backward" times="4"/>
			</barline>
		</measure>
		<!--==========================[1,11]=============================-->
		<measure number="11" width="60">
			<print new-system="yes">
				<system-layout>
					<system-margins>
						<left-margin>63.000</left-margin>
						<right-margin>0.000</right-margin>
					</system-margins>
					<system-distance>137.000</system-distance>
				</system-layout>
			</print>
			<direction placement="above">
				<direction-type>
					<words font-family="Cambria" font-size="7" font-weight="normal" font-style="italic" relative-x="0.00" default-y="53.20">Refrain</words>
				</direction-type>
			</direction>
			<note>
				<pitch>
					<step>F</step>
					<octave>4</octave>
				</pitch>
				<duration>5040</duration>
				<voice>1</voice>
				<type>eighth</type>
				<dot/>
				<stem default-y="16.67">up</stem>
				<lyric number="1" justify="right" default-y="-128.28">
					<syllabic>single</syllabic>
					<text font-family="Cambria" font-size="10" font-weight="normal" font-style="normal" xml:lang="en">Oh,</text>
					<extend/>
				</lyric>
			</note>
			<note>
				<pitch>
					<step>F</step>
					<octave>4</octave>
				</pitch>
				<duration>1680</duration>
				<voice>1</voice>
				<type>16th</type>
				<stem default-y="16.67">up</stem>
				<lyric number="1" justify="right" default-y="-128.28">
					<syllabic>single</syllabic>
					<text font-family="Cambria" font-size="10" font-weight="normal" font-style="normal" xml:lang="en">the</text>
					<extend/>
				</lyric>
			</note>
		</measure>
		<!--==========================[1,12]=============================-->
		<measure number="12" width="164">
			<note>
				<pitch>
					<step>F</step>
					<octave>4</octave>
				</pitch>
				<duration>10080</duration>
				<voice>1</voice>
				<type>quarter</type>
				<dot/>
				<stem default-y="20.00">up</stem>
				<lyric number="1" justify="right" default-y="-128.28">
					<syllabic>single</syllabic>
					<text font-family="Cambria" font-size="10" font-weight="normal" font-style="normal" xml:lang="en">height</text>
					<extend/>
				</lyric>
			</note>
			<note>
				<pitch>
					<step>F</step>
					<octave>4</octave>
				</pitch>
				<duration>3360</duration>
				<voice>1</voice>
				<type>eighth</type>
				<stem default-y="20.00">up</stem>
				<lyric number="1" justify="right" default-y="-128.28">
					<syllabic>single</syllabic>
					<text font-family="Cambria" font-size="10" font-weight="normal" font-style="normal" xml:lang="en">and</text>
					<extend/>
				</lyric>
			</note>
			<note>
				<pitch>
					<step>F</step>
					<octave>4</octave>
				</pitch>
				<duration>5040</duration>
				<voice>1</voice>
				<type>eighth</type>
				<dot/>
				<stem default-y="11.67">up</stem>
				<lyric number="1" justify="right" default-y="-128.28">
					<syllabic>single</syllabic>
					<text font-family="Cambria" font-size="10" font-weight="normal" font-style="normal" xml:lang="en">depth</text>
					<extend/>
				</lyric>
			</note>
			<note>
				<pitch>
					<step>F</step>
					<octave>4</octave>
				</pitch>
				<duration>1680</duration>
				<voice>1</voice>
				<type>16th</type>
				<stem default-y="16.67">up</stem>
				<lyric number="1" justify="right" default-y="-128.28">
					<syllabic>single</syllabic>
					<text font-family="Cambria" font-size="10" font-weight="normal" font-style="normal" xml:lang="en">of</text>
					<extend/>
				</lyric>
			</note>
		</measure>
		<!--==========================[1,13]=============================-->
		<measure number="13" width="164">
			<note>
				<pitch>
					<step>F</step>
					<octave>4</octave>
				</pitch>
				<duration>6720</duration>
				<voice>1</voice>
				<type>quarter</type>
				<stem default-y="16.67">up</stem>
				<lyric number="1" justify="right" default-y="-128.28">
					<syllabic>begin</syllabic>
					<text font-family="Cambria" font-size="10" font-weight="normal" font-style="normal" xml:lang="en">mer</text>
				</lyric>
			</note>
			<note>
				<pitch>
					<step>F</step>
					<octave>4</octave>
				</pitch>
				<duration>6720</duration>
				<voice>1</voice>
				<type>quarter</type>
				<stem default-y="6.67">up</stem>
				<lyric number="1" justify="right" default-y="-128.28">
					<syllabic>end</syllabic>
					<text font-family="Cambria" font-size="10" font-weight="normal" font-style="normal" xml:lang="en">cy!</text>
					<extend/>
				</lyric>
			</note>
			<note>
				<pitch>
					<step>F</step>
					<octave>4</octave>
				</pitch>
				<duration>5040</duration>
				<voice>1</voice>
				<type>eighth</type>
				<dot/>
				<stem default-y="6.67">up</stem>
				<lyric number="1" justify="right" default-y="-128.28">
					<syllabic>single</syllabic>
					<text font-family="Cambria" font-size="10" font-weight="normal" font-style="normal" xml:lang="en">
Oh,</text>
					<extend/>
				</lyric>
			</note>
			<note>
				<pitch>
					<step>F</step>
					<octave>4</octave>
				</pitch>
				<duration>1680</duration>
				<voice>1</voice>
				<type>16th</type>
				<stem default-y="6.67">up</stem>
				<lyric number="1" justify="right" default-y="-128.28">
					<syllabic>single</syllabic>
					<text font-family="Cambria" font-size="10" font-weight="normal" font-style="normal" xml:lang="en">the</text>
					<extend/>
				</lyric>
			</note>
		</measure>
		<!--==========================[1,14]=============================-->
		<measure number="14" width="164">
			<note>
				<pitch>
					<step>E</step>
					<octave>4</octave>
				</pitch>
				<duration>10080</duration>
				<voice>1</voice>
				<type>quarter</type>
				<dot/>
				<stem default-y="1.67">up</stem>
				<lyric number="1" justify="right" default-y="-128.28">
					<syllabic>single</syllabic>
					<text font-family="Cambria" font-size="10" font-weight="normal" font-style="normal" xml:lang="en">length</text>
					<extend/>
				</lyric>
			</note>
			<note>
				<pitch>
					<step>G</step>
					<octave>4</octave>
				</pitch>
				<duration>3360</duration>
				<voice>1</voice>
				<type>eighth</type>
				<stem default-y="1.67">up</stem>
			</note>
			<backup>
				<duration>3360</duration>
			</backup>
			<note>
				<pitch>
					<step>G</step>
					<octave>4</octave>
				</pitch>
				<duration>3360</duration>
				<voice>2</voice>
				<type>eighth</type>
				<stem default-y="-61.67">down</stem>
				<lyric number="1" justify="right" default-y="-128.28">
					<syllabic>single</syllabic>
					<text font-family="Cambria" font-size="10" font-weight="normal" font-style="normal" xml:lang="en">and</text>
					<extend/>
				</lyric>
			</note>
			<note>
				<pitch>
					<step>F</step>
					<octave>4</octave>
				</pitch>
				<duration>5040</duration>
				<voice>1</voice>
				<type>eighth</type>
				<dot/>
				<stem default-y="11.67">up</stem>
				<lyric number="1" justify="right" default-y="-128.28">
					<syllabic>single</syllabic>
					<text font-family="Cambria" font-size="10" font-weight="normal" font-style="normal" xml:lang="en">breadth</text>
					<extend/>
				</lyric>
			</note>
			<note>
				<pitch>
					<step>F</step>
					<octave>4</octave>
				</pitch>
				<duration>1680</duration>
				<voice>1</voice>
				<type>16th</type>
				<stem default-y="16.67">up</stem>
				<lyric number="1" justify="right" default-y="-128.28">
					<syllabic>single</syllabic>
					<text font-family="Cambria" font-size="10" font-weight="normal" font-style="normal" xml:lang="en">of</text>
					<extend/>
				</lyric>
			</note>
		</measure>
		<!--==========================[1,15]=============================-->
		<measure number="15" width="111">
			<note>
				<pitch>
					<step>E</step>
					<octave>4</octave>
				</pitch>
				<duration>13440</duration>
				<voice>1</voice>
				<type>half</type>
				<stem default-y="16.67">up</stem>
				<lyric number="1" justify="right" default-y="-128.28">
					<syllabic>single</syllabic>
					<text font-family="Cambria" font-size="10" font-weight="normal" font-style="normal" xml:lang="en">love!</text>
					<extend/>
				</lyric>
			</note>
		</measure>
		<!--==========================[1,16]=============================-->
		<measure number="16" width="60">
			<print new-system="yes">
				<system-layout>
					<system-margins>
						<left-margin>63.000</left-margin>
						<right-margin>0.000</right-margin>
					</system-margins>
					<system-distance>137.000</system-distance>
				</system-layout>
			</print>
			<note>
				<pitch>
					<step>C</step>
					<octave>4</octave>
				</pitch>
				<duration>5040</duration>
				<voice>1</voice>
				<type>eighth</type>
				<dot/>
				<stem default-y="1.67">up</stem>
				<lyric number="1" justify="right" default-y="-128.28">
					<syllabic>single</syllabic>
					<text font-family="Cambria" font-size="10" font-weight="normal" font-style="normal" xml:lang="en">
Oh,</text>
					<extend/>
				</lyric>
			</note>
			<note>
				<pitch>
					<step>C</step>
					<octave>4</octave>
				</pitch>
				<duration>1680</duration>
				<voice>1</voice>
				<type>16th</type>
				<stem default-y="5.00">up</stem>
				<lyric number="1" justify="right" default-y="-128.28">
					<syllabic>single</syllabic>
					<text font-family="Cambria" font-size="10" font-weight="normal" font-style="normal" xml:lang="en">the</text>
					<extend/>
				</lyric>
			</note>
		</measure>
		<!--==========================[1,17]=============================-->
		<measure number="17" width="164">
			<note>
				<pitch>
					<step>F</step>
					<octave>4</octave>
				</pitch>
				<duration>10080</duration>
				<voice>1</voice>
				<type>quarter</type>
				<dot/>
				<stem default-y="6.67">up</stem>
				<lyric number="1" justify="right" default-y="-128.28">
					<syllabic>begin</syllabic>
					<text font-family="Cambria" font-size="10" font-weight="normal" font-style="normal" xml:lang="en">full</text>
				</lyric>
			</note>
			<note>
				<pitch>
					<step>F</step>
					<octave>4</octave>
				</pitch>
				<duration>3360</duration>
				<voice>1</voice>
				<type>eighth</type>
				<stem default-y="6.67">up</stem>
				<lyric number="1" justify="right" default-y="-128.28">
					<syllabic>end</syllabic>
					<text font-family="Cambria" font-size="10" font-weight="normal" font-style="normal" xml:lang="en">ness</text>
					<extend/>
				</lyric>
			</note>
			<note>
				<pitch>
					<step>E</step>
					<octave>4</octave>
				</pitch>
				<duration>5040</duration>
				<voice>1</voice>
				<type>eighth</type>
				<dot/>
				<stem default-y="1.67">up</stem>
				<lyric number="1" justify="right" default-y="-128.28">
					<syllabic>single</syllabic>
					<text font-family="Cambria" font-size="10" font-weight="normal" font-style="normal" xml:lang="en">of</text>
					<extend/>
				</lyric>
			</note>
			<note>
				<pitch>
					<step>F</step>
					<octave>4</octave>
				</pitch>
				<duration>1680</duration>
				<voice>1</voice>
				<type>16th</type>
				<stem default-y="6.67">up</stem>
				<lyric number="1" justify="right" default-y="-128.28">
					<syllabic>begin</syllabic>
					<text font-family="Cambria" font-size="10" font-weight="normal" font-style="normal" xml:lang="en">re</text>
				</lyric>
			</note>
		</measure>
		<!--==========================[1,18]=============================-->
		<measure number="18" width="164">
			<note>
				<pitch>
					<step>E</step>
					<octave>4</octave>
				</pitch>
				<duration>6720</duration>
				<voice>1</voice>
				<type>quarter</type>
				<stem default-y="16.67">up</stem>
				<lyric number="1" justify="right" default-y="-128.28">
					<syllabic>middle</syllabic>
					<text font-family="Cambria" font-size="10" font-weight="normal" font-style="normal" xml:lang="en">demp</text>
				</lyric>
			</note>
			<note>
				<pitch>
					<step>E</step>
					<octave>4</octave>
				</pitch>
				<duration>6720</duration>
				<voice>1</voice>
				<type>quarter</type>
				<stem default-y="11.67">up</stem>
				<lyric number="1" justify="right" default-y="-128.28">
					<syllabic>end</syllabic>
					<text font-family="Cambria" font-size="10" font-weight="normal" font-style="normal" xml:lang="en">tion,</text>
					<extend/>
				</lyric>
			</note>
			<note>
				<pitch>
					<step>G</step>
					<octave>4</octave>
				</pitch>
				<duration>5040</duration>
				<voice>1</voice>
				<type>eighth</type>
				<dot/>
				<stem default-y="11.67">up</stem>
				<lyric number="1" justify="right" default-y="-128.28">
					<syllabic>single</syllabic>
					<text font-family="Cambria" font-size="10" font-weight="normal" font-style="normal" xml:lang="en">
Pledge</text>
					<extend/>
				</lyric>
			</note>
			<note>
				<pitch>
					<step>F</step>
					<octave>4</octave>
				</pitch>
				<duration>1680</duration>
				<voice>1</voice>
				<type>16th</type>
				<stem default-y="6.67">up</stem>
				<lyric number="1" justify="right" default-y="-128.28">
					<syllabic>single</syllabic>
					<text font-family="Cambria" font-size="10" font-weight="normal" font-style="normal" xml:lang="en">of</text>
					<extend/>
				</lyric>
			</note>
		</measure>
		<!--==========================[1,19]=============================-->
		<measure number="19" width="164">
			<note>
				<pitch>
					<step>E</step>
					<octave>4</octave>
				</pitch>
				<duration>10080</duration>
				<voice>1</voice>
				<type>quarter</type>
				<dot/>
				<stem default-y="1.67">up</stem>
				<lyric number="1" justify="right" default-y="-128.28">
					<syllabic>begin</syllabic>
					<text font-family="Cambria" font-size="10" font-weight="normal" font-style="normal" xml:lang="en">end</text>
				</lyric>
			</note>
			<note>
				<pitch>
					<step>F</step>
					<octave>4</octave>
				</pitch>
				<duration>3360</duration>
				<voice>1</voice>
				<type>eighth</type>
				<stem default-y="-3.33">up</stem>
			</note>
			<backup>
				<duration>3360</duration>
			</backup>
			<note>
				<pitch>
					<step>F</step>
					<octave>4</octave>
				</pitch>
				<duration>3360</duration>
				<voice>2</voice>
				<type>eighth</type>
				<stem default-y="-61.67">down</stem>
				<lyric number="1" justify="right" default-y="-128.28">
					<syllabic>end</syllabic>
					<text font-family="Cambria" font-size="10" font-weight="normal" font-style="normal" xml:lang="en">less</text>
					<extend/>
				</lyric>
			</note>
			<note>
				<pitch>
					<step>F</step>
					<octave>4</octave>
				</pitch>
				<duration>5040</duration>
				<voice>1</voice>
				<type>eighth</type>
				<dot/>
				<stem default-y="6.67">up</stem>
				<lyric number="1" justify="right" default-y="-128.28">
					<syllabic>single</syllabic>
					<text font-family="Cambria" font-size="10" font-weight="normal" font-style="normal" xml:lang="en">life</text>
					<extend/>
				</lyric>
			</note>
			<note>
				<pitch>
					<step>E</step>
					<octave>4</octave>
				</pitch>
				<duration>1680</duration>
				<voice>1</voice>
				<type>16th</type>
				<stem default-y="5.00">up</stem>
				<lyric number="1" justify="right" default-y="-128.28">
					<syllabic>begin</syllabic>
					<text font-family="Cambria" font-size="10" font-weight="normal" font-style="normal" xml:lang="en">a</text>
				</lyric>
			</note>
		</measure>
		<!--==========================[1,20]=============================-->
		<measure number="20" width="111">
			<note>
				<pitch>
					<step>F</step>
					<octave>4</octave>
				</pitch>
				<duration>13440</duration>
				<voice>1</voice>
				<type>half</type>
				<stem default-y="-3.33">up</stem>
			</note>
			<backup>
				<duration>13440</duration>
			</backup>
			<note>
				<pitch>
					<step>F</step>
					<octave>4</octave>
				</pitch>
				<duration>13440</duration>
				<voice>2</voice>
				<type>half</type>
				<stem default-y="-61.67">down</stem>
				<lyric number="1" justify="right" default-y="-128.28">
					<syllabic>end</syllabic>
					<text font-family="Cambria" font-size="10" font-weight="normal" font-style="normal" xml:lang="en">bove!</text>
					<extend/>
				</lyric>
			</note>
			<barline location="right">
				<bar-style>light-heavy</bar-style>
			</barline>
		</measure>
	</part>
	<part id="P2">
		<!--==========================[2,1]=============================-->
		<measure number="1" width="147">
			<print new-page="yes">
				<staff-layout number="1">
					<staff-distance>130.000</staff-distance>
				</staff-layout>
			</print>
			<barline location="left">
				<repeat direction="forward"/>
			</barline>
			<attributes>
				<divisions>6720</divisions>
				<key>
					<cancel>-6</cancel>
					<fifths>-1</fifths>
					<mode>major</mode>
				</key>
				<time>
					<beats>3</beats>
					<beat-type>4</beat-type>
				</time>
				<clef number="1">
					<sign>F</sign>
					<line>4</line>
				</clef>
				<staff-details number="1" print-object="yes">
					<staff-lines>5</staff-lines>
					<staff-size>72.50</staff-size>
				</staff-details>
			</attributes>
		</measure>
		<!--==========================[2,2]=============================-->
		<measure number="2" width="151">
		</measure>
		<!--==========================[2,3]=============================-->
		<measure number="3" width="151">
		</measure>
		<!--==========================[2,4]=============================-->
		<measure number="4" width="151">
		</measure>
		<!--==========================[2,5]=============================-->
		<measure number="5" width="104">
		</measure>
		<!--==========================[2,6]=============================-->
		<measure number="6" width="60">
			<print new-system="yes">
				<staff-layout number="1">
					<staff-distance>129.000</staff-distance>
				</staff-layout>
			</print>
		</measure>
		<!--==========================[2,7]=============================-->
		<measure number="7" width="164">
		</measure>
		<!--==========================[2,8]=============================-->
		<measure number="8" width="164">
		</measure>
		<!--==========================[2,9]=============================-->
		<measure number="9" width="164">
		</measure>
		<!--==========================[2,10]=============================-->
		<measure number="10" width="111">
		</measure>
		<!--==========================[2,11]=============================-->
		<measure number="11" width="60">
			<print new-system="yes">
				<staff-layout number="1">
					<staff-distance>75.000</staff-distance>
				</staff-layout>
			</print>
		</measure>
		<!--==========================[2,12]=============================-->
		<measure number="12" width="164">
		</measure>
		<!--==========================[2,13]=============================-->
		<measure number="13" width="164">
		</measure>
		<!--==========================[2,14]=============================-->
		<measure number="14" width="164">
		</measure>
		<!--==========================[2,15]=============================-->
		<measure number="15" width="111">
		</measure>
		<!--==========================[2,16]=============================-->
		<measure number="16" width="60">
			<print new-system="yes">
				<staff-layout number="1">
					<staff-distance>75.000</staff-distance>
				</staff-layout>
			</print>
		</measure>
		<!--==========================[2,17]=============================-->
		<measure number="17" width="164">
		</measure>
		<!--==========================[2,18]=============================-->
		<measure number="18" width="164">
		</measure>
		<!--==========================[2,19]=============================-->
		<measure number="19" width="164">
		</measure>
		<!--==========================[2,20]=============================-->
		<measure number="20" width="111">
		</measure>
	</part>
</score-partwise>
